<?xml version="1.0" encoding="UTF-8"?>
<!-- Generator: Adobe Illustrator 19.0.0, SVG Export Plug-In . SVG Version: 6.00 Build 0)  -->
<svg width="50px" height="25px" viewBox="0 0 388 388" version="1.1" id="Capa_1" xmlns="http://www.w3.org/2000/svg" xmlns:xlink="http://www.w3.org/1999/xlink" x="0px" y="0px" fill="#337AB7"
	 style="enable-background:new 0 0 388 388;" xml:space="preserve">
<g>
	<g>
		<path d="M0,106v245.8c0.1,16.6,13.5,30.1,30.1,30.2h327.7c16.6-0.1,30.1-13.6,30.1-30.2V106H0z M287.9,336.3c0,5.5-5,9.7-10.5,9.7
			h-167c-5.5,0-10.5-4.2-10.5-9.7v-45.7h0.1c0-16.1,13.6-29.6,29.7-29.6H159v-37.9c0-9.5,6.1-17.9,15.1-20.8c-1.5-1.1-3-2.3-4.3-3.7
			c-13-13.6-13-35,0-48.5l17-17.4c3.9-3.9,10.2-4,14.1-0.2c0.1,0.1,0.1,0.1,0.2,0.2l16.9,17.4c13.4,13.7,13.2,35.7-0.5,49.2
			c-1.1,1.1-2.4,2.2-3.7,3.1c9,2.9,15.2,11.3,15.1,20.8V261h29.3c16.1,0,29.7,13.5,29.7,29.6V336.3z"/>
	</g>
</g>
<g>
	<g>
		<path d="M252.8,316.5c-4.7-2.2-8.3-3.8-16.6-3.8c-8.4,0-12.2,1.7-17,3.9c-16,7.6-34.6,7.6-50.6,0c-4.8-2.2-8.6-3.9-17-3.9
			c-8.3,0-11.8,1.6-16.5,3.8c-4.8,2.5-9.9,4.2-15.2,5v4.5h148v-4.5h0.1C262.7,320.6,257.6,318.9,252.8,316.5z"/>
	</g>
</g>
<g>
	<g>
		<path d="M203.8,163.9l-9.7-10l-9.8,10c-5.7,6-5.6,15.1,0,20.9c5.1,5.4,13.6,5.6,19,0.5c0.2-0.2,0.3-0.3,0.5-0.5
			C209.4,179,209.4,169.8,203.8,163.9z"/>
	</g>
</g>
<g>
	<g>
		<path d="M258.4,281H129.7c-5.3,0.1-9.5,4.3-9.7,9.6V301c2.3-0.6,4.5-1.4,6.6-2.6c5.4-2.6,12.4-5.8,25.2-5.8
			c8.8-0.2,17.4,1.8,25.3,5.7c4.8,2.2,8.6,3.9,17,3.9c8.4,0,12.2-1.7,17-3.9c7.9-3.9,16.5-5.9,25.3-5.7c12.8,0,19.7,3.2,25.1,5.8
			c2.1,1.2,4.3,2.1,6.6,2.6v-10.4C267.9,285.3,263.6,281.1,258.4,281z"/>
	</g>
</g>
<g>
	<g>
		<path d="M209,223.1c0-1-0.5-2.1-1.5-2.1h-26.9c-1,0-1.5,1.1-1.5,2.1V261h30v-37.9H209z"/>
	</g>
</g>
<g>
	<g>
		<path d="M357.9,6H30.1C13.5,6.1,0.1,19.6,0,36.2V86h388V36.2C387.9,19.6,374.5,6.1,357.9,6z M89,63H48c-5.5,0-10-4.5-10-10
			s4.5-10,10-10h41c5.5,0,10,4.5,10,10S94.5,63,89,63z M339,63h-41c-5.5,0-10-4.5-10-10s4.5-10,10-10h41c5.5,0,10,4.5,10,10
			S344.5,63,339,63z"/>
		
	</g>
</g>
<g>
</g>
<g>
</g>
<g>
</g>
<g>
</g>
<g>
</g>
<g>
</g>
<g>
</g>
<g>
</g>
<g>
</g>
<g>
</g>
<g>
</g>
<g>
</g>
<g>
</g>
<g>
</g>
<g>
</g>
</svg>
