<?xml version="1.0" encoding="UTF-8"?>
<svg width="50px" height="50px" viewBox="0 0 50 50" version="1.1" xmlns="http://www.w3.org/2000/svg" xmlns:xlink="http://www.w3.org/1999/xlink">
    <!-- Generator: Sketch 47.1 (45422) - http://www.bohemiancoding.com/sketch -->
    <title>icons / close-2</title>
    <desc>Created with Sketch.</desc>
    <defs>
        <path d="M24.7788036,23.36459 L15.5,14.0857864 L14.0857864,15.5 L23.36459,24.7788036 L13.5857864,34.5576072 L15,35.9718208 L24.7788036,26.1930172 L35.0576072,36.4718208 L36.4718208,35.0576072 L26.1930172,24.7788036 L35.9718208,15 L34.5576072,13.5857864 L24.7788036,23.36459 L24.7788036,23.36459 Z M25,50 C11.1928813,50 0,38.8071187 0,25 C0,11.1928813 11.1928813,0 25,0 C38.8071187,0 50,11.1928813 50,25 C50,38.8071187 38.8071187,50 25,50 Z" id="path-1"></path>
    </defs>
    <g id="Symbols" stroke="none" stroke-width="1" fill="none" fill-rule="evenodd">
        <g id="icons-/-close-2">
            <mask id="mask-2" fill="white">
                <use xlink:href="#path-1"></use>
            </mask>
            <use id="Mask" fill="#E5E5E5" xlink:href="#path-1"></use>
            <g id="color-/-blue" mask="url(#mask-2)" fill="#337AB7">
                <g transform="translate(-52.000000, -40.000000)" id="Rectangle-19-Copy">
                    <rect x="0" y="0" width="150" height="150"></rect>
                </g>
            </g>
        </g>
    </g>
</svg>