<?xml version="1.0" encoding="UTF-8"?>
<svg width="50px" height="50px" viewBox="0 0 50 50" version="1.1" xmlns="http://www.w3.org/2000/svg" xmlns:xlink="http://www.w3.org/1999/xlink">
    <!-- Generator: Sketch 47.1 (45422) - http://www.bohemiancoding.com/sketch -->
    <title>icons / company</title>
    <desc>Created with Sketch.</desc>
    <defs>
        <path d="M22.361111,29.8827776 L26.5416665,29.8827776 L26.5416665,35.0666664 L35.0699997,35.0666664 L35.0699997,17.3411111 L32.3944442,17.3411111 L32.3944442,15 L16.6755555,15 L16.6755555,17.3411111 L14,17.3411111 L14,35.0666664 L22.361111,35.0666664 L22.361111,29.8827776 Z M28.5483331,19.8494444 L32.5616664,19.8494444 L32.5616664,22.5249999 L28.5483331,22.5249999 L28.5483331,19.8494444 Z M28.5483331,24.866111 L32.5616664,24.866111 L32.5616664,27.5416665 L28.5483331,27.5416665 L28.5483331,24.866111 Z M28.5483331,29.8827776 L32.5616664,29.8827776 L32.5616664,32.5583331 L28.5483331,32.5583331 L28.5483331,29.8827776 Z M22.361111,19.8494444 L26.5416665,19.8494444 L26.5416665,22.5249999 L22.361111,22.5249999 L22.361111,19.8494444 Z M22.361111,24.866111 L26.5416665,24.866111 L26.5416665,27.5416665 L22.361111,27.5416665 L22.361111,24.866111 Z M20.3544444,32.5583331 L16.3411111,32.5583331 L16.3411111,29.8827776 L20.3544444,29.8827776 L20.3544444,32.5583331 Z M20.3544444,27.5416665 L16.3411111,27.5416665 L16.3411111,24.866111 L20.3544444,24.866111 L20.3544444,27.5416665 Z M20.3544444,22.5249999 L16.3411111,22.5249999 L16.3411111,19.8494444 L20.3544444,19.8494444 L20.3544444,22.5249999 Z" id="path-1"></path>
    </defs>
    <g id="Symbols" stroke="none" stroke-width="1" fill="none" fill-rule="evenodd">
        <g id="icons-/-company">
            <mask id="mask-2" fill="white">
                <use xlink:href="#path-1"></use>
            </mask>
            <use id="Mask" fill="#000000" fill-rule="nonzero" xlink:href="#path-1"></use>
            <g id="color-/-blue" mask="url(#mask-2)" fill="#337AB7">
                <g transform="translate(-47.000000, -62.000000)" id="Rectangle-19-Copy">
                    <rect x="0" y="0" width="150" height="150"></rect>
                </g>
            </g>
        </g>
    </g>
</svg>