<?xml version="1.0" encoding="UTF-8"?>
<svg width="26px" height="19px" viewBox="0 0 26 19" version="1.1" xmlns="http://www.w3.org/2000/svg" xmlns:xlink="http://www.w3.org/1999/xlink">
    <!-- Generator: Sketch 47.1 (45422) - http://www.bohemiancoding.com/sketch -->
    <title>icons / exp</title>
    <desc>Created with Sketch.</desc>
    <defs></defs>
    <g id="Symbols" stroke="none" stroke-width="1" fill="none" fill-rule="evenodd">
        <g id="icons-/-exp" fill="#E5E5E5">
            <path d="M1.14,15 L7.425,15 L7.425,13.14 L3.36,13.14 L3.36,10.89 L6.69,10.89 L6.69,9.045 L3.36,9.045 L3.36,7.08 L7.275,7.08 L7.275,5.22 L1.14,5.22 L1.14,15 Z M8.355,15 L10.71,15 L11.625,13.005 C11.85,12.495 12.06,12 12.3,11.4 L12.36,11.4 C12.615,12 12.84,12.495 13.095,13.005 L14.055,15 L16.515,15 L13.815,10.08 L16.35,5.22 L13.995,5.22 L13.215,7.065 C13.02,7.515 12.825,8.025 12.6,8.64 L12.54,8.64 C12.255,8.025 12.045,7.515 11.82,7.065 L10.98,5.22 L8.505,5.22 L11.055,9.975 L8.355,15 Z M17.82,15 L17.82,5.22 L21.39,5.22 C23.52,5.22 25.215,6 25.215,8.37 C25.215,10.665 23.46,11.685 21.39,11.685 L20.04,11.685 L20.04,15 L17.82,15 Z M20.04,9.93 L21.255,9.93 C22.47,9.93 23.055,9.39 23.055,8.37 C23.055,7.35 22.425,6.975 21.255,6.975 L20.04,6.975 L20.04,9.93 Z" id="EXP"></path>
        </g>
    </g>
</svg>