<?xml version="1.0" encoding="UTF-8"?>
<svg width="50px" height="50px" viewBox="0 0 50 50" version="1.1" xmlns="http://www.w3.org/2000/svg" xmlns:xlink="http://www.w3.org/1999/xlink">
    <!-- Generator: Sketch 47.1 (45422) - http://www.bohemiancoding.com/sketch -->
    <title>icons / location</title>
    <desc>Created with Sketch.</desc>
    <defs>
        <path d="M32.6764941,19.1708153 C32.5882416,18.8400557 32.4090273,18.4876222 32.2764468,18.1790555 C30.689977,14.3663862 27.2235734,13 24.4246261,13 C20.6777283,13 16.5509584,15.5124581 16,20.6912254 L16,21.7492754 C16,21.7934305 16.0152179,22.1900767 16.0368343,22.3884863 C16.3456892,24.8565588 18.2931815,27.4795775 19.7476472,29.94765 C21.312443,32.5919392 22.9361506,35.1931687 24.5448132,37.7933028 C25.5367459,36.096503 26.5251047,34.3773951 27.4944411,32.7245197 C27.7586222,32.239448 28.0652866,31.7546646 28.3297559,31.2916704 C28.5060303,30.9833919 28.8427848,30.6751134 28.9966358,30.3882784 C30.5613739,27.5234444 33.0799999,24.6364752 33.0799999,21.7933728 L33.0799999,20.6253963 C33.0800576,20.3171754 32.6979952,19.2372784 32.6764941,19.1708153 Z M24.4932221,24.4822206 C23.391824,24.4822206 22.1862638,23.9314928 21.5912079,22.4105639 C21.5025519,22.1684604 21.5096997,21.6832734 21.5096997,21.6388301 L21.5096997,20.955637 C21.5096997,19.0167337 23.1560037,18.1350157 24.5882189,18.1350157 C26.3514243,18.1350157 27.7151012,19.5456722 27.7151012,21.3088776 C27.7151012,23.0720253 26.2564275,24.4822206 24.4932221,24.4822206 Z" id="path-1"></path>
    </defs>
    <g id="Symbols" stroke="none" stroke-width="1" fill="none" fill-rule="evenodd">
        <g id="icons-/-location">
            <mask id="mask-2" fill="white">
                <use xlink:href="#path-1"></use>
            </mask>
            <use id="Mask" fill="#E5E5E5" fill-rule="nonzero" xlink:href="#path-1"></use>
        </g>
    </g>
</svg>