<?xml version="1.0" encoding="utf-8"?>
<!-- Generator: Adobe Illustrator 22.0.1, SVG Export Plug-In . SVG Version: 6.00 Build 0)  -->
<svg width="33px" height="35px" viewBox="0 0 33 35" version="1.1" xmlns="http://www.w3.org/2000/svg" xmlns:xlink="http://www.w3.org/1999/xlink">
<style type="text/css">
	.st0{display:none;}
	.st1{display:inline;}
	.st2{fill:#E5E5E5;}
	.st3{filter:url(#Adobe_OpacityMaskFilter);}
	.st4{fill:#FFFFFF;}
	.st5{mask:url(#mask-2_1_);fill:#E5E5E5;}
	.st6{fill:#337AB7;}
</style>
<g id="Layer_1" class="st0">
	<title>notification / not-active</title>
	<desc>Created with Sketch.</desc>
	<g id="Symbols" class="st1">
		<g id="notification-_x2F_-not-active">
			<g id="notification">
				
					<g id="Page-1" transform="translate(16.336806, 17.456272) rotate(-330.000000) translate(-16.336806, -17.456272) translate(5.836806, 3.956272)">
					<g>
						<path id="Fill-1" class="st2" d="M10.1,26.4c1.7,0,3.1-1.4,3.1-3.1H7C7,25.1,8.4,26.4,10.1,26.4"/>
						<g id="Group-5">
							<g id="Clip-4">
							</g>
							<defs>
								<filter id="Adobe_OpacityMaskFilter" filterUnits="userSpaceOnUse" x="5.4" y="-1.2" width="7.1" height="31.4">
									<feColorMatrix  type="matrix" values="1 0 0 0 0  0 1 0 0 0  0 0 1 0 0  0 0 0 1 0"/>
								</filter>
							</defs>
							<mask maskUnits="userSpaceOnUse" x="5.4" y="-1.2" width="7.1" height="31.4" id="mask-2_1_">
								<g class="st3">
									<polygon id="path-1_1_" class="st4" points="21,0.2 21,21.7 0,21.7 0,0.2 									"/>
								</g>
							</mask>
							<path id="Fill-3" class="st5" d="M19.8,18.4l-0.7-5.7c0-4.2-2.9-7.7-6.9-8.5l0-2.2c0-1-0.8-1.8-1.8-1.8c-1,0-1.8,0.8-1.8,1.8
								l0,2.2C4.8,5,1.8,8.5,1.8,12.7l-0.7,5.7c-0.7,0.3-1.2,1-1.2,1.9l0,0.2c0,1.2,0.9,1.2,2.1,1.2l16.8,0c1.1,0,2.1-0.1,2.1-1.2v0
								h0v-0.2C21,19.5,20.5,18.7,19.8,18.4"/>
						</g>
					</g>
				</g>
			</g>
		</g>
	</g>
</g>
<g id="Layer_2">
	<path class="st6" d="M6.8,6.2h20.3c1.4,0,2.5,1.2,2.5,2.5v14c0,1.4-1.2,2.5-2.5,2.5H15.1L11,29.7c-0.1,0.1-0.2,0.1-0.3,0.1
		c-0.1,0-0.1,0-0.2,0c-0.2-0.1-0.3-0.2-0.3-0.4v-4.2H6.8c-1.4,0-2.5-1.2-2.5-2.5v-14C4.3,7.3,5.5,6.2,6.8,6.2z"/>
</g>
</svg>
