<?xml version="1.0" encoding="UTF-8"?>
<svg width="33px" height="35px" viewBox="0 0 33 35" version="1.1" xmlns="http://www.w3.org/2000/svg" xmlns:xlink="http://www.w3.org/1999/xlink">
    <!-- Generator: Sketch 47.1 (45422) - http://www.bohemiancoding.com/sketch -->
    <title>notification / active</title>
    <desc>Created with Sketch.</desc>
    <defs>
        <polygon id="path-1" points="20.9642045 0.159362092 20.9642045 21.7188817 3.18181818e-05 21.7188817 3.18181818e-05 0.159362092"></polygon>
    </defs>
    <g id="Symbols" stroke="none" stroke-width="1" fill="none" fill-rule="evenodd">
        <g id="notification-/-active">
            <g id="notification">
                <g transform="translate(16.336806, 17.456272) rotate(-330.000000) translate(-16.336806, -17.456272) translate(5.836806, 3.956272)" id="Page-1">
                    <g>
                        <path d="M10.1114302,26.4444444 C11.8293469,26.4444444 13.2225413,25.0523503 13.2222222,23.3333333 L7,23.3333333 C7,25.0523503 8.39335395,26.4444444 10.1114302,26.4444444" id="Fill-1" fill="#337AB7"></path>
                        <g id="Group-5">
                            <mask id="mask-2" fill="white">
                                <use xlink:href="#path-1"></use>
                            </mask>
                            <g id="Clip-4"></g>
                            <path d="M19.7841,18.4120222 L19.1249864,12.686068 C19.1249864,8.49416601 16.1803727,4.99643072 12.2600545,4.17111699 L12.2600545,1.94850261 C12.2600545,0.960496078 11.4641227,0.159362092 10.4825318,0.159362092 C9.50030455,0.159362092 8.70437273,0.960496078 8.70437273,1.94850261 L8.70437273,4.17095686 C4.78421364,4.99643072 1.83944091,8.49448627 1.83944091,12.6859078 L1.18032727,18.4110614 C0.484304545,18.7482967 3.18181818e-05,19.4592771 3.18181818e-05,20.2895549 L3.18181818e-05,20.4884373 C3.18181818e-05,21.6429797 0.928645455,21.7188817 2.07537273,21.7188817 L18.8876227,21.7188817 C20.0338727,21.7188817 20.9634409,21.6429797 20.9634409,20.4884373 L20.9634409,20.4885974 L20.9642364,20.4885974 L20.9642364,20.289715 C20.9642364,19.4594373 20.4801227,18.7495778 19.7841,18.4120222" id="Fill-3" fill="#337AB7" mask="url(#mask-2)"></path>
                        </g>
                    </g>
                </g>
            </g>
        </g>
    </g>
</svg>