<?xml version="1.0" encoding="UTF-8"?>
<svg width="20px" height="20px" viewBox="0 0 20 20" version="1.1" xmlns="http://www.w3.org/2000/svg" xmlns:xlink="http://www.w3.org/1999/xlink">
    <!-- Generator: Sketch 47.1 (45422) - http://www.bohemiancoding.com/sketch -->
    <title>Combined Shape</title>
    <desc>Created with Sketch.</desc>
    <defs></defs>
    <g id="Page-1" stroke="none" stroke-width="1" fill="none" fill-rule="evenodd">
        <g id="activity-/-matched-/-applicant-profile---active" transform="translate(-1080.000000, -451.000000)" fill-rule="nonzero" fill="#FFFFFF">
            <g id="Group-2" transform="translate(150.000000, 186.000000)">
                <path d="M938.611746,280.748537 L941.388254,280.748537 C945.037369,280.748537 948,277.670822 948,273.874268 C948,270.07688 945.03982,267 941.388254,267 L938.611746,267 C934.962631,267 932,270.077715 932,273.874268 C932,276.789551 933.744654,279.280184 936.207409,280.279988 C936.348011,280.938627 936.374305,281.969314 935.623716,283 C937.37508,282.534499 938.164403,281.545133 938.520144,280.747891 C938.550628,280.748321 938.581163,280.748537 938.611746,280.748537 Z M935.921691,284.121076 L932.760397,284.961327 L934.686015,282.317127 C934.98654,281.904455 935.119855,281.482871 935.127174,281.057965 C932.532345,279.712866 930.84,276.953897 930.84,273.874268 C930.84,269.447769 934.31088,265.84 938.611746,265.84 L941.388254,265.84 C945.691048,265.84 949.16,269.446385 949.16,273.874268 C949.16,278.300768 945.68912,281.908537 941.388254,281.908537 L939.203413,281.908537 C938.531716,282.929286 937.450133,283.714826 935.921691,284.121076 Z" id="Combined-Shape"></path>
            </g>
        </g>
    </g>
</svg>