<?xml version="1.0" encoding="UTF-8"?>
<svg width="23px" height="26px" viewBox="0 0 23 26" version="1.1" xmlns="http://www.w3.org/2000/svg" xmlns:xlink="http://www.w3.org/1999/xlink">
    <!-- Generator: sketchtool 47.1 (45422) - http://www.bohemiancoding.com/sketch -->
    <title>46EFDB04-1FD1-463A-A0BD-0395E3E4EB4E</title>
    <desc>Created with sketchtool.</desc>
    <defs></defs>
    <g id="Page-1" stroke="none" stroke-width="1" fill="none" fill-rule="evenodd" opacity="0.5">
        <g id="forms-/-sign-up" transform="translate(-995.000000, -695.000000)" fill-rule="nonzero" fill="#000000">
            <g id="button" transform="translate(569.000000, 565.000000)">
                <g id="android-logo" transform="translate(426.000000, 130.000000)">
                    <path d="M1.62068379,8.4636166 L1.55419368,8.4636166 C0.70184585,8.4636166 0.00688537549,9.16078656 0.00688537549,10.0109249 L0.00688537549,16.7476482 C0.00688537549,17.6011265 0.70184585,18.2960356 1.55419368,18.2960356 L1.62181423,18.2960356 C2.47416206,18.2960356 3.16912253,17.5988656 3.16912253,16.7476482 L3.16912253,10.0108735 C3.16799209,9.16078656 2.47195257,8.4636166 1.62068379,8.4636166 Z" id="Shape"></path>
                    <path d="M3.90950593,19.3479051 C3.90950593,20.1304229 4.54902372,20.7677312 5.3315415,20.7677312 L6.85115415,20.7677312 L6.85115415,24.4065494 C6.85115415,25.2611067 7.54832411,25.9560672 8.39846245,25.9560672 L8.46495257,25.9560672 C9.31843083,25.9560672 10.0144704,25.2600277 10.0144704,24.4065494 L10.0144704,20.7677312 L12.1381462,20.7677312 L12.1381462,24.4065494 C12.1381462,25.2611067 12.8375257,25.9560672 13.687664,25.9560672 L13.7530751,25.9560672 C14.606502,25.9560672 15.3014625,25.2600277 15.3014625,24.4065494 L15.3014625,20.7677312 L16.8221542,20.7677312 C17.6035415,20.7677312 18.2431107,20.1304229 18.2431107,19.3479051 L18.2431107,8.71077075 L3.90950593,8.71077075 L3.90950593,19.3479051 Z" id="Shape"></path>
                    <path d="M14.6463755,2.25999605 L15.8534229,0.396833992 C15.9310119,0.279320158 15.8966364,0.118644269 15.7780435,0.0421343874 C15.660581,-0.0354545455 15.4998538,-0.00328853755 15.4233439,0.117513834 L14.172004,2.04500791 C13.2332292,1.66040316 12.1846996,1.44428458 11.0773874,1.44428458 C9.96899605,1.44428458 8.92267589,1.66040316 7.9816917,2.04500791 L6.73256126,0.117513834 C6.65610277,-0.00328853755 6.49424506,-0.0354545455 6.37565217,0.0421343874 C6.25705929,0.118592885 6.22268379,0.279320158 6.30027273,0.396833992 L7.50839921,2.25999605 C5.33041107,3.3273834 3.86182213,5.33909486 3.86182213,7.64672332 C3.86182213,7.78859289 3.87071146,7.92825296 3.88288933,8.06678261 L18.2729644,8.06678261 C18.2851423,7.92825296 18.2929012,7.78859289 18.2929012,7.64672332 C18.2929526,5.33909486 16.8232332,3.3273834 14.6463755,2.25999605 Z M7.74116601,5.59621739 C7.35877075,5.59621739 7.04841502,5.28807115 7.04841502,4.90459684 C7.04841502,4.52112253 7.35877075,4.21405534 7.74116601,4.21405534 C8.12577075,4.21405534 8.433917,4.52107115 8.433917,4.90459684 C8.433917,5.28812253 8.12356126,5.59621739 7.74116601,5.59621739 Z M14.4125296,5.59621739 C14.0301344,5.59621739 13.7197787,5.28807115 13.7197787,4.90459684 C13.7197787,4.52112253 14.0301344,4.21405534 14.4125296,4.21405534 C14.796004,4.21405534 15.1041502,4.52107115 15.1041502,4.90459684 C15.1041502,5.28807115 14.796004,5.59621739 14.4125296,5.59621739 Z" id="Shape"></path>
                    <path d="M20.5983715,8.4636166 L20.5340909,8.4636166 C19.6817431,8.4636166 18.9845731,9.16078656 18.9845731,10.0109249 L18.9845731,16.7476482 C18.9845731,17.6011265 19.6828735,18.2960356 20.5340909,18.2960356 L20.599502,18.2960356 C21.4529289,18.2960356 22.1468103,17.5988656 22.1468103,16.7476482 L22.1468103,10.0108735 C22.1468103,9.16078656 21.4507194,8.4636166 20.5983715,8.4636166 Z" id="Shape"></path>
                </g>
            </g>
        </g>
    </g>
</svg>