<?xml version="1.0" encoding="UTF-8"?>
<svg width="22px" height="26px" viewBox="0 0 22 26" version="1.1" xmlns="http://www.w3.org/2000/svg" xmlns:xlink="http://www.w3.org/1999/xlink">
    <!-- Generator: sketchtool 47.1 (45422) - http://www.bohemiancoding.com/sketch -->
    <title>1E0FF3C0-D554-45B2-BA98-9B64A95574C7</title>
    <desc>Created with sketchtool.</desc>
    <defs></defs>
    <g id="Page-1" stroke="none" stroke-width="1" fill="none" fill-rule="evenodd" opacity="0.5">
        <g id="forms-/-sign-up" transform="translate(-958.000000, -693.000000)" fill-rule="nonzero" fill="#000000">
            <g id="button" transform="translate(569.000000, 565.000000)">
                <g id="apple" transform="translate(389.000000, 128.000000)">
                    <path d="M1.1711082,9.55768525 C-1.02695738,13.3720131 0.370393443,19.1604656 2.80109508,22.6702098 C4.0144,24.4249115 5.24279344,26 6.9252918,26 C6.95700328,26 6.9888,25.9994033 7.02136393,25.9981246 C7.81184918,25.9665836 8.38308197,25.7232066 8.93539016,25.4880131 C9.55546885,25.2237508 10.1967738,24.9505377 11.2026754,24.9505377 C12.1596459,24.9505377 12.7703475,25.2148852 13.3609311,25.4704525 C13.9429902,25.7222689 14.5425246,25.9827803 15.4284,25.9661574 C17.3235869,25.9308656 18.4871934,24.2312328 19.5138098,22.7318426 C20.5850951,21.1663016 21.1224852,19.646282 21.3038033,19.0654164 L21.3111344,19.0423148 C21.345659,18.939082 21.2968984,18.8263869 21.1979279,18.7809508 C21.1952,18.7796721 21.185141,18.7754951 21.1823279,18.7743016 C20.8485902,18.637823 17.9210754,17.3391016 17.8903016,13.7993508 C17.8617443,10.9234951 20.0864918,9.40057705 20.5326689,9.12455082 L20.5534689,9.11159344 C20.6018033,9.08047869 20.6354754,9.03112131 20.6468984,8.97468852 C20.6583213,8.91834098 20.6463869,8.8596918 20.6139934,8.81229508 C19.0783738,6.56504262 16.7247344,6.22636066 15.777141,6.18561311 C15.6396393,6.17188852 15.4977049,6.16498361 15.3551738,6.16498361 C14.2422033,6.16498361 13.1760328,6.58533115 12.319482,6.92307541 C11.7282164,7.15622295 11.2175082,7.35757377 10.8652721,7.35757377 C10.4694754,7.35757377 9.95586885,7.15375082 9.3611082,6.91779016 C8.56576393,6.60212459 7.66428852,6.24443279 6.70996066,6.24443279 C6.6872,6.24443279 6.66478033,6.24468852 6.64270164,6.24511475 C4.42375082,6.27776393 2.32704262,7.5472459 1.1711082,9.55768525 Z" id="XMLID_229_"></path>
                    <path d="M15.7791016,0.000170491804 C14.4353705,0.0548983607 12.8234557,0.882039344 11.8600066,2.01052459 C11.0412197,2.95905574 10.2413574,4.5405377 10.4520852,6.13463607 C10.4652984,6.23437377 10.5464525,6.31135082 10.6467869,6.3191082 C10.7374885,6.32618361 10.8300656,6.32976393 10.9223016,6.32984918 C12.2361967,6.32984918 13.6535803,5.60295738 14.6215475,4.43253115 C15.6403213,3.19663607 16.1554623,1.61055082 15.9996328,0.189842623 C15.9873574,0.0785114754 15.8894098,-0.00417704918 15.7791016,0.000170491804 Z" id="XMLID_230_"></path>
                </g>
            </g>
        </g>
    </g>
</svg>