<?xml version="1.0" encoding="UTF-8"?>
<svg preserveAspectRatio="none" width="100%" height="100%" viewBox="0 0 1440 2554" version="1.1" xmlns="http://www.w3.org/2000/svg" xmlns:xlink="http://www.w3.org/1999/xlink">
    <!-- Generator: Sketch 47.1 (45422) - http://www.bohemiancoding.com/sketch -->
    <title>a-hero-gradient copy</title>
    <desc>Created with Sketch.</desc>
    <defs>
        <linearGradient x1="81.1886936%" y1="95.7452592%" x2="6.82291667%" y2="8.98566755%" id="linearGradient-1">
            <stop stop-color="#B83EBB" offset="0%"></stop>
            <stop stop-color="#337AB7" offset="100%"></stop>
        </linearGradient>
        <linearGradient x1="64.4839657%" y1="9.96870018%" x2="65.5121863%" y2="85.6001583%" id="linearGradient-2">
            <stop stop-color="#FFFFFF" stop-opacity="0.04" offset="1.4847736%"></stop>
            <stop stop-color="#FFFFFF" stop-opacity="0.4" offset="100%"></stop>
        </linearGradient>
        <linearGradient x1="63.9813031%" y1="-31.6726505%" x2="63.9813006%" y2="122.700682%" id="linearGradient-3">
            <stop stop-color="#FFFFFF" stop-opacity="0.04" offset="0%"></stop>
            <stop stop-color="#FFFFFF" stop-opacity="0.4" offset="100%"></stop>
        </linearGradient>
    </defs>
    <g id="development" stroke="none" stroke-width="1" fill="none" fill-rule="evenodd">
        <g id="a-hero-gradient-copy">
            <polygon id="grey-bg" fill="#F9F9F9" points="0 640 1440 640 1440 2443 0 2401.41688"></polygon>
            <polygon id="grey-stripe" fill="#F6F5F5" transform="translate(720.000000, 2473.500000) scale(-1, 1) translate(-720.000000, -2473.500000) " points="0 2436.49307 1440 2396 1440 2450.88195 0 2551"></polygon>
            <polygon id="grad-bg" fill="url(#linearGradient-1)" points="0 0 1440 0 1440 647.090668 0 836"></polygon>
            <polygon id="grad-str-1" fill="url(#linearGradient-2)" points="-0.985129447 719.631946 1439 614 1438.99583 652.177408 -1 835"></polygon>
            <polygon id="grad-str-2" fill="url(#linearGradient-3)" transform="translate(719.000000, 733.500000) rotate(-5.800000) translate(-719.000000, -733.500000) " points="-1.63234406 702.747733 1446 702 1443.69837 724.501497 -8 765"></polygon>
        </g>
    </g>
</svg>