<?xml version="1.0" encoding="UTF-8"?>
<svg width="29px" height="33px" viewBox="0 0 29 33" version="1.1" xmlns="http://www.w3.org/2000/svg" xmlns:xlink="http://www.w3.org/1999/xlink">
    <!-- Generator: Sketch 43.1 (39012) - http://www.bohemiancoding.com/sketch -->
    <title>android-logo</title>
    <desc>Created with Sketch.</desc>
    <defs></defs>
    <g id="final" stroke="none" stroke-width="1" fill="none" fill-rule="evenodd">
        <g id="employer-design-04" transform="translate(-333.000000, -486.000000)" fill-rule="nonzero" fill="#FFFFFF">
            <g id="button" transform="translate(135.000000, 473.000000)">
                <g id="android-logo" transform="translate(198.000000, 13.000000)">
                    <path d="M2.05702174,10.7422826 L1.97263043,10.7422826 C0.890804348,10.7422826 0.00873913043,11.6271522 0.00873913043,12.7061739 L0.00873913043,21.2566304 C0.00873913043,22.3398913 0.890804348,23.2218913 1.97263043,23.2218913 L2.05845652,23.2218913 C3.14028261,23.2218913 4.02234783,22.3370217 4.02234783,21.2566304 L4.02234783,12.7061087 C4.02091304,11.6271522 3.13747826,10.7422826 2.05702174,10.7422826 Z" id="Shape"></path>
                    <path d="M4.96206522,24.5569565 C4.96206522,25.5501522 5.77376087,26.3590435 6.76695652,26.3590435 L8.69569565,26.3590435 L8.69569565,30.9775435 C8.69569565,32.0621739 9.58056522,32.9442391 10.659587,32.9442391 L10.7439783,32.9442391 C11.8272391,32.9442391 12.7106739,32.0608043 12.7106739,30.9775435 L12.7106739,26.3590435 L15.4061087,26.3590435 L15.4061087,30.9775435 C15.4061087,32.0621739 16.2937826,32.9442391 17.3728043,32.9442391 L17.4558261,32.9442391 C18.5390217,32.9442391 19.421087,32.0608043 19.421087,30.9775435 L19.421087,26.3590435 L21.3511957,26.3590435 C22.3429565,26.3590435 23.1547174,25.5501522 23.1547174,24.5569565 L23.1547174,11.0559783 L4.96206522,11.0559783 L4.96206522,24.5569565 Z" id="Shape"></path>
                    <path d="M18.5896304,2.86845652 L20.1216522,0.503673913 C20.2201304,0.354521739 20.1765,0.150586957 20.0259783,0.0534782609 C19.8768913,-0.045 19.6728913,-0.00417391304 19.5757826,0.149152174 L17.9875435,2.59558696 C16.7960217,2.10743478 15.4651957,1.83313043 14.0597609,1.83313043 C12.6529565,1.83313043 11.3249348,2.10743478 10.1306087,2.59558696 L8.54517391,0.149152174 C8.44813043,-0.00417391304 8.24269565,-0.045 8.09217391,0.0534782609 C7.94165217,0.150521739 7.89802174,0.354521739 7.9965,0.503673913 L9.5298913,2.86845652 C6.76552174,4.22321739 4.90154348,6.77654348 4.90154348,9.70545652 C4.90154348,9.88552174 4.91282609,10.0627826 4.92828261,10.2386087 L23.1926087,10.2386087 C23.2080652,10.0627826 23.217913,9.88552174 23.217913,9.70545652 C23.2179783,6.77654348 21.3525652,4.22321739 18.5896304,2.86845652 Z M9.82532609,7.1028913 C9.33997826,7.1028913 8.94606522,6.71178261 8.94606522,6.22506522 C8.94606522,5.73834783 9.33997826,5.3486087 9.82532609,5.3486087 C10.3134783,5.3486087 10.704587,5.73828261 10.704587,6.22506522 C10.704587,6.71184783 10.3106739,7.1028913 9.82532609,7.1028913 Z M18.2928261,7.1028913 C17.8074783,7.1028913 17.4135652,6.71178261 17.4135652,6.22506522 C17.4135652,5.73834783 17.8074783,5.3486087 18.2928261,5.3486087 C18.7795435,5.3486087 19.1706522,5.73828261 19.1706522,6.22506522 C19.1706522,6.71178261 18.7795435,7.1028913 18.2928261,7.1028913 Z" id="Shape"></path>
                    <path d="M26.144087,10.7422826 L26.0625,10.7422826 C24.9806739,10.7422826 24.0958043,11.6271522 24.0958043,12.7061739 L24.0958043,21.2566304 C24.0958043,22.3398913 24.9821087,23.2218913 26.0625,23.2218913 L26.1455217,23.2218913 C27.2287174,23.2218913 28.109413,22.3370217 28.109413,21.2566304 L28.109413,12.7061087 C28.109413,11.6271522 27.225913,10.7422826 26.144087,10.7422826 Z" id="Shape"></path>
                </g>
            </g>
        </g>
    </g>
</svg>