<?xml version="1.0" encoding="UTF-8"?>
<svg width="28px" height="33px" viewBox="0 0 28 33" version="1.1" xmlns="http://www.w3.org/2000/svg" xmlns:xlink="http://www.w3.org/1999/xlink">
    <!-- Generator: Sketch 43.1 (39012) - http://www.bohemiancoding.com/sketch -->
    <title>apple</title>
    <desc>Created with Sketch.</desc>
    <defs></defs>
    <g id="final" stroke="none" stroke-width="1" fill="none" fill-rule="evenodd">
        <g id="employer-design-04" transform="translate(-285.000000, -484.000000)" fill-rule="nonzero" fill="#FFFFFF">
            <g id="button" transform="translate(135.000000, 473.000000)">
                <g id="apple" transform="translate(150.000000, 11.000000)">
                    <path d="M1.48640656,12.1309082 C-1.3034459,16.9721705 0.470114754,24.3190525 3.55523607,28.7737279 C5.0952,31.0008492 6.65431475,33 8.78979344,33 C8.83004262,33 8.8704,32.9992426 8.91173115,32.9976197 C9.91503934,32.9575869 10.6400656,32.6486852 11.3410721,32.3501705 C12.1280951,32.0147607 12.942059,31.6679902 14.2187803,31.6679902 C15.4333967,31.6679902 16.208518,32.0035082 16.9581049,32.327882 C17.6968721,32.6474951 18.4578197,32.9781443 19.5822,32.9570459 C21.9876295,32.9122525 23.4645148,30.7550262 24.7675279,28.8519541 C26.1272361,26.8649213 26.8093082,24.9356656 27.0394426,24.1984131 L27.0487475,24.1690918 C27.0925672,24.0380656 27.0306787,23.8950295 26.9050623,23.8373607 C26.9016,23.8357377 26.8888328,23.8304361 26.8852623,23.8289213 C26.4616721,23.6556984 22.7459803,22.0073213 22.7069213,17.5145607 C22.6706754,13.8644361 25.4943934,11.9315016 26.0606951,11.5811607 L26.0870951,11.5647148 C26.1484426,11.525223 26.1911803,11.462577 26.2056787,11.3909508 C26.220177,11.3194328 26.2050295,11.2449934 26.1639148,11.1848361 C24.214859,8.3325541 21.2275475,7.90268852 20.0248328,7.85097049 C19.8503115,7.83355082 19.6701639,7.82478689 19.489259,7.82478689 C18.0766426,7.82478689 16.7234262,8.35830492 15.6362656,8.78698033 C14.8858131,9.08289836 14.2376066,9.33845902 13.7905377,9.33845902 C13.2881803,9.33845902 12.6362951,9.07976066 11.8814066,8.78027213 C10.8719311,8.37961967 9.72775082,7.92562623 8.51648852,7.92562623 C8.4876,7.92562623 8.45914426,7.92595082 8.43112131,7.9264918 C5.61476066,7.96793115 2.9535541,9.57919672 1.48640656,12.1309082 Z" id="XMLID_229_"></path>
                    <path d="M20.0273213,0.000216393443 C18.3218164,0.0696786885 16.2759246,1.11951148 15.0530852,2.55181967 C14.0138557,3.75572459 12.9986459,5.76299016 13.2661082,7.78626885 C13.2828787,7.91285902 13.385882,8.01056066 13.5132295,8.02040656 C13.6283508,8.02938689 13.7458525,8.03393115 13.8629213,8.03403934 C15.5305574,8.03403934 17.3295443,7.1114459 18.558118,5.62590492 C19.851177,4.05726885 20.5050098,2.04416066 20.3072262,0.240954098 C20.2916459,0.0996491803 20.1673279,-0.00530163934 20.0273213,0.000216393443 Z" id="XMLID_230_"></path>
                </g>
            </g>
        </g>
    </g>
</svg>