<svg width="30px" height="30px" version="1.1" id="Layer_1"
											xmlns="http://www.w3.org/2000/svg"
											xmlns:xlink="http://www.w3.org/1999/xlink" x="0px" y="0px"
											viewBox="-3.5 -3.5 55 55" enable-background="new -3.5 -3.5 55 55"
											xml:space="preserve">
											<g>
												<g id="svg_1">
													<path fill="#FFFFFF" d="M36.8,24.9c0.1,7.1,6.2,9.4,6.3,9.5c-0.1,0.2-1,3.4-3.2,6.7c-1.9,2.8-4,5.7-7.2,5.7c-3.1,0.1-4.1-1.9-7.7-1.9
									                            c-3.6,0-4.7,1.8-7.7,1.9c-3.1,0.1-5.4-3.1-7.4-5.9c-4-5.8-7.1-16.4-3-23.6c2-3.6,5.7-5.8,9.7-5.9c3-0.1,5.9,2,7.7,2
									                            c1.8,0,5.3-2.5,9-2.1c1.5,0.1,5.8,0.6,8.6,4.6C41.6,16.1,36.7,18.9,36.8,24.9 M30.9,7.5c1.6-2,2.7-4.7,2.4-7.5
									                            c-2.4,0.1-5.2,1.6-6.9,3.5c-1.5,1.8-2.8,4.6-2.5,7.2C26.6,11,29.2,9.4,30.9,7.5">
													</path>
												</g>
											</g>
										</svg>