<?xml version="1.0" encoding="UTF-8"?>
<svg preserveAspectRatio="none" width="100%" height="100%" viewBox="0 0 864 1556" version="1.1" xmlns="http://www.w3.org/2000/svg" xmlns:xlink="http://www.w3.org/1999/xlink">
    <!-- Generator: Sketch 47.1 (45422) - http://www.bohemiancoding.com/sketch -->
    <title>e-hero-gradient-merged-tablet copy</title>
    <desc>Created with Sketch.</desc>
    <defs>
        <linearGradient x1="78.9192708%" y1="88.2462669%" x2="3.4624566%" y2="-20.0054368%" id="linearGradient-1">
            <stop stop-color="#3EBB64" offset="0%"></stop>
            <stop stop-color="#337AB7" offset="100%"></stop>
        </linearGradient>
        <linearGradient x1="64.4839657%" y1="9.96870018%" x2="65.5121863%" y2="85.6001583%" id="linearGradient-2">
            <stop stop-color="#FFFFFF" stop-opacity="0.04" offset="1.4847736%"></stop>
            <stop stop-color="#FFFFFF" stop-opacity="0.4" offset="100%"></stop>
        </linearGradient>
        <linearGradient x1="63.9813031%" y1="-31.6726505%" x2="63.9813006%" y2="122.700682%" id="linearGradient-3">
            <stop stop-color="#FFFFFF" stop-opacity="0.04" offset="0%"></stop>
            <stop stop-color="#FFFFFF" stop-opacity="0.4" offset="100%"></stop>
        </linearGradient>
    </defs>
    <g id="development" stroke="none" stroke-width="1" fill="none" fill-rule="evenodd">
        <g id="e-hero-gradient-merged-tablet-copy">
            <polygon id="gr-bg" fill="#F9F9F9" points="0 385.8 864 385.8 864 1551.6 0 1488.0681"></polygon>
            <polygon id="gr-str" fill="#F6F5F5" transform="translate(432.000000, 1504.500000) scale(-1, 1) translate(-432.000000, -1504.500000) " points="0 1481.68269 864 1457.4 864 1488.50474 0 1551.6"></polygon>
            <polygon id="grad-bg" fill="url(#linearGradient-1)" points="0 0 864 0 864 389.159147 0 499.8"></polygon>
            <polygon id="grad-str-1" fill="url(#linearGradient-2)" points="0.00892235781 430.39877 864.002499 366.944558 864 389.878125 3.46389584e-14 499.701563"></polygon>
            <polygon id="grad-str-2" fill="url(#linearGradient-3)" transform="translate(432.000000, 438.900000) rotate(-5.800000) translate(-432.000000, -438.900000) " points="-0.379406275 420.44864 868.2 420 866.819021 433.500898 -4.19999984 457.8"></polygon>
        </g>
    </g>
</svg>