<?xml version="1.0" encoding="UTF-8"?>
<svg width="63px" height="62px" viewBox="0 0 63 62" version="1.1" xmlns="http://www.w3.org/2000/svg" xmlns:xlink="http://www.w3.org/1999/xlink">
    <!-- Generator: Sketch 43.1 (39012) - http://www.bohemiancoding.com/sketch -->
    <title>icon</title>
    <desc>Created with Sketch.</desc>
    <defs>
        <path d="M7.70002383,27.038552 L7.70002383,9.72494385 C7.70002383,8.87269908 8.38624773,8.18181818 9.23678763,8.18181818 L9.554282,8.18181818 C10.4030132,8.18181818 11.0910458,8.86390163 11.0910458,9.7209444 L11.0910458,19.085649 L19.380422,20.3719938 C21.0563987,20.6320718 22.4150463,22.2143825 22.4150463,23.9221742 L22.4150463,32.6249227 C22.4150463,34.3255553 21.0341544,35.7041903 19.3406909,35.7041903 L12.9219056,35.7041903 C11.223986,35.7041903 8.93146179,34.6864776 7.78245881,33.4100122 L0.109965007,24.8863858 L0.109965007,24.8863858 C1.14879595,23.5630279 3.0647708,23.3457382 4.39555594,24.4059482 L7.70002383,27.038552 Z" id="path-1"></path>
    </defs>
    <g id="final" stroke="none" stroke-width="1" fill="none" fill-rule="evenodd" opacity="0.800000012">
        <g id="employer-design-04" transform="translate(-134.000000, -2903.000000)">
            <g id="key-features" transform="translate(133.000000, 2728.000000)">
                <g id="simple-interface" transform="translate(0.000000, 175.000000)">
                    <g id="icon" transform="translate(1.000000, 0.000000)">
                        <g id="Group-10" fill="#3EBB64" opacity="0.25">
                            <ellipse id="Oval-2" cx="31.5" cy="31" rx="31.5" ry="31"></ellipse>
                        </g>
                        <g id="Group-15" transform="translate(19.000000, 13.000000)">
                            <ellipse id="Oval-3" fill="#3EBB64" cx="9.44642857" cy="8.18181818" rx="7.48546919" ry="7.68181818"></ellipse>
                            <g id="Path-4">
                                <use fill="#3EBB64" fill-rule="evenodd" xlink:href="#path-1"></use>
                                <path stroke="#CFEED8" stroke-width="2" d="M6.70002383,24.9633184 L5.01866641,23.6238144 C3.25615535,22.2196569 0.706883055,22.5064711 -0.676627649,24.2689136 L-1.195884,24.9303898 L-0.633275806,25.5554098 L7.03921799,34.0790362 C8.37486791,35.5628538 10.9360574,36.7041903 12.9219056,36.7041903 L19.3406909,36.7041903 C21.5881116,36.7041903 23.4150463,34.8761668 23.4150463,32.6249227 L23.4150463,23.9221742 C23.4150463,21.7239775 21.6996273,19.7199192 19.5337666,19.383821 L12.0910458,18.2288601 L12.0910458,9.7209444 C12.0910458,8.31367534 10.957361,7.18181818 9.554282,7.18181818 L9.23678763,7.18181818 C7.83347776,7.18181818 6.70002383,8.3208904 6.70002383,9.72494385 L6.70002383,24.9633184 Z"></path>
                            </g>
                        </g>
                    </g>
                </g>
            </g>
        </g>
    </g>
</svg>