<?xml version="1.0" encoding="UTF-8"?>
<svg width="35px" height="35px" viewBox="0 0 35 35" version="1.1" xmlns="http://www.w3.org/2000/svg" xmlns:xlink="http://www.w3.org/1999/xlink">
    <!-- Generator: Sketch 47.1 (45422) - http://www.bohemiancoding.com/sketch -->
    <title>facebook-app-logo</title>
    <desc>Created with Sketch.</desc>
    <defs></defs>
    <g id="final" stroke="none" stroke-width="1" fill="none" fill-rule="evenodd">
        <g id="employer-design-04-and-social" transform="translate(-600.000000, -5803.000000)" fill-rule="nonzero" fill="#FFFFFF">
            <g id="facebook-app-logo" transform="translate(600.000000, 5803.000000)">
                <path d="M32.9218033,0.000573770492 L1.92327869,0.000573770492 C0.861803279,0.000573770492 0,0.860655738 0,1.92385246 L0,32.922377 C0,33.9855738 0.861803279,34.8468033 1.92327869,34.8468033 L18.6119672,34.8468033 L18.6119672,21.3522951 L14.0711475,21.3522951 L14.0711475,16.092541 L18.6119672,16.092541 L18.6119672,12.2138525 C18.6119672,7.71377049 21.3597541,5.26204918 25.375,5.26204918 C27.3,5.26204918 28.9507377,5.40606557 29.4321311,5.46860656 L29.4321311,10.172377 L26.6470492,10.1735246 C24.4638525,10.1735246 24.0427049,11.2114754 24.0427049,12.7336885 L24.0427049,16.0908197 L29.2513934,16.0908197 L28.5703279,21.35 L24.0421311,21.35 L24.0421311,34.845082 L32.9212295,34.845082 C33.9838525,34.845082 34.8462295,33.9827049 34.8462295,32.922377 L34.8462295,1.92270492 C34.8456557,0.860655738 33.9844262,0.000573770492 32.9218033,0.000573770492 Z" id="Shape"></path>
            </g>
        </g>
    </g>
</svg>