<?xml version="1.0" encoding="UTF-8"?>
<svg width="35px" height="35px" viewBox="0 0 35 35" version="1.1" xmlns="http://www.w3.org/2000/svg" xmlns:xlink="http://www.w3.org/1999/xlink">
    <!-- Generator: Sketch 47.1 (45422) - http://www.bohemiancoding.com/sketch -->
    <title>twitter-logo-on-black-background</title>
    <desc>Created with Sketch.</desc>
    <defs></defs>
    <g id="final" stroke="none" stroke-width="1" fill="none" fill-rule="evenodd">
        <g id="employer-design-04-and-social" transform="translate(-668.000000, -5803.000000)" fill-rule="nonzero" fill="#FFFFFF">
            <g id="twitter-logo-on-black-background" transform="translate(668.000000, 5803.000000)">
                <path d="M31.5,0 L3.5,0 C1.575,0 0,1.575 0,3.5 L0,31.5 C0,33.425 1.575,35 3.5,35 L31.5,35 C33.425,35 35,33.425 35,31.5 L35,3.5 C35,1.575 33.425,0 31.5,0 Z M27.475,12.775 C27.3,20.825 22.225,26.425 14.525,26.775 C11.375,26.95 9.1,25.9 7,24.675 C9.275,25.0250686 12.25,24.1500686 13.825,22.75 C11.55,22.575 10.15,21.35 9.45,19.425 C10.15,19.6 10.85,19.425 11.375,19.425 C9.275,18.725 7.875,17.5 7.7,14.7 C8.225,15.05 8.925,15.225 9.625,15.225 C8.05,14.35 7,11.025 8.225,8.925 C10.5,11.375 13.3,13.475 17.85,13.825 C16.625,8.925 23.2750686,6.3 25.9000686,9.625 C27.1250686,9.45 28.0000686,8.925 28.8750686,8.575 C28.5250686,9.8 27.8250686,10.5 26.9500686,11.2 C27.8250686,11.025 28.7000686,10.85 29.4000686,10.5 C29.225,11.375 28.35,12.075 27.475,12.775 Z" id="Shape"></path>
            </g>
        </g>
    </g>
</svg>