<?xml version="1.0" encoding="UTF-8"?>
<svg width="20px" height="20px" viewBox="0 0 20 20" version="1.1" xmlns="http://www.w3.org/2000/svg" xmlns:xlink="http://www.w3.org/1999/xlink">
    <!-- Generator: Sketch 43.1 (39012) - http://www.bohemiancoding.com/sketch -->
    <title>facebook</title>
    <desc>Created with Sketch.</desc>
    <defs></defs>
    <g id="development" stroke="none" stroke-width="1" fill="none" fill-rule="evenodd">
        <g id="facebook" fill-rule="nonzero" fill="#FFFFFF">
            <g id="facebook-app-logo">
                <path d="M18.812459,0.000327868853 L1.09901639,0.000327868853 C0.492459016,0.000327868853 0,0.491803279 0,1.09934426 L0,18.8127869 C0,19.4203279 0.492459016,19.912459 1.09901639,19.912459 L10.6354098,19.912459 L10.6354098,12.2013115 L8.04065574,12.2013115 L8.04065574,9.1957377 L10.6354098,9.1957377 L10.6354098,6.97934426 C10.6354098,4.40786885 12.2055738,3.00688525 14.5,3.00688525 C15.6,3.00688525 16.5432787,3.08918033 16.8183607,3.12491803 L16.8183607,5.81278689 L15.2268852,5.81344262 C13.9793443,5.81344262 13.7386885,6.40655738 13.7386885,7.27639344 L13.7386885,9.1947541 L16.715082,9.1947541 L16.3259016,12.2 L13.7383607,12.2 L13.7383607,19.9114754 L18.8121311,19.9114754 C19.4193443,19.9114754 19.9121311,19.4186885 19.9121311,18.8127869 L19.9121311,1.09868852 C19.9118033,0.491803279 19.4196721,0.000327868853 18.812459,0.000327868853 Z" id="Shape"></path>
            </g>
        </g>
    </g>
</svg>