<?xml version="1.0" encoding="utf-8"?>
<!-- Generator: Adobe Illustrator 23.0.3, SVG Export Plug-In . SVG Version: 6.00 Build 0)  -->
<svg version="1.1" id="Layer_1" xmlns="http://www.w3.org/2000/svg" xmlns:xlink="http://www.w3.org/1999/xlink" x="0px" y="0px"
	 viewBox="0 0 153 43" style="enable-background:new 0 0 153 43;" xml:space="preserve">
<style type="text/css">
	.st0{fill:#3EBB64;}
	.st1{fill:#D4BF5A;}
</style>
<g id="Workruit_Name_1_">
	<g>
		<g>
			<path id="XMLID_11_" class="st0" d="M131,1.5h-2.3c-0.5,0-0.8,0.4-0.8,0.8v14.1c0,4.5,3.7,8.2,8.2,8.2h1.5c0.5,0,0.8-0.4,0.8-0.8
				v-2.3c0-0.5-0.4-0.8-0.8-0.8h-1.5c-2.4,0-4.3-1.9-4.3-4.3V2.3C131.8,1.9,131.4,1.5,131,1.5z"/>
			<path id="XMLID_10_" class="st0" d="M135.8,7.4h-5.7v3.9h5.7c0.5,0,0.8-0.4,0.8-0.8V8.2C136.6,7.8,136.2,7.4,135.8,7.4z"/>
			<path id="XMLID_9_" class="st0" d="M60.9,24.7h-2.3c-0.5,0-0.8-0.4-0.8-0.8V8.2c0-0.5,0.4-0.8,0.8-0.8h2.3c0.5,0,0.8,0.4,0.8,0.8
				v15.6C61.7,24.3,61.4,24.7,60.9,24.7z"/>
			<path id="XMLID_8_" class="st0" d="M74.6,24.6h-2.3c-0.5,0-0.8-0.4-0.8-0.8V2.3c0-0.5,0.4-0.8,0.8-0.8h2.3c0.5,0,0.8,0.4,0.8,0.8
				v21.5C75.4,24.3,75.1,24.6,74.6,24.6z"/>
			<path id="XMLID_7_" class="st0" d="M125.1,24.7h-2.3c-0.5,0-0.8-0.4-0.8-0.8V8.2c0-0.5,0.4-0.8,0.8-0.8h2.3
				c0.5,0,0.8,0.4,0.8,0.8v15.6C125.9,24.3,125.6,24.7,125.1,24.7z"/>
			<path id="XMLID_6_" class="st0" d="M125.1,5.4h-2.3c-0.5,0-0.8-0.4-0.8-0.8V2.3c0-0.5,0.4-0.8,0.8-0.8h2.3c0.5,0,0.8,0.4,0.8,0.8
				v2.3C125.9,5.1,125.6,5.4,125.1,5.4z"/>
			<path id="XMLID_3_" class="st0" d="M47.3,24.7c-4.8,0-8.6-3.9-8.6-8.6c0-4.8,3.9-8.6,8.6-8.6S56,11.3,56,16
				C56,20.8,52.1,24.7,47.3,24.7z M47.3,11.4c-2.6,0-4.7,2.1-4.7,4.7s2.1,4.7,4.7,4.7c2.6,0,4.7-2.1,4.7-4.7S49.9,11.4,47.3,11.4z"
				/>
			<path id="XMLID_2_" class="st0" d="M104.4,7.4h2.3c0.5,0,0.8,0.4,0.8,0.8v8c0,2.2,1.6,4.1,3.7,4.4c2.6,0.3,4.9-1.7,4.9-4.2V8.2
				c0-0.5,0.4-0.8,0.8-0.8h2.3c0.5,0,0.8,0.4,0.8,0.8v8c0,4.4-3.4,8.2-7.8,8.5c-4.7,0.2-8.6-3.5-8.6-8.2V8.2
				C103.6,7.8,104,7.4,104.4,7.4z"/>
			<path class="st0" d="M87.3,23.4l-7.9-11.3c-1.1,0.8-2.2,1.4-3.4,2l7.2,10.2c0.2,0.2,0.4,0.3,0.7,0.3h2.8
				C87.3,24.6,87.7,23.9,87.3,23.4z"/>
			<path class="st0" d="M81,7.7l-6.9,8.2c0.4,0.6,0.8,1.3,1.1,2c0.2,0.7-0.4,2.4-0.2,3.1L85.2,8.8c0.4-0.5,0.1-1.3-0.6-1.3h-3
				C81.3,7.4,81.1,7.5,81,7.7z"/>
			<g>
				<path class="st0" d="M32.9,8.2l0,9.2c0,1.6-1.2,3.1-2.8,3.2c-1.9,0.2-3.4-1.3-3.4-3.1V8.2c0-0.5-0.4-0.8-0.8-0.8h-2.3
					c-0.5,0-0.8,0.4-0.8,0.8v9.4c0,3.9,3.2,7.1,7.1,7.1l0,0c3.9,0,7.1-3.2,7.1-7.1V8.2c0-0.5-0.4-0.8-0.8-0.8h-2.3
					C33.3,7.4,32.9,7.8,32.9,8.2z"/>
				<path class="st0" d="M22.8,8.2v9.2c0,1.6-1.2,3.1-2.8,3.2c-1.9,0.2-3.4-1.3-3.4-3.1V8.2c0-0.5-0.4-0.8-0.8-0.8h-2.3
					c-0.5,0-0.8,0.4-0.8,0.8v9.4c0,3.9,3.2,7.1,7.1,7.1l0,0c3.9,0,7.1-3.2,7.1-7.1V8.2c0-0.5-0.4-0.8-0.8-0.8h-2.3
					C23.1,7.4,22.8,7.8,22.8,8.2z"/>
			</g>
			<path class="st0" d="M68.1,11.1L69.2,9c0.2-0.4,0-1-0.4-1.2c-1.5-0.5-3.1-0.6-4.7-0.3c-3.7,0.9-6.3,4.4-6.3,8.2v8
				c0,0.5,0.4,0.8,0.8,0.8h2.3c0.5,0,0.8-0.4,0.8-0.8v-8c0-2,1.3-3.9,3.3-4.4c0.7-0.2,1.4-0.1,2.1,0C67.5,11.6,67.9,11.5,68.1,11.1z
				"/>
			<path id="XMLID_1_" class="st0" d="M92.9,24.7h-2.3c-0.5,0-0.8-0.4-0.8-0.8V8.2c0-0.5,0.4-0.8,0.8-0.8h2.3c0.5,0,0.8,0.4,0.8,0.8
				v15.6C93.7,24.3,93.4,24.7,92.9,24.7z"/>
			<path class="st0" d="M100.1,11.1l1.1-2.1c0.2-0.4,0-1-0.4-1.2c-1.5-0.5-3.1-0.6-4.7-0.3c-3.7,0.9-6.3,4.4-6.3,8.2v8
				c0,0.5,0.4,0.8,0.8,0.8h2.3c0.5,0,0.8-0.4,0.8-0.8v-8c0-2,1.3-3.9,3.3-4.4c0.7-0.2,1.4-0.1,2.1,0C99.5,11.6,99.9,11.5,100.1,11.1
				z"/>
		</g>
	</g>
</g>
<g>
	<path class="st1" d="M13.6,40.2V32c0-0.6,0.5-1.1,1.1-1.1c0.6,0,1.1,0.5,1.1,1.1v8.2c0,0.6-0.5,1.1-1.1,1.1
		C14.1,41.3,13.6,40.8,13.6,40.2z"/>
	<path class="st1" d="M24.4,40.7l-4.5-6.4v5.8c0,0.6-0.5,1.1-1.1,1.1c-0.6,0-1.1-0.5-1.1-1.1v-7.9c0-0.8,0.6-1.4,1.4-1.4
		c0.5,0,0.9,0.2,1.2,0.6l4.4,6.1V32c0-0.6,0.5-1.1,1.1-1.1c0.6,0,1.1,0.5,1.1,1.1v8c0,0.7-0.6,1.3-1.3,1.3
		C25.1,41.3,24.7,41,24.4,40.7z"/>
	<path class="st1" d="M28.4,39.5c0-0.6,0.5-1,1-1c0.2,0,0.4,0.1,0.6,0.2c0.7,0.5,1.5,0.8,2.6,0.8c1.2,0,1.8-0.6,1.8-1.1
		c0-0.8-0.9-1-2.1-1.3c-1.7-0.4-3.8-0.8-3.8-3.1c0-1.7,1.5-3.1,4-3.1c1.2,0,2.2,0.3,3.2,0.8c0.3,0.2,0.5,0.5,0.5,0.9
		c0,0.5-0.5,1-1,1c-0.2,0-0.4-0.1-0.5-0.2c-0.8-0.4-1.6-0.7-2.3-0.7c-1.1,0-1.6,0.4-1.6,1c0,0.7,0.9,0.9,2,1.2
		c1.7,0.4,3.8,0.9,3.8,3.1c0,1.9-1.3,3.3-4.1,3.3c-1.5,0-2.7-0.4-3.6-1C28.6,40.1,28.4,39.8,28.4,39.5z"/>
	<path class="st1" d="M40.2,40.2v-7.3h-2.1c-0.5,0-1-0.4-1-0.9c0-0.5,0.4-1,1-1h6.4c0.5,0,1,0.4,1,1c0,0.5-0.4,0.9-1,0.9h-2.1v7.3
		c0,0.6-0.5,1.1-1.1,1.1C40.7,41.3,40.2,40.8,40.2,40.2z"/>
	<path class="st1" d="M54.4,40.2c0,0.6-0.5,1.1-1.1,1.1c-0.5,0-0.9-0.3-1-0.7l-0.4-1.2h-4.6l-0.4,1.2c-0.1,0.4-0.6,0.7-1,0.7
		c-0.6,0-1.1-0.5-1.1-1.1c0-0.1,0-0.3,0.1-0.4l3-7.7c0.3-0.7,1-1.2,1.8-1.2c0.8,0,1.5,0.5,1.8,1.2l3,7.7
		C54.4,39.9,54.4,40,54.4,40.2z M51.2,37.5l-1.6-4.6L48,37.5H51.2z"/>
	<path class="st1" d="M62.4,40.7l-4.5-6.4v5.8c0,0.6-0.5,1.1-1.1,1.1c-0.6,0-1.1-0.5-1.1-1.1v-7.9c0-0.8,0.6-1.4,1.4-1.4
		c0.5,0,0.9,0.2,1.2,0.6l4.4,6.1V32c0-0.6,0.5-1.1,1.1-1.1c0.6,0,1.1,0.5,1.1,1.1v8c0,0.7-0.6,1.3-1.3,1.3
		C63.1,41.3,62.7,41,62.4,40.7z"/>
	<path class="st1" d="M69.2,40.2v-7.3h-2.1c-0.5,0-1-0.4-1-0.9c0-0.5,0.4-1,1-1h6.4c0.5,0,1,0.4,1,1c0,0.5-0.4,0.9-1,0.9h-2.1v7.3
		c0,0.6-0.5,1.1-1.1,1.1C69.7,41.3,69.2,40.8,69.2,40.2z"/>
	<path class="st1" d="M87.6,39.6c0.1,0.2,0.2,0.4,0.2,0.7c0,0.5-0.5,1-1,1c-0.4,0-0.7-0.2-0.9-0.5l-2.3-3.3h-1.8v2.7
		c0,0.6-0.5,1.1-1.1,1.1c-0.6,0-1.1-0.5-1.1-1.1v-8c0-0.7,0.4-1.1,1.1-1.1h3.6c2.1,0,3.4,1.4,3.4,3.3c0,1.6-0.9,2.6-1.9,2.9
		L87.6,39.6z M81.8,35.7h2.3c0.9,0,1.5-0.5,1.5-1.4s-0.7-1.4-1.5-1.4h-2.3V35.7z"/>
	<path class="st1" d="M89.4,40v-7.9c0-0.7,0.4-1.1,1.1-1.1h5.2c0.5,0,0.9,0.4,0.9,0.9c0,0.5-0.4,0.9-0.9,0.9h-4.2v2.2h4.1
		c0.5,0,0.9,0.4,0.9,0.9s-0.4,0.9-0.9,0.9h-4.1v2.4h4.2c0.5,0,0.9,0.4,0.9,0.9c0,0.5-0.4,0.9-0.9,0.9h-5.2
		C89.8,41.2,89.4,40.7,89.4,40z"/>
	<path class="st1" d="M97.9,39.5c0-0.6,0.5-1,1-1c0.2,0,0.4,0.1,0.6,0.2c0.7,0.5,1.5,0.8,2.6,0.8c1.2,0,1.8-0.6,1.8-1.1
		c0-0.8-0.9-1-2.1-1.3c-1.7-0.4-3.8-0.8-3.8-3.1c0-1.7,1.5-3.1,4-3.1c1.2,0,2.2,0.3,3.2,0.8c0.3,0.2,0.5,0.5,0.5,0.9
		c0,0.5-0.5,1-1,1c-0.2,0-0.4-0.1-0.5-0.2c-0.8-0.4-1.6-0.7-2.3-0.7c-1.1,0-1.6,0.4-1.6,1c0,0.7,0.9,0.9,2,1.2
		c1.7,0.4,3.8,0.9,3.8,3.1c0,1.9-1.3,3.3-4.1,3.3c-1.5,0-2.7-0.4-3.6-1C98.1,40.1,97.9,39.8,97.9,39.5z"/>
	<path class="st1" d="M107.4,32c0-0.6,0.5-1.1,1.1-1.1s1.1,0.5,1.1,1.1v5c0,1.4,0.8,2.4,2.4,2.4c1.6,0,2.3-1,2.3-2.4v-5
		c0-0.6,0.5-1.1,1.1-1.1c0.6,0,1.1,0.5,1.1,1.1v5.1c0,2.5-1.4,4.2-4.5,4.2c-3.1,0-4.6-1.7-4.6-4.2V32z"/>
	<path class="st1" d="M127.4,40.2v-6.3l-2.8,7c-0.1,0.2-0.3,0.4-0.6,0.4c-0.3,0-0.5-0.2-0.6-0.4l-2.8-7v6.3c0,0.6-0.5,1.1-1.1,1.1
		c-0.6,0-1.1-0.5-1.1-1.1v-7.5c0-1,0.8-1.8,1.8-1.8c0.8,0,1.4,0.5,1.7,1.1l2.1,5.3l2.1-5.3c0.2-0.7,0.9-1.1,1.6-1.1
		c1,0,1.8,0.8,1.8,1.8v7.5c0,0.6-0.5,1.1-1.1,1.1C127.8,41.3,127.4,40.8,127.4,40.2z"/>
	<path class="st1" d="M131.5,40v-7.9c0-0.7,0.4-1.1,1.1-1.1h5.2c0.5,0,0.9,0.4,0.9,0.9c0,0.5-0.4,0.9-0.9,0.9h-4.2v2.2h4.1
		c0.5,0,0.9,0.4,0.9,0.9s-0.4,0.9-0.9,0.9h-4.1v2.4h4.2c0.5,0,0.9,0.4,0.9,0.9c0,0.5-0.4,0.9-0.9,0.9h-5.2
		C132,41.2,131.5,40.7,131.5,40z"/>
</g>
</svg>
