<?xml version="1.0" encoding="utf-8"?>
<!-- Generator: Adobe Illustrator 19.2.1, SVG Export Plug-In . SVG Version: 6.00 Build 0)  -->
<svg version="1.1" xmlns="http://www.w3.org/2000/svg" xmlns:xlink="http://www.w3.org/1999/xlink" x="0px" y="0px"
	 viewBox="0 0 16 16" style="enable-background:new 0 0 16 16;" xml:space="preserve">
<style type="text/css">
	.st0{fill:#337ab7;}
	.st1{display:none;}
	.st2{display:inline;}
</style>
<g id="Experience">
	<g>
		<g>
			<g>
				<path class="st0" d="M15,15.5H1c-0.6,0-1-0.4-1-1V4c0-0.6,0.4-1,1-1h14c0.6,0,1,0.4,1,1v10.5C16,15.1,15.6,15.5,15,15.5z
					 M15,14.5V15V14.5L15,14.5L15,14.5z M1,4v10.5h14L15,4H1z"/>
			</g>
			<g>
				<path class="st0" d="M7,8.5H0.5C0.2,8.5,0,8.3,0,8s0.2-0.5,0.5-0.5H7c0.3,0,0.5,0.2,0.5,0.5S7.3,8.5,7,8.5z"/>
			</g>
			<g>
				<path class="st0" d="M15.5,8.5H9C8.7,8.5,8.5,8.3,8.5,8S8.7,7.5,9,7.5h6.5C15.8,7.5,16,7.7,16,8S15.8,8.5,15.5,8.5z"/>
			</g>
			<g>
				<path class="st0" d="M10.5,4C10.2,4,10,3.8,10,3.5V2c0-0.3-0.2-0.5-0.5-0.5h-3C6.2,1.5,6,1.7,6,2v1.5C6,3.8,5.8,4,5.5,4
					C5.2,4,5,3.8,5,3.5V2c0-0.8,0.7-1.5,1.5-1.5h3C10.3,0.5,11,1.2,11,2v1.5C11,3.8,10.8,4,10.5,4z"/>
			</g>
		</g>
		<g>
			<path class="st0" d="M8,10.5c-0.4,0-0.8-0.2-1.1-0.4C6.7,9.8,6.5,9.4,6.5,9V7.5C6.5,6.7,7.2,6,8,6c0.4,0,0.8,0.2,1.1,0.4
				c0.3,0.3,0.4,0.7,0.4,1.1V9C9.5,9.8,8.8,10.5,8,10.5z M8,7C7.7,7,7.5,7.2,7.5,7.5V9c0,0.1,0.1,0.3,0.1,0.4C7.7,9.4,7.9,9.5,8,9.5
				c0.3,0,0.5-0.2,0.5-0.5V7.5c0-0.1-0.1-0.3-0.1-0.4C8.3,7.1,8.1,7,8,7z"/>
		</g>
	</g>
</g>
</svg>
