<?xml version="1.0" encoding="utf-8"?>
<!-- Generator: Adobe Illustrator 19.2.1, SVG Export Plug-In . SVG Version: 6.00 Build 0)  -->
<svg version="1.1" xmlns="http://www.w3.org/2000/svg" xmlns:xlink="http://www.w3.org/1999/xlink" x="0px" y="0px"
	 viewBox="0 0 16 16" style="enable-background:new 0 0 16 16;" xml:space="preserve">
<style type="text/css">
	.st0{display:none;}
	.st1{display:inline;}
	.st2{fill:#337ab7;}
</style>
<g id="Location">
	<g>
		<g>
			<g>
				<path class="st2" d="M8,9C6.4,9,5,7.7,5,6s1.3-3,3-3c1.6,0,3,1.3,3,3S9.6,9,8,9z M8,4C6.9,4,6,4.9,6,6c0,1.1,0.9,2,2,2
					c1.1,0,2-0.9,2-2C10,4.9,9.1,4,8,4z"/>
			</g>
		</g>
		<g>
			<path class="st2" d="M8,16c-0.1,0-0.2,0-0.3-0.1C7.4,15.7,2,11,2,6c0-3.3,2.7-6,6-6c3.3,0,6,2.7,6,6c0,5-5.4,9.7-5.7,9.9
				C8.2,16,8.1,16,8,16z M8,1C5.3,1,3,3.2,3,6c0,3.9,3.8,7.8,5,8.8c1.2-1.1,5-5,5-8.8C13,3.2,10.7,1,8,1z"/>
		</g>
	</g>
</g> 
</svg>
