<?xml version="1.0" encoding="utf-8"?>
<!-- Generator: Adobe Illustrator 19.2.1, SVG Export Plug-In . SVG Version: 6.00 Build 0)  -->
<svg version="1.1" xmlns="http://www.w3.org/2000/svg" xmlns:xlink="http://www.w3.org/1999/xlink" x="0px" y="0px"
	 viewBox="0 0 16 16" style="enable-background:new 0 0 16 16;" xml:space="preserve">
<style type="text/css">
	.st0{display:none;}
	.st1{display:inline;}
	.st2{fill:#337ab7;}
</style>
<g id="Salary">
	<g>
		<g>
			<path class="st2" d="M14.5,15.5h-13C0.7,15.5,0,14.8,0,14V5c0-0.8,0.7-1.5,1.5-1.5H14c0.2,0,0.9,0,1-0.3c0.1-0.3,0.4-0.4,0.6-0.3
				C15.9,3,16,3.3,15.9,3.6c0,0,0,0.1,0,0.1C15.9,3.7,16,3.9,16,4v10C16,14.8,15.3,15.5,14.5,15.5z M1.5,4.5C1.2,4.5,1,4.7,1,5v9
				c0,0.3,0.2,0.5,0.5,0.5h13c0.3,0,0.5-0.2,0.5-0.5V4.4c-0.4,0.1-0.8,0.1-1,0.1H1.5z"/>
		</g>
		<g>
			<path class="st2" d="M15.5,4.5C15.2,4.5,15,4.3,15,4V3.5c0,0-0.1-0.4-0.6-0.5l-11-1.5c-0.1,0-0.2,0-0.3,0C3,1.6,3,1.7,3,1.8v1.8
				c0,0.3-0.2,0.5-0.5,0.5C2.2,4.2,2,3.9,2,3.7V1.8c0-0.4,0.2-0.8,0.5-1c0.3-0.2,0.7-0.3,1.1-0.3l11,1.5C15.6,2.2,16,3.1,16,3.5
				L16,4C16,4.3,15.8,4.5,15.5,4.5z"/>
		</g>
		<g>
			<circle class="st2" cx="3" cy="9.5" r="1"/>
		</g>
	</g>
</g>
</svg>
