<?xml version="1.0" encoding="UTF-8"?>
<svg preserveAspectRatio="none" width="100%" height="100%" viewBox="0 0 346 2364" version="1.1" xmlns="http://www.w3.org/2000/svg" xmlns:xlink="http://www.w3.org/1999/xlink">
    <!-- Generator: Sketch 47.1 (45422) - http://www.bohemiancoding.com/sketch -->
    <title>a-hero-gradient-mobile copy</title>
    <desc>Created with Sketch.</desc>
    <defs>
        <linearGradient x1="93.4472378%" y1="95.9610307%" x2="5.62250967%" y2="0%" id="linearGradient-1">
            <stop stop-color="#B83EBB" offset="0%"></stop>
            <stop stop-color="#337AB7" offset="100%"></stop>
        </linearGradient>
        <linearGradient x1="64.4839657%" y1="9.96870018%" x2="65.5121863%" y2="85.6001583%" id="linearGradient-2">
            <stop stop-color="#FFFFFF" stop-opacity="0.04" offset="1.4847736%"></stop>
            <stop stop-color="#FFFFFF" stop-opacity="0.4" offset="100%"></stop>
        </linearGradient>
        <linearGradient x1="63.9813031%" y1="-31.6726505%" x2="63.9813006%" y2="122.700682%" id="linearGradient-3">
            <stop stop-color="#FFFFFF" stop-opacity="0.04" offset="0%"></stop>
            <stop stop-color="#FFFFFF" stop-opacity="0.4" offset="100%"></stop>
        </linearGradient>
    </defs>
    <g id="development" stroke="none" stroke-width="1" fill="none" fill-rule="evenodd">
        <g id="a-hero-gradient-mobile-copy">
            <polygon id="gr-bg" fill="#F9F9F9" points="0 581 346 581 346 2358 0 2332.55712"></polygon>
            <polygon id="gr-str" fill="#F6F5F5" transform="translate(173.000000, 2340.000000) scale(-1, 1) translate(-173.000000, -2340.000000) " points="0 2330.79556 346 2321 346 2333.54756 0 2359"></polygon>
            <polygon id="grad-bg" fill="url(#linearGradient-1)" points="0 0 346 0 346 606.717222 0 651"></polygon>
            <polygon id="grad-str-1" fill="url(#linearGradient-2)" points="0.00357306351 623.332548 346 598 345.998999 607.155668 0 651"></polygon>
            <polygon id="grad-str-2" fill="url(#linearGradient-3)" transform="translate(172.500000, 626.500000) rotate(-5.800000) translate(-172.500000, -626.500000) " points="-0.471587397 619.178032 347 619 346.447545 624.357499 -2 634"></polygon>
        </g>
    </g>
</svg>