<?xml version="1.0" encoding="UTF-8"?>
<svg width="35px" height="35px" viewBox="0 0 35 35" version="1.1" xmlns="http://www.w3.org/2000/svg" xmlns:xlink="http://www.w3.org/1999/xlink">
    <!-- Generator: Sketch 47.1 (45422) - http://www.bohemiancoding.com/sketch -->
    <title>instagram</title>
    <desc>Created with Sketch.</desc>
    <defs></defs>
    <g id="final" stroke="none" stroke-width="1" fill="none" fill-rule="evenodd">
        <g id="employer-design-04-and-social" transform="translate(-805.000000, -5803.000000)" fill="#FFFFFF">
            <g id="instagram" transform="translate(805.000000, 5803.000000)">
                <path d="M23.4311018,7.96641791 L11.438013,7.96641791 C9.52397189,7.96641791 7.96641791,9.52387582 7.96641791,11.438013 L7.96641791,23.4310057 C7.96641791,25.3454311 9.52397189,26.9029851 11.438013,26.9029851 L23.4311018,26.9029851 C25.3454311,26.9029851 26.9029851,25.3454311 26.9029851,23.4310057 L26.9029851,11.438013 C26.9029851,9.52397189 25.3454311,7.96641791 23.4311018,7.96641791 Z M17.4343172,23.6683756 C13.9973046,23.6683756 11.2006431,20.8717142 11.2006431,17.4343172 C11.2006431,13.9973046 13.9973046,11.2006431 17.4343172,11.2006431 C20.8717142,11.2006431 23.6683756,13.9973046 23.6683756,17.4343172 C23.6683756,20.8717142 20.8717142,23.6683756 17.4343172,23.6683756 Z M23.8689537,12.489703 C23.05521,12.489703 22.393533,11.8280259 22.393533,11.0147626 C22.393533,10.2014032 23.05521,9.5397261 23.8689537,9.5397261 C24.682217,9.5397261 25.3438941,10.2014032 25.3438941,11.0147626 C25.3438941,11.828122 24.682217,12.489703 23.8689537,12.489703 Z" id="Shape"></path>
                <path d="M17.4348932,13.8432836 C15.4553149,13.8432836 13.8432836,15.4545482 13.8432836,17.4341265 C13.8432836,19.4144715 15.4553149,21.0261194 17.4348932,21.0261194 C19.4152382,21.0261194 21.0261194,19.4144715 21.0261194,17.4341265 C21.0261194,15.4545482 19.4152382,13.8432836 17.4348932,13.8432836 Z" id="Shape"></path>
                <path d="M0,4 L0,31 L0,31 C2.705415e-16,33.209139 1.790861,35 4,35 L31,35 L31,35 C33.209139,35 35,33.209139 35,31 L35,4 L35,4 C35,1.790861 33.209139,-4.05812251e-16 31,0 L4,0 L4,0 C1.790861,4.05812251e-16 -2.705415e-16,1.790861 0,4 Z M29.6138462,23.5022115 C29.6138462,26.8726923 26.8726923,29.6138462 23.5023077,29.6138462 L11.4977885,29.6138462 C8.12769231,29.6138462 5.38615385,26.8726923 5.38615385,23.5022115 L5.38615385,11.4977885 C5.38615385,8.12769231 8.12769231,5.38615385 11.4977885,5.38615385 L23.5023077,5.38615385 C26.8726923,5.38615385 29.6138462,8.12769231 29.6138462,11.4977885 L29.6138462,23.5022115 Z" id="Shape"></path>
            </g>
        </g>
    </g>
</svg>