<?xml version="1.0" encoding="utf-8"?>
<!-- Generator: Adobe Illustrator 16.0.0, SVG Export Plug-In . SVG Version: 6.00 Build 0)  -->
<!DOCTYPE svg PUBLIC "-//W3C//DTD SVG 1.1//EN" "http://www.w3.org/Graphics/SVG/1.1/DTD/svg11.dtd">
<svg version="1.1" id="MainPageIcons" xmlns="http://www.w3.org/2000/svg" xmlns:xlink="http://www.w3.org/1999/xlink" x="0px"
	 y="0px" width="361.111px" height="520.371px" viewBox="0 0 361.111 520.371" enable-background="new 0 0 361.111 520.371"
	 xml:space="preserve">
<g>
	<g>
		<g>
			<path fill="#FFFFFF" d="M329.056,459.167c-22.7,22.701-262.687,21.914-284.599,0c-21.913-21.91-20.36-391.558,0-411.918
				c20.359-20.36,264.615-19.983,284.599,0C349.04,67.232,351.755,436.47,329.056,459.167z"/>
			<g>
				<path fill="#3EBB64" d="M327.73,457.841c-5.164,5.018-14.405,6.431-21.115,7.854c-13.053,2.77-26.4,4.175-39.68,5.324
					c-34.637,2.996-69.54,3.481-104.282,2.721c-30.685-0.672-61.917-1.877-92.161-7.484c-7.773-1.441-16.902-2.896-23.576-7.46
					c-3.518-2.406-4.611-8.219-5.61-12.312c-5.126-20.998-6.167-43.251-7.52-64.736c-2.023-32.139-2.837-64.356-3.174-96.553
					c-0.665-63.547-0.228-127.648,5.949-190.951c0.963-9.875,2.101-19.761,3.952-29.514c0.967-5.097,1.85-11.188,4.803-15.602
					c2.808-4.194,12.057-5.666,16.894-6.737c12.087-2.676,24.493-3.966,36.807-5.066c33.832-3.024,67.924-3.622,101.872-3.245
					c31.653,0.352,63.614,1.348,95.005,5.709c9.196,1.277,18.838,2.65,27.49,6.183c4.641,1.895,5.931,4.518,7.34,9.22
					c5.602,18.685,6.407,39.301,7.857,58.618c4.945,65.899,5.45,132.303,4.12,198.348c-0.609,30.259-1.69,60.556-4.278,90.718
					c-0.936,10.898-2.069,21.802-3.872,32.595c-1.083,6.484-2.181,13.462-4.985,19.472
					C329.042,456.064,328.446,457.105,327.73,457.841c-1.685,1.735,0.965,4.389,2.652,2.652c3.467-3.57,4.691-9.386,5.807-14.043
					c2.138-8.934,3.306-18.112,4.358-27.226c3.222-27.896,4.426-56.044,5.313-84.095c2.128-67.244,1.654-134.779-2.249-201.952
					c-1.338-23.02-2.738-46.343-6.97-69.05c-1.017-5.456-2.052-11.548-4.903-16.41c-2.798-4.77-9.635-6.392-14.558-7.709
					c-25.547-6.841-53.291-7.562-79.552-8.7c-35.138-1.523-70.391-1.478-105.525,0.108c-25.575,1.154-52.82,1.887-77.59,9.046
					c-4.884,1.412-10.651,3.235-13.178,8.031c-2.811,5.336-3.831,11.754-4.877,17.617c-4.149,23.255-5.474,47.103-6.769,70.651
					c-1.813,32.97-2.597,65.999-2.875,99.015c-0.289,34.354,0.044,68.721,1.202,103.058c0.931,27.614,2.22,55.313,5.44,82.77
					c1.033,8.805,2.225,17.655,4.33,26.277c1.075,4.405,2.342,10.033,5.934,13.151c5.582,4.847,14.29,6.439,21.267,7.939
					c12.621,2.714,25.535,4.15,38.375,5.344c34.424,3.199,69.136,3.857,103.688,3.303c31.059-0.499,62.526-1.701,93.203-6.914
					c9.449-1.605,22.854-3.146,30.128-10.212C332.119,458.806,329.464,456.157,327.73,457.841z"/>
			</g>
		</g>
	</g>
	<g>
		<g>
			<path fill="#FFFFFF" d="M321.567,452.615c-22.7,22.701-262.687,21.914-284.6,0c-21.912-21.912-20.36-391.559,0-411.918
				c20.359-20.36,264.615-19.983,284.6,0C341.55,60.679,344.266,429.917,321.567,452.615z"/>
			<g>
				<path fill="#3EBB64" d="M320.241,451.289c-5.164,5.018-14.405,6.431-21.115,7.854c-13.053,2.77-26.4,4.175-39.68,5.324
					c-34.637,2.996-69.54,3.481-104.282,2.721c-30.685-0.672-61.917-1.877-92.161-7.484c-7.773-1.441-16.902-2.896-23.576-7.46
					c-3.518-2.406-4.611-8.22-5.61-12.312c-5.126-20.998-6.167-43.252-7.519-64.736c-2.023-32.14-2.837-64.357-3.174-96.554
					c-0.665-63.547-0.228-127.648,5.948-190.951c0.963-9.875,2.101-19.76,3.952-29.513c0.967-5.097,1.85-11.188,4.803-15.602
					c2.808-4.194,12.057-5.666,16.894-6.737c12.087-2.676,24.493-3.966,36.807-5.066c33.832-3.024,67.924-3.622,101.872-3.245
					c31.653,0.352,63.614,1.348,95.006,5.709c9.195,1.277,18.838,2.65,27.49,6.183c4.641,1.895,5.931,4.517,7.34,9.22
					c5.602,18.685,6.407,39.301,7.857,58.618c4.944,65.9,5.45,132.303,4.12,198.348c-0.609,30.259-1.69,60.556-4.278,90.718
					c-0.936,10.898-2.069,21.802-3.872,32.595c-1.082,6.484-2.181,13.462-4.985,19.472
					C321.553,449.511,320.957,450.552,320.241,451.289c-1.685,1.735,0.965,4.389,2.652,2.652c3.467-3.57,4.691-9.386,5.807-14.043
					c2.138-8.934,3.306-18.112,4.358-27.226c3.221-27.896,4.426-56.044,5.313-84.095c2.128-67.244,1.654-134.78-2.249-201.952
					c-1.338-23.02-2.738-46.343-6.97-69.05c-1.017-5.456-2.052-11.548-4.903-16.41c-2.798-4.77-9.636-6.392-14.558-7.709
					c-25.547-6.841-53.292-7.562-79.553-8.7c-35.138-1.523-70.391-1.478-105.525,0.108c-25.575,1.154-52.82,1.887-77.59,9.046
					c-4.884,1.412-10.651,3.234-13.178,8.03c-2.811,5.336-3.831,11.754-4.877,17.617c-4.149,23.255-5.474,47.103-6.769,70.651
					c-1.813,32.97-2.597,65.999-2.875,99.014c-0.289,34.354,0.044,68.721,1.202,103.058c0.931,27.614,2.22,55.313,5.44,82.77
					c1.032,8.805,2.225,17.656,4.329,26.277c1.076,4.405,2.342,10.034,5.934,13.152c5.582,4.847,14.291,6.439,21.267,7.939
					c12.621,2.714,25.536,4.15,38.375,5.344c34.425,3.199,69.137,3.857,103.688,3.303c31.059-0.499,62.526-1.701,93.203-6.914
					c9.449-1.605,22.854-3.146,30.128-10.212C324.629,452.253,321.976,449.604,320.241,451.289z"/>
			</g>
		</g>
	</g>
	<g>
		<circle fill="#E6E7E8" cx="79.407" cy="113.719" r="22.468"/>
		<g>
			<path fill="#2C9345" d="M100.625,113.719c-0.354,11.824-9.395,20.865-21.219,21.219c-11.82,0.354-20.878-9.928-21.217-21.219
				c-0.354-11.819,9.925-20.88,21.217-21.218C91.226,92.146,100.286,102.427,100.625,113.719c0.048,1.608,2.548,1.613,2.5,0
				C102.729,100.512,92.613,90.396,79.406,90c-13.202-0.396-23.339,11.108-23.717,23.718c-0.396,13.202,11.105,23.341,23.717,23.719
				c13.203,0.396,23.341-11.107,23.719-23.719C103.173,112.105,100.673,112.11,100.625,113.719z"/>
		</g>
	</g>
	<g>
		<g>
			<path fill="#2C9345" d="M113.11,104.358c22.468,0,44.937,0,67.405,0c1.612,0,1.612-2.5,0-2.5c-22.469,0-44.937,0-67.405,0
				C111.498,101.858,111.498,104.358,113.11,104.358L113.11,104.358z"/>
		</g>
	</g>
	<g>
		<g>
			<path fill="#2C9345" d="M113.111,119.961c17.668,0,35.337,0,53.005,0c1.612,0,1.612-2.5,0-2.5c-17.668,0-35.336,0-53.005,0
				C111.499,117.461,111.499,119.961,113.111,119.961L113.111,119.961z"/>
		</g>
	</g>
	<g>
		<g>
			<path fill="#2C9345" d="M210.02,199.848c36.771,0,73.542,0,110.313,0c1.612,0,1.612-2.5,0-2.5c-36.771,0-73.542,0-110.313,0
				C208.408,197.348,208.408,199.848,210.02,199.848L210.02,199.848z"/>
		</g>
	</g>
	<g>
		<g>
			<path fill="#2C9345" d="M52.859,161.153c37.738,0,75.475,0,113.213,0c1.612,0,1.612-2.5,0-2.5c-37.738,0-75.475,0-113.213,0
				C51.247,158.653,51.247,161.153,52.859,161.153L52.859,161.153z"/>
		</g>
	</g>
	<g>
		<g>
			<path fill="#2C9345" d="M52.859,296.9c31.522,0,63.045,0,94.567,0c1.612,0,1.612-2.5,0-2.5c-31.522,0-63.045,0-94.567,0
				C51.247,294.4,51.247,296.9,52.859,296.9L52.859,296.9z"/>
		</g>
	</g>
	<g>
		<g>
			<path fill="#2C9345" d="M52.859,306.261c25.983,0,51.965,0,77.948,0c1.612,0,1.612-2.5,0-2.5c-25.983,0-51.965,0-77.948,0
				C51.247,303.761,51.247,306.261,52.859,306.261L52.859,306.261z"/>
		</g>
	</g>
	<g>
		<g>
			<path fill="#2C9345" d="M52.859,315.623c25.983,0,51.965,0,77.948,0c1.612,0,1.612-2.5,0-2.5c-25.983,0-51.965,0-77.948,0
				C51.247,313.123,51.247,315.623,52.859,315.623L52.859,315.623z"/>
		</g>
	</g>
	<g>
		<g>
			<path fill="#2C9345" d="M52.859,403.566c31.522,0,63.045,0,94.567,0c1.612,0,1.612-2.5,0-2.5c-31.522,0-63.045,0-94.567,0
				C51.247,401.066,51.247,403.566,52.859,403.566L52.859,403.566z"/>
		</g>
	</g>
	<g>
		<g>
			<path fill="#2C9345" d="M52.859,412.929c25.983,0,51.965,0,77.948,0c1.612,0,1.612-2.5,0-2.5c-25.983,0-51.965,0-77.948,0
				C51.247,410.429,51.247,412.929,52.859,412.929L52.859,412.929z"/>
		</g>
	</g>
	<g>
		<g>
			<path fill="#2C9345" d="M52.859,422.291c25.983,0,51.965,0,77.948,0c1.612,0,1.612-2.5,0-2.5c-25.983,0-51.965,0-77.948,0
				C51.247,419.791,51.247,422.291,52.859,422.291L52.859,422.291z"/>
		</g>
	</g>
	<g>
		<g>
			<path fill="#2C9345" d="M52.859,351.667c30.159,0,60.318,0,90.478,0c1.612,0,1.612-2.5,0-2.5c-30.159,0-60.318,0-90.478,0
				C51.247,349.167,51.247,351.667,52.859,351.667L52.859,351.667z"/>
		</g>
	</g>
	<g>
		<g>
			<path fill="#2C9345" d="M52.859,363.369c25.478,0,50.955,0,76.433,0c1.612,0,1.612-2.5,0-2.5c-25.478,0-50.955,0-76.433,0
				C51.247,360.869,51.247,363.369,52.859,363.369L52.859,363.369z"/>
		</g>
	</g>
	<g>
		<g>
			<path fill="#2C9345" d="M52.859,372.73c32.25,0,64.5,0,96.749,0c1.612,0,1.612-2.5,0-2.5c-32.25,0-64.5,0-96.749,0
				C51.247,370.23,51.247,372.73,52.859,372.73L52.859,372.73z"/>
		</g>
	</g>
	<g>
		<g>
			<path fill="#2C9345" d="M52.859,208.475c23.302,0,46.604,0,69.906,0c1.612,0,1.612-2.5,0-2.5c-23.302,0-46.604,0-69.906,0
				C51.247,205.975,51.247,208.475,52.859,208.475L52.859,208.475z"/>
		</g>
	</g>
	<g>
		<g>
			<path fill="#2C9345" d="M52.859,217.837c35.808,0,71.616,0,107.424,0c1.612,0,1.612-2.5,0-2.5c-35.808,0-71.616,0-107.424,0
				C51.247,215.337,51.247,217.837,52.859,217.837L52.859,217.837z"/>
		</g>
	</g>
	<g>
		<g>
			<path fill="#2C9345" d="M210.02,134.801c21.086,0,42.171,0,63.257,0c1.612,0,1.612-2.5,0-2.5c-21.086,0-42.171,0-63.257,0
				C208.408,132.301,208.408,134.801,210.02,134.801L210.02,134.801z"/>
		</g>
	</g>
	<g>
		<g>
			<path fill="#2C9345" d="M210.02,142.135c27.293,0,54.585,0,81.878,0c1.612,0,1.612-2.5,0-2.5c-27.293,0-54.585,0-81.878,0
				C208.408,139.635,208.408,142.135,210.02,142.135L210.02,142.135z"/>
		</g>
	</g>
	<g>
		<g>
			<path fill="#2C9345" d="M52.859,228.135c15.184,0,30.368,0,45.552,0c1.612,0,1.612-2.5,0-2.5c-15.184,0-30.368,0-45.552,0
				C51.247,225.635,51.247,228.135,52.859,228.135L52.859,228.135z"/>
		</g>
	</g>
	<g>
		<g>
			<path fill="#2C9345" d="M52.859,169.267c17.115,0,34.23,0,51.346,0c1.612,0,1.612-2.5,0-2.5c-17.115,0-34.23,0-51.346,0
				C51.247,166.767,51.247,169.267,52.859,169.267L52.859,169.267z"/>
		</g>
	</g>
	<g>
		<g>
			<path fill="#2C9345" d="M109.86,169.267c17.115,0,34.23,0,51.346,0c1.612,0,1.612-2.5,0-2.5c-17.115,0-34.23,0-51.346,0
				C108.248,166.767,108.248,169.267,109.86,169.267L109.86,169.267z"/>
		</g>
	</g>
	<g>
		<g>
			<path fill="#2C9345" d="M323.232,213.575c-37.737,0-75.475,0-113.212,0c-1.612,0-1.612,2.5,0,2.5c37.737,0,75.475,0,113.212,0
				C324.844,216.075,324.844,213.575,323.232,213.575L323.232,213.575z"/>
		</g>
	</g>
	<g>
		<g>
			<path fill="#2C9345" d="M300.366,205.461c-17.115,0-34.23,0-51.346,0c-1.612,0-1.612,2.5,0,2.5c17.115,0,34.23,0,51.346,0
				C301.978,207.961,301.978,205.461,300.366,205.461L300.366,205.461z"/>
		</g>
	</g>
	<g>
		<g>
			<path fill="#2C9345" d="M242.946,205.461c-10.976,0-21.95,0-32.926,0c-1.612,0-1.612,2.5,0,2.5c10.976,0,21.95,0,32.926,0
				C244.558,207.961,244.558,205.461,242.946,205.461L242.946,205.461z"/>
		</g>
	</g>
	<g>
		<circle fill="none" stroke="#2C9345" stroke-width="2" stroke-miterlimit="10" cx="68.289" cy="259.027" r="15.333"/>
		<path fill="#2C9345" d="M61.626,245.363l7,14.5l8.333-13.5c0,0-3.271-2.438-7.834-2.688S61.626,245.363,61.626,245.363z"/>
	</g>
	<g>
		<circle fill="none" stroke="#2C9345" stroke-width="2" stroke-miterlimit="10" cx="124.205" cy="259.027" r="15.333"/>
		<path fill="#2C9345" d="M128.615,244.478l-4.729,15.391l15.29-4.23c0,0-0.741-4.01-3.916-7.297
			C132.084,245.055,128.615,244.478,128.615,244.478z"/>
	</g>
	<g>
		<circle fill="none" stroke="#2C9345" stroke-width="2" stroke-miterlimit="10" cx="180.122" cy="259.027" r="15.333"/>
		<path fill="#2C9345" d="M194.996,262.173l-15.74-3.393l5.526,14.871c0,0,3.934-1.082,6.935-4.527
			C194.718,265.679,194.996,262.173,194.996,262.173z"/>
	</g>
	<g>
		<path fill="none" stroke="#2C9345" stroke-width="2" stroke-miterlimit="10" d="M248.476,250.06
			c4.952,6.869,3.398,16.453-3.471,21.406c-6.868,4.951-16.452,3.396-21.404-3.473c-4.952-6.867-3.398-16.451,3.47-21.402
			C233.94,241.638,243.524,243.191,248.476,250.06z"/>
		<path fill="#2C9345" d="M222.642,251.839l14.158,7.668l-1.135-15.824c0,0-4.079-0.064-7.927,2.401
			C223.892,248.55,222.642,251.839,222.642,251.839z"/>
	</g>
	<g>
		<circle fill="none" stroke="#2C9345" stroke-width="2" stroke-miterlimit="10" cx="291.955" cy="259.028" r="15.333"/>
		<path fill="#2C9345" d="M292.557,243.837l-0.7,16.086l13.731-7.945c0,0-1.727-3.695-5.627-6.076S292.557,243.837,292.557,243.837z
			"/>
	</g>
	<g>
		<g>
			<path fill="#2C9345" d="M184.555,304.578c0,39.024,0,78.05,0,117.074c0,0.682,0.568,1.25,1.25,1.25c38.879,0,77.757,0,116.636,0
				c1.612,0,1.612-2.5,0-2.5c-38.879,0-77.757,0-116.636,0c0.417,0.417,0.833,0.833,1.25,1.25c0-39.024,0-78.05,0-117.074
				C187.055,302.965,184.555,302.965,184.555,304.578L184.555,304.578z"/>
		</g>
	</g>
	<circle fill="#2C9345" cx="211.958" cy="367.029" r="3.333"/>
	<circle fill="#2C9345" cx="231.958" cy="350.363" r="3.333"/>
	<circle fill="#2C9345" cx="245.625" cy="358.363" r="3.333"/>
	<circle fill="#2C9345" cx="266.625" cy="339.697" r="3.333"/>
	<circle fill="#2C9345" cx="283.625" cy="346.031" r="3.333"/>
	<g>
		<g>
			<path fill="#2C9345" d="M212.401,367.471c5.806-4.839,11.611-9.677,17.418-14.515c0.848-0.707,1.696-1.414,2.545-2.121
				c-0.571,0.476-0.742,0.055,0.292,0.659c0.844,0.494,1.687,0.988,2.53,1.482c3.375,1.975,6.749,3.95,10.124,5.926
				c0.253,0.147,0.546,0.09,0.758-0.098c6.363-5.656,12.727-11.313,19.09-16.969c0.466-0.414,0.932-0.829,1.398-1.243
				c0.67-0.595,0.379-0.116-0.033-0.271c1.631,0.608,3.262,1.216,4.893,1.823c4.015,1.496,8.029,2.991,12.044,4.487
				c0.757,0.282,1.08-0.927,0.332-1.205c-5.667-2.111-11.333-4.223-17-6.334c-0.213-0.079-0.45,0.021-0.608,0.16
				c-6.04,5.369-12.08,10.738-18.12,16.107c-0.916,0.813-1.832,1.628-2.747,2.441c0.067-0.06,0.928,0.197,0.038-0.324
				c-0.741-0.434-1.482-0.867-2.223-1.301c-3.619-2.118-7.238-4.236-10.857-6.355c-0.259-0.151-0.539-0.084-0.758,0.098
				c-6.666,5.556-13.333,11.111-20,16.666C210.897,367.103,211.786,367.983,212.401,367.471L212.401,367.471z"/>
		</g>
	</g>
</g>
</svg>
