<?xml version="1.0" encoding="utf-8"?>
<!-- Generator: Adobe Illustrator 16.0.0, SVG Export Plug-In . SVG Version: 6.00 Build 0)  -->
<!DOCTYPE svg PUBLIC "-//W3C//DTD SVG 1.1//EN" "http://www.w3.org/Graphics/SVG/1.1/DTD/svg11.dtd">
<svg version="1.1" id="MainPageIcons" xmlns="http://www.w3.org/2000/svg" xmlns:xlink="http://www.w3.org/1999/xlink" x="0px"
	 y="0px" width="551.852px" height="677.777px" viewBox="0 0 551.852 677.777" enable-background="new 0 0 551.852 677.777"
	 xml:space="preserve">
<g>
	<g>
		<path fill="#FFFFFF" d="M431.304,546.057c-22.699,22.701-262.686,21.912-284.599,0c-21.912-21.912-20.36-391.559,0-411.919
			c20.359-20.359,264.617-19.983,284.599,0C451.289,154.121,454.003,523.359,431.304,546.057z"/>
		<g>
			<path fill="#FFFFFF" d="M236.032,562.398c-44.64-2.271-81.368-7.443-89.327-15.402c-11.192-11.191-16.263-113.084-15.833-212.824
				"/>
			<g>
				<path fill="#3EBB64" d="M236.032,560.523c-25.533-1.327-52.415-2.396-77.097-9.678c-4.959-1.463-10.371-3.153-12.714-8.098
					c-2.584-5.453-3.533-11.897-4.562-17.782c-3.859-22.077-5.096-44.692-6.299-67.038c-1.627-30.226-2.301-60.505-2.554-90.771
					c-0.092-10.994-0.103-21.989-0.06-32.984c0.01-2.419-3.74-2.418-3.75,0c-0.226,57.105,0.107,114.765,6.291,171.599
					c0.931,8.553,2.055,17.108,3.761,25.544c1.019,5.035,2.181,10.404,4.757,14.912c2.468,4.318,7.887,6.166,12.318,7.663
					c9.756,3.297,20.202,4.759,30.368,6.126c16.429,2.211,32.992,3.398,49.541,4.258
					C238.45,564.399,238.438,560.648,236.032,560.523L236.032,560.523z"/>
			</g>
		</g>
		<g>
			<path fill="#FFFFFF" d="M446.732,404.342c-1.621,72.664-6.605,133.83-15.428,142.654
				c-12.625,12.625-96.674,17.984-168.824,16.484"/>
			<g>
				<path fill="#3EBB64" d="M444.857,404.342c-0.669,29.399-1.768,58.823-4.34,88.125c-0.941,10.721-2.104,21.441-3.926,32.053
					c-1.076,6.269-2.198,13.032-5.042,18.79c-2.138,4.329-7.286,5.889-11.575,7.266c-8.205,2.635-16.841,4.011-25.347,5.252
					c-25.482,3.72-51.39,4.901-77.105,5.61c-18.342,0.507-36.697,0.535-55.042,0.168c-2.42-0.049-2.415,3.701,0,3.75
					c28.347,0.567,56.722,0.183,85.031-1.406c21.916-1.23,44.219-2.825,65.681-7.678c5.861-1.325,12.147-2.914,17.257-6.21
					c3.645-2.351,5.188-6.287,6.48-10.258c5.801-17.827,6.643-37.863,8.088-56.398c2.051-26.302,2.989-52.693,3.59-79.063
					C448.662,401.922,444.912,401.928,444.857,404.342L444.857,404.342z"/>
			</g>
		</g>
		<g>
			<path fill="#FFFFFF" d="M336.638,118.3c47.473,1.888,87.109,6.641,94.666,14.199c11.27,11.269,17.047,133.611,15.871,242.237"/>
			<g>
				<path fill="#3EBB64" d="M336.638,120.175c26.332,1.071,53.49,2.069,79.258,8.064c4.521,1.052,12.186,2.293,14.868,6.649
					c2.376,3.857,3.183,8.922,4.079,13.281c3.731,18.136,4.995,36.868,6.306,55.3c1.874,26.356,2.868,52.777,3.527,79.189
					c0.766,30.685,0.945,61.385,0.624,92.078c-0.025,2.419,3.725,2.417,3.75,0c0.588-56.145-0.182-112.429-3.957-168.464
					c-1.26-18.698-2.713-37.53-6.037-55.994c-1.61-8.945-2.861-18.704-12.103-22.535c-10.771-4.465-22.974-5.766-34.445-7.188
					c-18.531-2.299-37.221-3.371-55.87-4.129C334.219,116.327,334.229,120.077,336.638,120.175L336.638,120.175z"/>
			</g>
		</g>
		<g>
			<path fill="#FFFFFF" d="M131.148,304.523c1.28-84.835,6.598-161.427,15.557-170.386c11.185-11.185,89.936-16.111,161.958-14.968"
				/>
			<g>
				<path fill="#3EBB64" d="M133.023,304.523c0.475-30.718,1.411-61.438,3.325-92.103c1.324-21.205,2.627-42.802,6.985-63.645
					c0.86-4.115,1.671-10.098,4.697-13.313c3.684-3.913,11.199-5.006,16.138-6.119c22.666-5.108,46.453-6.171,69.584-7.261
					c24.946-1.176,49.941-1.417,74.911-1.038c2.42,0.037,2.416-3.713,0-3.75c-29.392-0.446-58.813-0.015-88.159,1.746
					c-20.8,1.248-42.411,2.514-62.617,7.991c-4.301,1.166-9.918,2.678-12.926,6.25c-2.905,3.449-3.911,8.649-4.895,12.905
					c-4.503,19.486-5.669,39.942-7.048,59.829c-2.271,32.782-3.238,65.658-3.746,98.509
					C129.236,306.943,132.986,306.939,133.023,304.523L133.023,304.523z"/>
			</g>
		</g>
	</g>
	<g>
		<path fill="#FFFFFF" d="M423.816,539.504c-22.701,22.701-262.687,21.912-284.6,0s-20.36-391.56,0-411.919
			c20.359-20.36,264.616-19.983,284.6,0C443.798,147.567,446.515,516.805,423.816,539.504z"/>
		<g>
			<path fill="#FFFFFF" d="M250.153,555.846c-44.639-2.271-102.979-7.443-110.938-15.404
				c-11.192-11.191-16.263-113.082-15.834-212.822"/>
			<g>
				<path fill="#3EBB64" d="M250.153,553.971c-25.935-1.334-51.947-3.078-77.679-6.674c-8.804-1.23-17.773-2.585-26.247-5.354
					c-4.836-1.58-6.844-3.602-8.494-8.321c-5.666-16.207-6.413-34.701-7.825-51.645c-2.313-27.729-3.332-55.571-3.999-83.383
					c-0.567-23.653-0.745-47.316-0.652-70.976c0.009-2.419-3.741-2.418-3.75,0c-0.225,57.104,0.108,114.764,6.292,171.597
					c0.931,8.553,2.055,17.108,3.761,25.544c1.019,5.035,2.181,10.404,4.757,14.912c2.274,3.979,7.085,5.379,11.206,6.6
					c8.798,2.609,18.064,3.87,27.137,5.078c25.033,3.334,50.284,5.074,75.494,6.371
					C252.571,557.845,252.559,554.095,250.153,553.971L250.153,553.971z"/>
			</g>
		</g>
		<g>
			<path fill="#FFFFFF" d="M439.242,383.863c-1.621,72.664-6.604,147.756-15.426,156.578
				c-12.627,12.625-85.439,17.986-157.592,16.486"/>
			<g>
				<path fill="#3EBB64" d="M437.367,383.863c-0.691,30.428-1.84,60.861-4.113,91.216c-0.913,12.19-2.021,24.383-3.686,36.496
					c-1.053,7.669-2.216,15.505-4.691,22.866c-1.774,5.279-5.519,7.297-10.589,9.2c-8.47,3.179-17.626,4.673-26.53,6.029
					c-27.951,4.257-56.5,5.178-84.729,5.547c-12.268,0.161-24.538,0.079-36.804-0.165c-2.42-0.048-2.415,3.702,0,3.75
					c30.784,0.613,61.636,0.193,92.344-2.187c11.815-0.915,23.62-2.189,35.312-4.148c8.112-1.358,16.479-2.986,24.067-6.27
					c4.365-1.889,7.835-4.146,9.722-8.615c2.706-6.412,3.759-13.572,4.837-20.398c3.905-24.727,5.257-49.914,6.533-74.886
					c0.995-19.466,1.636-38.949,2.078-58.436C441.171,381.443,437.421,381.449,437.367,383.863L437.367,383.863z"/>
			</g>
		</g>
		<g>
			<path fill="#FFFFFF" d="M329.148,111.747c47.473,1.888,87.111,6.641,94.668,14.199c11.27,11.269,17.047,133.612,15.871,242.238"
				/>
			<g>
				<path fill="#3EBB64" d="M329.148,113.622c26.333,1.071,53.492,2.069,79.26,8.064c4.521,1.052,12.186,2.293,14.868,6.649
					c2.376,3.857,3.183,8.922,4.079,13.281c3.731,18.136,4.995,36.868,6.306,55.301c1.874,26.357,2.868,52.777,3.527,79.189
					c0.766,30.685,0.945,61.386,0.624,92.078c-0.025,2.419,3.725,2.417,3.75,0c0.588-56.145-0.182-112.43-3.957-168.465
					c-1.26-18.698-2.713-37.53-6.037-55.994c-1.61-8.945-2.861-18.704-12.103-22.535c-10.772-4.465-22.975-5.766-34.446-7.188
					c-18.531-2.299-37.222-3.371-55.871-4.129C326.729,109.773,326.739,113.523,329.148,113.622L329.148,113.622z"/>
			</g>
		</g>
		<g>
			<path fill="#FFFFFF" d="M123.658,297.971c1.28-84.836,6.598-161.428,15.558-170.386c11.185-11.185,89.935-16.111,161.958-14.968"
				/>
			<g>
				<path fill="#3EBB64" d="M125.533,297.971c0.475-30.718,1.411-61.439,3.325-92.104c1.324-21.205,2.628-42.802,6.986-63.645
					c0.86-4.115,1.671-10.097,4.698-13.312c3.685-3.913,11.199-5.006,16.138-6.119c22.666-5.108,46.452-6.171,69.583-7.261
					c24.947-1.176,49.942-1.417,74.911-1.038c2.42,0.037,2.416-3.713,0-3.75c-29.391-0.446-58.813-0.015-88.158,1.746
					c-20.8,1.248-42.411,2.514-62.616,7.991c-4.301,1.166-9.917,2.678-12.926,6.25c-2.905,3.448-3.912,8.649-4.895,12.904
					c-4.503,19.486-5.67,39.942-7.048,59.829c-2.271,32.782-3.238,65.659-3.746,98.51
					C121.746,300.39,125.496,300.387,125.533,297.971L125.533,297.971z"/>
			</g>
		</g>
	</g>
	<g>
		<circle fill="#E6E7E8" cx="181.655" cy="200.607" r="22.468"/>
		<g>
			<path fill="#2C9345" d="M202.873,200.607c-0.354,11.824-9.395,20.865-21.219,21.219c-11.82,0.354-20.879-9.927-21.218-21.219
				c-0.354-11.82,9.926-20.88,21.218-21.219C193.475,179.034,202.535,189.315,202.873,200.607c0.048,1.608,2.548,1.613,2.5,0
				c-0.396-13.207-10.512-23.323-23.719-23.719c-13.203-0.396-23.34,11.107-23.718,23.719
				c-0.396,13.202,11.106,23.341,23.718,23.719c13.203,0.396,23.341-11.107,23.719-23.719
				C205.421,198.994,202.921,198.999,202.873,200.607z"/>
		</g>
	</g>
	<g>
		<g>
			<g>
				<path fill="#2C9345" d="M215.358,191.246c22.468,0,44.936,0,67.405,0c1.612,0,1.612-2.5,0-2.5c-22.469,0-44.937,0-67.405,0
					C213.746,188.746,213.746,191.246,215.358,191.246L215.358,191.246z"/>
			</g>
		</g>
		<g>
			<g>
				<path fill="#2C9345" d="M215.536,206.849c17.669,0,35.337,0,53.006,0c1.612,0,1.612-2.5,0-2.5c-17.669,0-35.337,0-53.006,0
					C213.924,204.349,213.924,206.849,215.536,206.849L215.536,206.849z"/>
			</g>
		</g>
		<g>
			<g>
				<path fill="#2C9345" d="M314.759,286.736c36.771,0,73.543,0,110.314,0c1.612,0,1.612-2.5,0-2.5c-36.771,0-73.543,0-110.314,0
					C313.147,284.236,313.147,286.736,314.759,286.736L314.759,286.736z"/>
			</g>
		</g>
		<g>
			<g>
				<path fill="#2C9345" d="M168.368,248.041c37.738,0,75.476,0,113.213,0c1.612,0,1.612-2.5,0-2.5c-37.738,0-75.476,0-113.213,0
					C166.756,245.541,166.756,248.041,168.368,248.041L168.368,248.041z"/>
			</g>
		</g>
		<g>
			<g>
				<path fill="#2C9345" d="M155.171,383.787c31.523,0,63.045,0,94.568,0c1.612,0,1.612-2.5,0-2.5c-31.523,0-63.045,0-94.568,0
					C153.559,381.287,153.559,383.787,155.171,383.787L155.171,383.787z"/>
			</g>
		</g>
		<g>
			<g>
				<path fill="#2C9345" d="M155.107,393.15c25.983,0,51.965,0,77.948,0c1.612,0,1.612-2.5,0-2.5c-25.983,0-51.965,0-77.948,0
					C153.495,390.65,153.495,393.15,155.107,393.15L155.107,393.15z"/>
			</g>
		</g>
		<g>
			<g>
				<path fill="#2C9345" d="M155.107,402.512c25.983,0,51.965,0,77.948,0c1.612,0,1.612-2.5,0-2.5c-25.983,0-51.965,0-77.948,0
					C153.495,400.012,153.495,402.512,155.107,402.512L155.107,402.512z"/>
			</g>
		</g>
		<g>
			<g>
				<path fill="#2C9345" d="M155.218,438.555c30.16,0,60.319,0,90.479,0c1.612,0,1.612-2.5,0-2.5c-30.16,0-60.319,0-90.479,0
					C153.605,436.055,153.605,438.555,155.218,438.555L155.218,438.555z"/>
			</g>
		</g>
		<g>
			<g>
				<path fill="#2C9345" d="M155.142,450.256c25.477,0,50.955,0,76.432,0c1.612,0,1.612-2.5,0-2.5c-25.477,0-50.955,0-76.432,0
					C153.529,447.756,153.529,450.256,155.142,450.256L155.142,450.256z"/>
			</g>
		</g>
		<g>
			<g>
				<path fill="#2C9345" d="M155.31,459.619c32.25,0,64.5,0,96.75,0c1.612,0,1.612-2.5,0-2.5c-32.25,0-64.5,0-96.75,0
					C153.697,457.119,153.697,459.619,155.31,459.619L155.31,459.619z"/>
			</g>
		</g>
		<g>
			<g>
				<path fill="#2C9345" d="M345.855,419.363c23.302,0,46.604,0,69.906,0c1.612,0,1.612-2.5,0-2.5c-23.302,0-46.604,0-69.906,0
					C344.243,416.863,344.243,419.363,345.855,419.363L345.855,419.363z"/>
			</g>
		</g>
		<g>
			<g>
				<path fill="#2C9345" d="M308.033,428.725c35.808,0,71.616,0,107.424,0c1.612,0,1.612-2.5,0-2.5c-35.808,0-71.616,0-107.424,0
					C306.42,426.225,306.42,428.725,308.033,428.725L308.033,428.725z"/>
			</g>
		</g>
		<g>
			<g>
				<path fill="#2C9345" d="M352.433,439.021c21.086,0,42.172,0,63.258,0c1.612,0,1.612-2.5,0-2.5c-21.086,0-42.172,0-63.258,0
					C350.821,436.521,350.821,439.021,352.433,439.021L352.433,439.021z"/>
			</g>
		</g>
		<g>
			<g>
				<path fill="#2C9345" d="M294.464,439.021c15.184,0,30.367,0,45.551,0c1.612,0,1.612-2.5,0-2.5c-15.184,0-30.367,0-45.551,0
					C292.852,436.521,292.852,439.021,294.464,439.021L294.464,439.021z"/>
			</g>
		</g>
		<g>
			<g>
				<path fill="#2C9345" d="M168.097,256.155c17.115,0,34.23,0,51.346,0c1.612,0,1.612-2.5,0-2.5c-17.115,0-34.23,0-51.346,0
					C166.484,253.655,166.484,256.155,168.097,256.155L168.097,256.155z"/>
			</g>
		</g>
		<g>
			<g>
				<path fill="#2C9345" d="M226.14,256.155c17.115,0,34.231,0,51.346,0c1.612,0,1.612-2.5,0-2.5c-17.115,0-34.231,0-51.346,0
					C224.527,253.655,224.527,256.155,226.14,256.155L226.14,256.155z"/>
			</g>
		</g>
		<g>
			<g>
				<path fill="#2C9345" d="M425.48,300.463c-37.737,0-75.474,0-113.211,0c-1.612,0-1.612,2.5,0,2.5c37.737,0,75.474,0,113.211,0
					C427.092,302.963,427.092,300.463,425.48,300.463L425.48,300.463z"/>
			</g>
		</g>
		<g>
			<g>
				<path fill="#2C9345" d="M425.753,292.35c-17.115,0-34.23,0-51.346,0c-1.612,0-1.612,2.5,0,2.5c17.115,0,34.23,0,51.346,0
					C427.366,294.85,427.366,292.35,425.753,292.35L425.753,292.35z"/>
			</g>
		</g>
		<g>
			<g>
				<path fill="#2C9345" d="M367.914,292.35c-10.976,0-21.95,0-32.926,0c-1.612,0-1.612,2.5,0,2.5c10.976,0,21.95,0,32.926,0
					C369.526,294.85,369.526,292.35,367.914,292.35L367.914,292.35z"/>
			</g>
		</g>
	</g>
	<g>
		<g>
			<path fill="#3C5A99" d="M121.428,301.711c-7.853-0.756-26.286-0.321-20.967,12.185c1.079,2.537,4.826,3.938,7.132,4.906
				c4.929,2.069,10.104,3.524,15.262,4.893c30.475,8.091,62.017,12.693,93.157,17.397c8.345,1.26,16.697,2.488,25.061,3.62
				c2.364,0.32,3.384-3.293,0.997-3.615c-22.102-2.991-44.154-6.438-66.125-10.267c-15.875-2.766-31.747-5.729-47.404-9.559
				c-5.73-1.401-11.452-2.932-17.006-4.932c-2.291-0.825-6.636-2.054-7.836-4.337c-4.03-7.669,13.799-6.92,17.729-6.542
				C123.835,305.692,123.813,301.94,121.428,301.711L121.428,301.711z"/>
		</g>
	</g>
	<g>
		<g>
			<path fill="#007AB9" d="M448.234,401.188c7.854,0.756,26.285,0.32,20.967-12.187c-1.06-2.49-4.682-3.988-6.925-5.041
				c-4.759-2.233-9.794-3.895-14.795-5.485c-30.143-9.591-61.476-15.861-92.422-22.236c-9.668-1.991-19.347-3.941-29.046-5.778
				c-2.362-0.448-3.371,3.166-0.996,3.615c21.551,4.082,43.035,8.572,64.436,13.378c15.951,3.581,31.877,7.354,47.607,11.817
				c6.073,1.724,12.123,3.567,18.045,5.761c3.386,1.255,7.386,2.586,10.156,5.005c4.588,4.007-2.583,6.698-5.745,7.233
				c-3.659,0.619-7.594,0.523-11.282,0.168C445.827,397.206,445.849,400.958,448.234,401.188L448.234,401.188z"/>
		</g>
	</g>
	<g>
		<g>
			<path fill="#60FC7C" d="M324.191,112.425c0.757-7.854,0.322-26.286-12.185-20.967c-4.479,1.905-5.583,12.356-6.416,16.229
				c-5.978,27.782-8.369,56.522-11.178,84.753c-3.617,36.369-6.646,72.812-9.155,109.274c-0.166,2.415,3.585,2.399,3.75,0
				c3.409-49.525,7.476-99.091,13.408-148.381c1.999-16.608,3.871-33.519,7.98-49.77c0.607-2.404,1.864-8.002,3.503-8.867
				c7.665-4.045,6.92,13.809,6.542,17.729C320.209,114.833,323.961,114.81,324.191,112.425L324.191,112.425z"/>
		</g>
	</g>
	<g>
		<g>
			<path fill="#F14336" d="M239.383,562.908c-0.756,7.854-0.321,26.285,12.186,20.967c4.729-2.012,5.983-13.051,6.902-17.146
				c6.418-28.596,9.202-58.193,12.379-87.281c3.363-30.8,6.305-61.658,8.796-92.541c0.194-2.412-3.557-2.394-3.75,0
				c-4.063,50.366-8.657,100.88-16.091,150.869c-1.873,12.594-3.566,25.642-7.557,37.783c-0.881,2.681-2.811,8.164-6.558,4.933
				c-3.981-3.435-3.012-12.87-2.558-17.583C243.365,560.501,239.612,560.523,239.383,562.908L239.383,562.908z"/>
		</g>
	</g>
	<g>
		<path fill="#FFFFFF" d="M325.515,352.268c0,6.787-39.604,34.639-47.744,34.639s-36.2-36.512-36.2-44.002
			c0-7.488,40.178-41.189,45.561-41.189S325.515,345.479,325.515,352.268z"/>
		<g>
			<path fill="#3EBB64" d="M323.64,352.268c-0.14,1.831-2.683,3.907-3.851,5.102c-2.804,2.868-5.936,5.426-9.069,7.919
				c-7.05,5.609-14.581,10.723-22.398,15.201c-4.651,2.665-9.266,6.126-14.173,2.754c-6.607-4.541-11.963-11.507-16.891-17.72
				c-4.851-6.115-10.03-12.816-13.085-20.065c-2.014-4.778,3.45-9.103,6.452-12.288c5.929-6.293,12.484-12.026,19.147-17.522
				c5.111-4.217,10.501-8.843,16.51-11.757c2.052-0.995,5.458,3.608,6.835,5.062c4.521,4.772,8.636,9.954,12.636,15.165
				c4.146,5.4,8.117,10.945,11.83,16.653C319.56,343.808,323.433,348.467,323.64,352.268c0.131,2.404,3.882,2.418,3.75,0
				c-0.257-4.703-4.138-9.609-6.568-13.39c-4.53-7.048-9.55-13.789-14.719-20.377c-4.37-5.57-8.889-11.27-14.19-15.994
				c-3.069-2.734-5.193-3.164-8.811-1.188c-6.044,3.303-11.502,7.981-16.791,12.344c-6.631,5.469-13.06,11.252-18.957,17.512
				c-2.747,2.915-7.866,7.604-7.641,12.067c0.279,5.553,5.224,11.563,8.2,15.905c6.068,8.851,12.979,17.563,21.026,24.699
				c2.222,1.97,4.944,4.327,7.972,4.845c2.727,0.466,5.669-1.101,8.055-2.208c9.547-4.431,18.456-10.82,26.741-17.246
				c3.928-3.046,7.786-6.202,11.265-9.761c1.898-1.941,4.201-4.361,4.418-7.21C327.574,349.854,323.823,349.872,323.64,352.268z"/>
		</g>
	</g>
	<path fill="#3EBB64" stroke="#3EBB64" stroke-miterlimit="10" d="M291.265,352.07c-2.5,0-4.729,1.189-6.152,3.031l-11.939-6.67
		c0.281-0.801,0.436-1.668,0.436-2.561c0-0.902-0.154-1.76-0.443-2.572l11.928-6.658c1.418,1.848,3.654,3.049,6.162,3.049
		c4.279,0,7.77-3.482,7.77-7.77c0-4.285-3.482-7.768-7.77-7.768c-4.285,0-7.768,3.482-7.768,7.768c0,0.904,0.152,1.77,0.441,2.572
		l-11.92,6.66c-1.416-1.859-3.654-3.051-6.162-3.051c-4.277,0-7.77,3.484-7.77,7.77s3.492,7.77,7.779,7.77
		c2.508,0,4.746-1.201,6.172-3.059l11.928,6.668c-0.289,0.811-0.451,1.688-0.451,2.588c0,4.277,3.484,7.77,7.77,7.77
		s7.77-3.482,7.77-7.77C299.044,355.553,295.552,352.07,291.265,352.07z"/>
	<path fill="#3EBB64" stroke="#3EBB64" stroke-miterlimit="10" d="M291.265,326.598c2.941,0,5.334,2.391,5.334,5.332
		s-2.393,5.332-5.334,5.332s-5.332-2.391-5.332-5.332S288.332,326.598,291.265,326.598z"/>
	<path fill="#3EBB64" stroke="#3EBB64" stroke-miterlimit="10" d="M265.857,351.205c-2.941,0-5.334-2.393-5.334-5.334
		s2.393-5.334,5.334-5.334s5.332,2.393,5.332,5.334S268.791,351.205,265.857,351.205z"/>
	<path fill="#3EBB64" stroke="#3EBB64" stroke-miterlimit="10" d="M291.265,365.162c-2.941,0-5.332-2.391-5.332-5.332
		c0-2.943,2.391-5.334,5.332-5.334s5.334,2.391,5.334,5.334C296.599,362.771,294.207,365.162,291.265,365.162z"/>
	<g>
		<g>
			<path fill="#007AB9" d="M468.439,394.398c4.369-0.104,8.738-0.208,13.107-0.313c2.414-0.058,2.42-3.808,0-3.75
				c-4.369,0.104-8.738,0.208-13.107,0.313C466.025,390.706,466.019,394.456,468.439,394.398L468.439,394.398z"/>
		</g>
	</g>
	<g>
		<g>
			<path fill="#3C5A99" d="M88.349,312.951c4.369-0.104,8.738-0.208,13.107-0.313c2.414-0.058,2.419-3.808,0-3.75
				c-4.369,0.104-8.738,0.208-13.107,0.313C85.935,309.259,85.929,313.009,88.349,312.951L88.349,312.951z"/>
		</g>
	</g>
	<g>
		<g>
			<path fill="#60FC7C" d="M318.498,90.449c-0.104-4.369-0.208-8.738-0.313-13.106c-0.058-2.414-3.808-2.419-3.75,0
				c0.104,4.369,0.208,8.738,0.313,13.106C314.805,92.863,318.555,92.868,318.498,90.449L318.498,90.449z"/>
		</g>
	</g>
	<g>
		<g>
			<path fill="#F14336" d="M249.299,596.689c-0.104-4.369-0.208-8.738-0.313-13.107c-0.058-2.414-3.808-2.42-3.75,0
				c0.104,4.369,0.208,8.738,0.313,13.107C245.606,599.104,249.356,599.109,249.299,596.689L249.299,596.689z"/>
		</g>
	</g>
	<g>
		<circle fill="#FFFFFF" cx="316.154" cy="48.945" r="28.086"/>
		<g>
			<path fill="#60FC7C" d="M342.365,48.945c-0.356,14.552-11.658,25.854-26.211,26.211c-14.55,0.357-25.867-12.197-26.211-26.211
				c-0.356-14.55,12.197-25.867,26.211-26.211C330.705,22.377,342.021,34.931,342.365,48.945c0.06,2.414,3.81,2.419,3.75,0
				c-0.407-16.613-13.348-29.554-29.961-29.961c-16.61-0.407-29.568,13.96-29.961,29.961c-0.407,16.61,13.961,29.568,29.961,29.961
				c16.611,0.407,29.568-13.96,29.961-29.961C346.174,46.525,342.424,46.531,342.365,48.945z"/>
		</g>
	</g>
	<g>
		<circle fill="#FFFFFF" cx="510.402" cy="392.039" r="28.086"/>
		<g>
			<path fill="#007AB9" d="M536.613,392.039c-0.356,14.552-11.659,25.853-26.211,26.209c-14.55,0.356-25.867-12.194-26.211-26.209
				c-0.356-14.551,12.196-25.867,26.211-26.211C524.953,365.472,536.269,378.024,536.613,392.039c0.06,2.414,3.81,2.42,3.75,0
				c-0.407-16.613-13.348-29.554-29.961-29.961c-16.611-0.407-29.568,13.959-29.961,29.961
				c-0.407,16.611,13.961,29.566,29.961,29.959c16.61,0.407,29.568-13.958,29.961-29.959
				C540.422,389.619,536.672,389.625,536.613,392.039z"/>
		</g>
	</g>
	<g>
		<circle fill="#FFFFFF" cx="59.651" cy="311.064" r="28.085"/>
		<g>
			<path fill="#3C5A99" d="M85.861,311.064c-0.357,14.552-11.659,25.853-26.21,26.209c-14.55,0.356-25.867-12.195-26.211-26.209
				c-0.357-14.551,12.196-25.868,26.211-26.211C74.202,284.496,85.518,297.05,85.861,311.064c0.059,2.414,3.809,2.42,3.75,0
				c-0.407-16.613-13.346-29.554-29.96-29.961c-16.612-0.407-29.568,13.96-29.961,29.961c-0.407,16.611,13.96,29.566,29.961,29.959
				c16.61,0.407,29.567-13.959,29.96-29.959C89.67,308.645,85.92,308.65,85.861,311.064z"/>
		</g>
	</g>
	<g>
		<circle fill="#FFFFFF" cx="247.345" cy="626.568" r="28.086"/>
		<g>
			<path fill="#F14336" d="M273.556,626.568c-0.356,14.553-11.659,25.854-26.211,26.211c-14.551,0.356-25.867-12.196-26.211-26.211
				c-0.357-14.551,12.197-25.867,26.211-26.211C261.895,600.001,273.212,612.554,273.556,626.568c0.06,2.414,3.81,2.42,3.75,0
				c-0.407-16.613-13.349-29.554-29.961-29.961c-16.611-0.407-29.568,13.96-29.961,29.961c-0.407,16.611,13.96,29.568,29.961,29.961
				c16.611,0.407,29.569-13.96,29.961-29.961C277.366,624.148,273.616,624.154,273.556,626.568z"/>
		</g>
	</g>
	<g>
		<g>
			<path fill="#007AB9" d="M497.484,404.668h5.379v-21.51h-5.379V404.668z M518.998,383.158c-4.605,0.076-6.869,3.432-7.172,3.586
				v-3.586h-5.377v21.51h5.377v-12.547c0-0.461,1.135-4.146,5.379-3.586c2.281,0.148,3.508,3.162,3.586,3.586v12.547l5.355,0.025
				v-14.893C525.958,387.652,524.882,383.234,518.998,383.158z M500.173,375.986c-1.482,0-2.689,1.203-2.689,2.689
				s1.207,2.689,2.689,2.689c1.486,0,2.689-1.203,2.689-2.689S501.66,375.986,500.173,375.986z"/>
		</g>
	</g>
	<g>
		<path fill="#3C5A99" d="M68.169,292l-4.88-0.01c-5.483,0-9.028,3.637-9.028,9.264v4.27h-4.907c-0.423,0-0.767,0.344-0.767,0.768
			v6.188c0,0.426,0.344,0.768,0.767,0.768h4.907v15.613c0,0.426,0.344,0.77,0.769,0.77h6.402c0.425,0,0.767-0.346,0.767-0.77
			v-15.613h5.738c0.426,0,0.768-0.342,0.768-0.768l0.004-6.188c0-0.203-0.082-0.396-0.226-0.541
			c-0.145-0.145-0.34-0.227-0.543-0.227h-5.741v-3.619c0-1.74,0.414-2.623,2.683-2.623l3.287-0.002c0.425,0,0.769-0.344,0.769-0.768
			v-5.746C68.937,292.342,68.593,292,68.169,292z"/>
	</g>
	<g>
		<g>
			<path fill="#60FC7C" d="M316.322,69.923c-11.508,0-20.871-9.362-20.871-20.869c0-11.509,9.363-20.87,20.871-20.87
				s20.869,9.361,20.869,20.87C337.191,60.561,327.83,69.923,316.322,69.923z"/>
		</g>
		<g>
			<g>
				<path fill-rule="evenodd" clip-rule="evenodd" fill="#FFFFFF" d="M317.304,35.469c-6.947,0-12.6,5.652-12.6,12.6
					c0,2.443,0.695,4.791,2.014,6.829l-1.914,4.216c-0.178,0.389-0.113,0.844,0.166,1.169c0.211,0.249,0.518,0.386,0.836,0.386
					c0.096,0,0.193-0.012,0.291-0.038l5.273-1.447c1.822,0.974,3.863,1.485,5.934,1.485c6.951,0,12.604-5.651,12.604-12.6
					C329.908,41.122,324.255,35.469,317.304,35.469z M317.304,58.467c-1.838,0-3.65-0.489-5.234-1.415
					c-0.17-0.1-0.363-0.15-0.555-0.15c-0.098,0-0.195,0.014-0.293,0.04l-3.443,0.945l1.199-2.645
					c0.164-0.359,0.121-0.777-0.109-1.099c-1.283-1.778-1.963-3.88-1.963-6.075c0-5.734,4.666-10.4,10.398-10.4
					c5.736,0,10.4,4.666,10.4,10.4S323.041,58.467,317.304,58.467z"/>
			</g>
			<g>
				<path fill-rule="evenodd" clip-rule="evenodd" fill="#FFFFFF" d="M322.152,49.957c-0.529-0.316-1.215-0.669-1.836-0.414
					c-0.479,0.195-0.783,0.941-1.092,1.322c-0.158,0.195-0.348,0.227-0.592,0.128c-1.789-0.712-3.164-1.907-4.148-3.555
					c-0.17-0.255-0.139-0.457,0.063-0.694c0.299-0.353,0.674-0.75,0.756-1.225c0.078-0.474-0.143-1.027-0.338-1.448
					c-0.25-0.539-0.531-1.308-1.07-1.612c-0.496-0.28-1.15-0.123-1.592,0.236c-0.762,0.622-1.131,1.595-1.119,2.561
					c0.002,0.273,0.037,0.547,0.102,0.812c0.154,0.637,0.445,1.231,0.777,1.796c0.25,0.426,0.52,0.839,0.814,1.237
					c0.957,1.301,2.15,2.431,3.527,3.275c0.689,0.423,1.432,0.793,2.201,1.047c0.863,0.284,1.631,0.581,2.559,0.405
					c0.977-0.186,1.938-0.789,2.324-1.729c0.117-0.278,0.172-0.588,0.107-0.881C323.462,50.611,322.64,50.25,322.152,49.957z"/>
			</g>
		</g>
	</g>
	<g>
		<polygon fill="#E0E0E0" points="261.566,618.445 259.57,638.488 235.596,638.488 233.988,618.834 247.582,626.443 		"/>
		<polygon fill="#E0E0E0" points="260.888,614.67 247.582,627.168 234.276,614.67 247.582,614.67 		"/>
	</g>
	<path fill="#F14336" d="M235.596,620.441v18.047h-2.172c-0.814,0-1.475-0.66-1.475-1.475v-19.23l2.383,0.066L235.596,620.441z"/>
	<path fill="#D32E2A" d="M263.216,617.783v19.23c0,0.814-0.662,1.475-1.475,1.475h-2.172v-18.047l1.203-2.842L263.216,617.783z"/>
	<path fill="#F14336" d="M263.216,616.145v1.639l-3.646,2.658l-11.988,8.736l-11.986-8.736l-3.646-2.658v-1.639
		c0-0.814,0.66-1.475,1.475-1.475h0.853l13.306,9.697l13.306-9.697h0.854C262.554,614.67,263.216,615.33,263.216,616.145z"/>
	<polygon fill="#D32E2A" points="235.596,620.441 231.949,619.875 231.949,617.783 	"/>
</g>
</svg>
