<?xml version="1.0" encoding="utf-8"?>
<!-- Generator: Adobe Illustrator 16.0.0, SVG Export Plug-In . SVG Version: 6.00 Build 0)  -->
<!DOCTYPE svg PUBLIC "-//W3C//DTD SVG 1.1//EN" "http://www.w3.org/Graphics/SVG/1.1/DTD/svg11.dtd">
<svg version="1.1" id="MainPageIcons" xmlns="http://www.w3.org/2000/svg" xmlns:xlink="http://www.w3.org/1999/xlink" x="0px"
	 y="0px" width="588.889px" height="607.407px" viewBox="0 0 588.889 607.407" enable-background="new 0 0 588.889 607.407"
	 xml:space="preserve">
<g>
	<g>
		<g>
			<path fill="#2C9345" d="M391.365,191.071c14.495-50.27-2.113-108.6-41.779-142.917c-17.338-15-38.921-24.64-61.593-27.813
				c-22.906-3.206-48.597-0.181-68.299,12.571c-17.975,11.633-30.627,34.015-22.259,55.13c3.726,9.401,10.366,17.415,16.229,25.533
				c6.907,9.562,12.81,19.56,15.202,31.244c2.746,13.408-1.237,26.43-13.278,33.612c-8.893,5.305-19.33,7.593-26.525,15.502
				c-12.95,14.235-8.633,34.879,1.998,48.765c11.461,14.97,28.903,25.507,46.329,32.081c18.874,7.12,39.86,6.769,59.316,2.326
				C339.935,267.234,378.402,233.809,391.365,191.071c0.704-2.32-2.916-3.305-3.615-0.997
				c-13.945,45.972-57.91,79.988-105.101,85.719c-21.244,2.58-41.229-1.633-59.89-11.873c-16.705-9.166-35.994-24.522-37.963-44.939
				c-1.043-10.813,4.14-21.812,13.225-27.674c8.755-5.649,19.221-7.803,26.877-15.234c16.95-16.451,6.037-43.798-4.96-60.071
				c-5.896-8.724-12.819-16.774-17.62-26.201c-5.623-11.044-4.761-22.495,0.761-33.394c12.472-24.617,41.667-32.872,67.277-33.397
				c36.56-0.75,70.918,17.078,93.475,45.422c26.508,33.31,35.679,80.859,23.92,121.642
				C387.078,192.403,390.697,193.39,391.365,191.071z"/>
		</g>
	</g>
	<g>
		<path fill="#FF3B53" d="M224.202,48.711c-5.514,9.992-3.943,23.634,8.354,31.137c9.451,5.768,24.141,0.329,30.717-8.195
			c10.232-13.263-0.545-34.585-17.182-35.184C235.977,36.104,228.215,41.442,224.202,48.711z"/>
	</g>
	<g>
		<path fill="#FFA645" d="M282.293,52.349c-5.516,9.991-3.945,23.633,8.352,31.136c9.449,5.767,24.139,0.328,30.717-8.195
			c10.23-13.263-0.547-34.583-17.182-35.183C294.065,39.743,286.305,45.081,282.293,52.349z"/>
	</g>
	<g>
		<path fill="#3BFF60" d="M324.083,90.778c-5.514,9.991-3.943,23.634,8.354,31.137c9.449,5.767,24.139,0.328,30.717-8.195
			c10.229-13.263-0.547-34.583-17.184-35.183C335.858,78.173,328.094,83.51,324.083,90.778z"/>
	</g>
	<path fill="#EE383B" d="M338.958,146.169c-5.516,9.992-3.945,23.632,8.354,31.136c9.449,5.767,24.139,0.329,30.713-8.195
		c10.234-13.263-0.545-34.583-17.178-35.182C350.731,133.563,342.969,138.9,338.958,146.169z"/>
	<path fill="#F8C414" d="M318.102,201.07c-5.514,9.991-3.943,23.633,8.352,31.136c9.451,5.767,24.141,0.329,30.717-8.195
		c10.232-13.262-0.545-34.583-17.182-35.183C329.877,188.464,322.114,193.8,318.102,201.07z"/>
	<path fill="#9B4D9D" d="M268.43,229.3c-5.514,9.992-3.943,23.633,8.352,31.137c9.451,5.768,24.139,0.328,30.715-8.195
		c10.232-13.263-0.545-34.583-17.182-35.182C280.206,216.694,272.442,222.031,268.43,229.3z"/>
	<path fill="#372C3C" d="M210.667,214.832c-5.514,9.991-3.944,23.632,8.353,31.136c9.451,5.766,24.141,0.328,30.719-8.195
		c10.23-13.263-0.547-34.584-17.184-35.184C222.444,202.227,214.68,207.563,210.667,214.832z"/>
	<g>
		<g>
			<path fill="#2C9345" d="M289.105,111.241c18.323,12.534,29.498,38.014,19.165,59.107c-4.021,8.208-11.822,13.54-20.081,16.872
				c-8.815,3.557-20.581,6.976-29.707,3.01c-11.493-4.995-7.731-16.682-5.501-26.024c2.743-11.492,2.208-22.981-0.703-34.37
				c-2.323-9.09-10.587-21.61,2.682-25.963C266.25,100.169,279.692,105.202,289.105,111.241c2.042,1.31,3.921-1.937,1.893-3.238
				c-9.746-6.253-21.383-10.141-33.077-8.51c-9.641,1.345-16.022,7.455-13.765,17.411c1.208,5.331,3.604,10.397,4.962,15.714
				c1.904,7.45,2.394,15.053,1.632,22.689c-1.078,10.812-7.948,21.846-1.345,32.095c5.01,7.775,15.178,9.077,23.548,7.796
				c9.914-1.517,20.055-4.859,28.184-10.843c18.097-13.322,17.739-38.837,7.786-57.02c-4.267-7.795-10.629-14.34-17.926-19.332
				C288.996,106.634,287.123,109.885,289.105,111.241z"/>
		</g>
	</g>
	<g>
		<g>
			<path fill="#2C9345" d="M485.381,92.314c-28.483,28.821-56.967,57.642-85.451,86.463
				c-40.595,41.076-81.19,82.151-121.785,123.228c-4.621,4.676-9.243,9.353-13.865,14.028c-0.692,0.702-0.758,1.96,0,2.652
				c13.619,12.418,27.237,24.836,40.855,37.255c0.755,0.688,1.904,0.746,2.652,0c28.76-28.728,57.521-57.454,86.281-86.182
				c40.585-40.538,81.17-81.075,121.754-121.612c4.314-4.309,8.628-8.618,12.942-12.927c0.72-0.719,0.726-1.934,0-2.651
				c-13.577-13.418-27.154-26.836-40.731-40.254c-1.722-1.701-4.374,0.95-2.652,2.651c13.577,13.418,27.154,26.836,40.731,40.254
				c0-0.884,0-1.768,0-2.651c-28.761,28.727-57.521,57.454-86.281,86.181c-40.585,40.538-81.17,81.075-121.754,121.613
				c-4.314,4.309-8.628,8.617-12.942,12.926c0.884,0,1.769,0,2.652,0c-13.619-12.418-27.237-24.836-40.855-37.255
				c0,0.884,0,1.769,0,2.652c28.483-28.821,56.967-57.643,85.451-86.464c40.595-41.076,81.19-82.151,121.785-123.227
				c4.621-4.676,9.243-9.353,13.865-14.029C489.734,93.245,487.083,90.592,485.381,92.314z"/>
		</g>
	</g>
	<g>
		<g>
			<path fill="#2C9345" d="M467.524,115.715c0.764-0.772,1.527-1.545,2.292-2.318c-0.884,0-1.769,0-2.652,0
				c2.602,2.571,5.203,5.143,7.805,7.713c0-0.884,0-1.768,0-2.651c-0.763,0.773-1.525,1.547-2.289,2.32c0.884,0,1.769,0,2.652,0
				c-2.603-2.572-5.205-5.144-7.808-7.715c-1.722-1.701-4.374,0.95-2.652,2.651c2.603,2.572,5.205,5.144,7.808,7.715
				c0.724,0.714,1.932,0.73,2.652,0c0.763-0.773,1.525-1.547,2.289-2.32c0.714-0.724,0.729-1.93,0-2.651
				c-2.602-2.571-5.203-5.143-7.805-7.713c-0.724-0.715-1.931-0.73-2.652,0c-0.764,0.772-1.527,1.545-2.292,2.318
				C463.17,114.785,465.822,117.437,467.524,115.715z"/>
		</g>
	</g>
	<g>
		<g>
			<path fill="#2C9345" d="M445.756,137.742c0.764-0.773,1.527-1.546,2.291-2.319c-0.884,0-1.769,0-2.652,0
				c2.603,2.571,5.204,5.143,7.806,7.714c0-0.884,0-1.768,0-2.651c-0.764,0.773-1.527,1.546-2.292,2.319c0.884,0,1.769,0,2.652,0
				c-2.602-2.572-5.203-5.143-7.805-7.714c-1.721-1.701-4.374,0.95-2.652,2.651c2.602,2.572,5.203,5.143,7.805,7.714
				c0.724,0.715,1.931,0.73,2.652,0c0.764-0.773,1.527-1.546,2.292-2.319c0.715-0.723,0.729-1.93,0-2.651
				c-2.603-2.571-5.204-5.143-7.806-7.714c-0.724-0.715-1.931-0.73-2.652,0c-0.764,0.773-1.527,1.546-2.291,2.319
				C441.404,136.812,444.054,139.464,445.756,137.742z"/>
		</g>
	</g>
	<g>
		<g>
			<path fill="#2C9345" d="M423.99,159.768c0.764-0.773,1.527-1.546,2.291-2.319c-0.884,0-1.769,0-2.652,0
				c2.603,2.572,5.205,5.143,7.807,7.714c0-0.884,0-1.768,0-2.651c-0.764,0.773-1.527,1.546-2.292,2.319c0.884,0,1.769,0,2.652,0
				c-2.603-2.571-5.204-5.143-7.806-7.714c-1.722-1.701-4.374,0.95-2.652,2.651c2.603,2.571,5.204,5.143,7.806,7.714
				c0.724,0.715,1.931,0.73,2.652,0c0.764-0.773,1.527-1.546,2.292-2.319c0.715-0.723,0.729-1.93,0-2.651
				c-2.603-2.572-5.205-5.143-7.807-7.714c-0.724-0.715-1.931-0.73-2.652,0c-0.764,0.773-1.527,1.546-2.291,2.319
				C419.637,158.837,422.288,161.49,423.99,159.768z"/>
		</g>
	</g>
	<g>
		<g>
			<path fill="#2C9345" d="M402.221,181.793c0.764-0.773,1.527-1.546,2.291-2.319c-0.884,0-1.769,0-2.652,0
				c2.603,2.572,5.205,5.143,7.807,7.714c0-0.884,0-1.768,0-2.651c-0.764,0.773-1.527,1.546-2.292,2.32c0.884,0,1.769,0,2.652,0
				c-2.603-2.572-5.204-5.144-7.806-7.715c-1.721-1.701-4.374,0.95-2.652,2.651c2.603,2.572,5.204,5.144,7.806,7.715
				c0.724,0.715,1.931,0.73,2.652,0c0.764-0.773,1.527-1.546,2.292-2.32c0.715-0.723,0.729-1.93,0-2.651
				c-2.603-2.572-5.205-5.143-7.807-7.714c-0.724-0.715-1.931-0.73-2.652,0c-0.764,0.773-1.527,1.546-2.291,2.319
				C397.869,180.863,400.519,183.515,402.221,181.793z"/>
		</g>
	</g>
	<g>
		<g>
			<path fill="#2C9345" d="M380.456,203.819c0.763-0.773,1.526-1.546,2.29-2.319c-0.884,0-1.769,0-2.652,0
				c2.602,2.572,5.203,5.144,7.805,7.715c0-0.884,0-1.768,0-2.651c-0.764,0.772-1.527,1.545-2.291,2.318c0.884,0,1.769,0,2.652,0
				c-2.602-2.571-5.203-5.143-7.804-7.714c-1.721-1.701-4.374,0.95-2.652,2.651c2.602,2.571,5.203,5.143,7.804,7.714
				c0.724,0.715,1.931,0.73,2.652,0c0.764-0.772,1.527-1.545,2.291-2.318c0.715-0.723,0.729-1.93,0-2.651
				c-2.602-2.572-5.203-5.144-7.805-7.715c-0.724-0.715-1.931-0.73-2.652,0c-0.763,0.773-1.526,1.546-2.29,2.319
				C376.104,202.889,378.754,205.542,380.456,203.819z"/>
		</g>
	</g>
	<g>
		<g>
			<path fill="#2C9345" d="M358.685,225.845c0.764-0.772,1.528-1.545,2.293-2.318c-0.884,0-1.769,0-2.652,0
				c2.602,2.571,5.203,5.143,7.805,7.714c0-0.884,0-1.768,0-2.651c-0.764,0.773-1.527,1.546-2.291,2.319c0.884,0,1.769,0,2.652,0
				c-2.603-2.572-5.205-5.143-7.807-7.714c-1.722-1.701-4.374,0.95-2.652,2.651c2.603,2.572,5.205,5.143,7.807,7.714
				c0.724,0.715,1.931,0.73,2.652,0c0.764-0.773,1.527-1.546,2.291-2.319c0.715-0.723,0.729-1.93,0-2.651
				c-2.602-2.571-5.203-5.143-7.805-7.714c-0.724-0.715-1.931-0.729-2.652,0c-0.764,0.772-1.528,1.545-2.293,2.318
				C354.332,224.914,356.982,227.566,358.685,225.845z"/>
		</g>
	</g>
	<g>
		<g>
			<path fill="#2C9345" d="M336.917,247.87c0.764-0.772,1.527-1.545,2.292-2.318c-0.884,0-1.769,0-2.652,0
				c2.603,2.572,5.204,5.143,7.806,7.714c0-0.884,0-1.768,0-2.651c-0.764,0.772-1.527,1.545-2.291,2.318c0.884,0,1.769,0,2.652,0
				c-2.603-2.572-5.205-5.143-7.807-7.714c-1.722-1.701-4.374,0.95-2.652,2.651c2.603,2.572,5.205,5.143,7.807,7.714
				c0.724,0.715,1.931,0.73,2.652,0c0.764-0.772,1.527-1.545,2.291-2.318c0.715-0.723,0.729-1.93,0-2.651
				c-2.603-2.572-5.204-5.143-7.806-7.714c-0.724-0.715-1.931-0.73-2.652,0c-0.764,0.772-1.527,1.545-2.292,2.318
				C332.564,246.939,335.215,249.591,336.917,247.87z"/>
		</g>
	</g>
	<g>
		<g>
			<path fill="#2C9345" d="M315.151,269.896c0.764-0.773,1.527-1.546,2.291-2.319c-0.884,0-1.769,0-2.652,0
				c2.602,2.572,5.203,5.144,7.805,7.715c0-0.884,0-1.768,0-2.651c-0.764,0.772-1.527,1.545-2.292,2.318c0.884,0,1.769,0,2.652,0
				c-2.602-2.572-5.203-5.143-7.804-7.714c-1.721-1.701-4.374,0.95-2.652,2.651c2.602,2.572,5.203,5.143,7.804,7.714
				c0.724,0.715,1.931,0.73,2.652,0c0.764-0.772,1.527-1.545,2.292-2.318c0.715-0.723,0.729-1.93,0-2.651
				c-2.602-2.572-5.203-5.144-7.805-7.715c-0.724-0.715-1.931-0.73-2.652,0c-0.764,0.773-1.527,1.546-2.291,2.319
				C310.798,268.966,313.449,271.618,315.151,269.896z"/>
		</g>
	</g>
	<g>
		<g>
			<path fill="#2C9345" d="M293.383,291.922c0.764-0.773,1.527-1.547,2.291-2.319c-0.884,0-1.769,0-2.652,0
				c2.603,2.571,5.204,5.143,7.806,7.714c0-0.884,0-1.769,0-2.652c-0.764,0.773-1.527,1.546-2.292,2.318c0.884,0,1.769,0,2.652,0
				c-2.602-2.57-5.203-5.142-7.805-7.713c-1.722-1.7-4.374,0.95-2.652,2.652c2.602,2.57,5.203,5.142,7.805,7.713
				c0.724,0.715,1.931,0.729,2.652,0c0.764-0.773,1.527-1.546,2.292-2.318c0.715-0.724,0.729-1.931,0-2.652
				c-2.603-2.571-5.204-5.143-7.806-7.714c-0.724-0.714-1.931-0.729-2.652,0c-0.764,0.773-1.527,1.547-2.291,2.319
				C289.031,290.991,291.682,293.644,293.383,291.922z"/>
		</g>
	</g>
	<g>
		<g>
			<path fill="#2C9345" d="M490.656,134.001c-6.737-3.441-3.099-13.341,4.277-11.299c3.323,0.92,4.549,4.682,3.717,7.687
				c-1.027,3.712-5.287,4.651-8.442,3.423c-2.256-0.878-3.225,2.749-0.996,3.616c4.905,1.909,10.188-0.174,12.572-4.84
				c2.479-4.852-0.02-10.653-4.651-13.02c-4.852-2.479-10.653,0.019-13.02,4.651c-2.479,4.852,0.018,10.653,4.65,13.02
				C490.912,138.337,492.81,135.102,490.656,134.001z"/>
		</g>
	</g>
	<g>
		<g>
			<g>
				<path fill="#2C9345" d="M318.69,305.421c-5.299-4-8.605,1.613-12.066,5.162c-5.088,5.219-10.177,10.438-15.266,15.657
					c-3.48,3.569-2.55,6.536,0.906,9.904c5.16,5.03,10.32,10.061,15.48,15.09c3.002,2.927,6.452,6.06,10.137,2.281
					c4.897-5.022,9.795-10.044,14.691-15.065c2.314-2.374,9.248-7.141,7.529-11.211c-2.145-5.081-8.576-9.38-12.409-13.117
					c-2.874-2.803-5.749-5.605-8.623-8.408c-1.732-1.688-4.386,0.962-2.652,2.652c2.085,2.032,21.147,19.593,20.139,20.628
					c-7.409,7.599-14.818,15.196-22.228,22.794c-0.283,0.29-22.997-20.15-21.497-21.688c3.952-4.053,7.904-8.106,11.856-12.16
					c2.276-2.335,4.554-4.67,6.83-7.005c1.944-1.994,2.675-4.242,5.279-2.275C318.729,310.117,320.594,306.858,318.69,305.421z"/>
			</g>
		</g>
		<g>
			<g>
				<path fill="#2C9345" d="M98.535,91.576c-5.534-1.209-11.068-2.418-16.603-3.628c-1.31-0.286-4.08-1.457-5.411-0.678
					c-2.021,1.184-3.71,3.757-5.328,5.44c-1.694,1.762-3.36,3.552-5.04,5.329c-1.157,1.223-0.044,3.64,0.284,5.001
					c1.379,5.719,2.757,11.438,4.136,17.157c0.331,1.372,2.169,1.817,3.134,0.827c8.552-8.771,17.103-17.543,25.654-26.315
					c1.688-1.731-0.961-4.385-2.651-2.651c-8.552,8.771-17.103,17.543-25.654,26.315c1.044,0.276,2.089,0.551,3.134,0.827
					c-1.188-4.926-2.375-9.852-3.563-14.778c-0.442-1.833-0.884-3.666-1.325-5.498c-0.687,1.65-0.728,2.107-0.123,1.371
					c0.507-0.537,1.015-1.073,1.522-1.61c1.015-1.073,2.03-2.146,3.045-3.219c1.526-1.613,3.077-3.203,4.616-4.803
					c0.78-0.811-2.479-0.204-0.509,0.227c1.295,0.283,2.591,0.566,3.887,0.85c5.266,1.15,10.532,2.301,15.798,3.452
					C99.895,95.707,100.897,92.092,98.535,91.576z"/>
			</g>
		</g>
		<g>
			<g>
				<path fill="#2C9345" d="M77.406,86.695C72.938,85.673,68.469,84.65,64,83.628c-1.395-0.319-2.671,0.882-2.307,2.307
					c1.135,4.439,2.27,8.879,3.405,13.319c0.348,1.362,2.159,1.827,3.134,0.827c3.334-3.417,6.667-6.834,10.001-10.251
					c1.689-1.731-0.96-4.385-2.651-2.651c-3.334,3.417-6.667,6.834-10.001,10.251c1.044,0.276,2.089,0.551,3.134,0.827
					c-1.135-4.439-2.27-8.879-3.405-13.319c-0.769,0.769-1.538,1.538-2.307,2.307c4.469,1.022,8.938,2.045,13.406,3.067
					C78.764,90.85,79.763,87.235,77.406,86.695z"/>
			</g>
		</g>
		<g>
			<g>
				<path fill="#2C9345" d="M97.345,92.566c-8.466,8.868-16.997,17.634-25.654,26.314c-0.715,0.716-0.732,1.938,0,2.651
					c29.825,29.078,59.65,58.156,89.475,87.234c39.244,38.261,78.487,76.521,117.731,114.782c2.452,2.391,4.905,4.782,7.357,7.174
					c0.725,0.706,1.932,0.738,2.652,0c8.551-8.772,17.103-17.544,25.654-26.315c0.706-0.725,0.738-1.932,0-2.652
					c-29.825-29.078-59.65-58.155-89.476-87.233C185.842,176.26,146.598,138,107.354,99.74c-2.453-2.392-4.906-4.783-7.358-7.174
					c-1.731-1.688-4.385,0.961-2.651,2.651c29.825,29.078,59.65,58.156,89.475,87.234c39.244,38.26,78.487,76.521,117.731,114.781
					c2.452,2.391,4.905,4.782,7.357,7.174c0-0.884,0-1.769,0-2.652c-8.551,8.772-17.103,17.544-25.654,26.315
					c0.884,0,1.769,0,2.652,0c-29.826-29.078-59.65-58.156-89.476-87.234c-39.244-38.261-78.487-76.521-117.731-114.782
					c-2.453-2.392-4.906-4.783-7.358-7.174c0,0.884,0,1.768,0,2.651c8.658-8.68,17.188-17.446,25.654-26.314
					C101.665,93.469,99.017,90.813,97.345,92.566z"/>
			</g>
		</g>
	</g>
	<g>
		<g>
			<g>
				<g>
					<path fill="#2C9345" d="M554.995,259.857c2.561-0.004,5.121-0.008,7.683-0.013c1.706-0.003,5.77-0.685,6.722,1.396
						c2.193,4.792,4.387,9.584,6.58,14.376c0.54-0.94,1.079-1.881,1.619-2.821c-7.525-0.403-15.052-0.805-22.577-1.208
						c0.625,0.625,1.25,1.25,1.875,1.875c-0.009-5.16-0.018-10.32-0.026-15.48c-0.004-2.418-3.754-2.418-3.75,0
						c0.009,5.16,0.018,10.32,0.026,15.48c0.002,1.063,0.854,1.82,1.875,1.875c7.525,0.403,15.052,0.805,22.577,1.208
						c1.546,0.083,2.167-1.624,1.619-2.821c-1.176-2.569-2.352-5.139-3.528-7.708c-0.967-2.112-1.792-5.581-3.449-7.276
						c-4.2-4.297-11.778-2.642-17.245-2.633C552.577,256.111,552.577,259.861,554.995,259.857z"/>
				</g>
			</g>
			<g>
				<g>
					<path fill="#2C9345" d="M506.856,241.232c0.027,15.752,0.055,31.504,0.082,47.256c0.002,1.021,0.852,1.877,1.875,1.875
						c5.196-0.009,10.394-0.018,15.59-0.026c1.06-0.002,1.825-0.854,1.875-1.875c0.334-6.851,5.057-11.03,11.725-11.375
						c6.015-0.311,12.028-0.622,18.043-0.933c1.019-0.053,1.877-0.813,1.875-1.875c-0.011-6.009-0.021-12.018-0.031-18.027
						c-0.002-1.021-0.852-1.877-1.875-1.875c-6.144,0.011-12.287,0.022-18.432,0.033c-7.47,0.013-10.172-7.186-10.9-13.694
						c-0.11-0.989-0.77-1.911-1.875-1.875c-5.358,0.172-10.718,0.344-16.076,0.516c-2.412,0.078-2.42,3.828,0,3.75
						c5.358-0.172,10.718-0.344,16.076-0.516c-0.625-0.625-1.25-1.25-1.875-1.875c0.88,7.858,4.375,17.052,13.559,17.454
						c6.479,0.284,13.037-0.031,19.523-0.042c-0.625-0.625-1.25-1.25-1.875-1.875c0.011,6.009,0.021,12.018,0.031,18.027
						c0.625-0.625,1.25-1.25,1.875-1.875c-6.922,0.358-13.88,0.529-20.786,1.119c-7.606,0.65-12.382,7.767-12.731,14.939
						c0.625-0.625,1.25-1.25,1.875-1.875c-5.196,0.009-10.394,0.018-15.59,0.026c0.625,0.625,1.25,1.25,1.875,1.875
						c-0.027-15.752-0.055-31.504-0.082-47.256C510.602,238.814,506.852,238.813,506.856,241.232z"/>
				</g>
			</g>
			<g>
				<g>
					<path fill="#2C9345" d="M508.813,286.613c-18.479-0.571-36.956-1.143-55.434-1.714c-9.915-0.307-19.83-0.613-29.745-0.92
						c-1.109-0.034-3.707-0.091-3.983-0.138c-7.641-1.28-7.891-7.85-7.895-14.318c-1.25,0-2.5,0-3.75,0
						c0.001,0.637,0.002,1.273,0.003,1.91c1.25,0,2.5,0,3.75,0c-0.016-8.617-3.287-23.974,8.923-25.212
						c7.645-0.774,15.523-0.547,23.196-0.818c21.618-0.765,43.235-1.531,64.853-2.296c-0.625-0.625-1.25-1.25-1.875-1.875
						c0.027,15.752,0.055,31.504,0.082,47.256c0.004,2.418,3.754,2.418,3.75,0c-0.027-15.752-0.055-31.504-0.082-47.256
						c-0.002-0.995-0.852-1.911-1.875-1.875c-23.302,0.825-46.604,1.65-69.905,2.475c-7.351,0.26-19.341-1.233-25.748,3.118
						c-4.372,2.969-5.563,8.741-5.289,13.688c0.205,3.697,0.213,8.157,0.221,12.795c0.004,2.418,3.754,2.418,3.75,0
						c-0.001-0.637-0.002-1.273-0.003-1.91c-0.005-2.418-3.752-2.418-3.75,0c0.004,6.335-0.137,11.953,5.497,15.907
						c2.037,1.43,4.639,2.129,7.106,2.205c9.017,0.278,18.032,0.558,27.049,0.837c20.385,0.63,40.77,1.26,61.154,1.891
						C511.233,290.438,511.225,286.688,508.813,286.613z"/>
				</g>
			</g>
		</g>
		<g>
			<g>
				<g>
					<path fill="#2C9345" d="M95.061,266.016c-4.613,8.857-13.028,14.892-23.026,15.934c-10.026,1.044-17.699-4.733-23.93-11.865
						c-4.391-5.025-8.245-11.032-14.417-14.046c-6.718-3.28-14.041-0.172-19.92,3.393c0.918,0.706,1.836,1.412,2.754,2.118
						c4.334-19.218,24.276-26.552,42.167-25.325c5.269,0.361,10.459,1.209,15.52,2.722c5.156,1.541,9.082,4.542,13.399,7.572
						c2.335,1.64,4.628,3.246,6.283,5.613c1.494,2.137,0.945,5.614,0.932,8.102c-0.012,2.243-0.016,4.486-0.016,6.729
						c0,2.418,3.75,2.418,3.75,0c0-7.829,1.311-15.295-5.257-20.876c-9.442-8.022-19.518-12.037-31.777-13.365
						c-20.283-2.197-43.664,5.877-48.615,27.832c-0.351,1.554,1.286,3.008,2.754,2.118c8.228-4.99,15.291-5.85,22.281,1.271
						c5.518,5.621,9.706,12.145,16.118,16.899c15.025,11.14,36.262,2.388,44.241-12.932
						C99.415,265.767,96.179,263.87,95.061,266.016z"/>
				</g>
			</g>
			<g>
				<g>
					<path fill="#2C9345" d="M98.542,270.279c0.003-5.25,0.007-10.501,0.011-15.751c-0.625,0.625-1.25,1.25-1.875,1.875
						c18.013-2.147,36.026-4.294,54.039-6.441c-0.625-0.625-1.25-1.25-1.875-1.875c-0.381,10.125-0.763,20.249-1.145,30.374
						c0.791-0.603,1.583-1.205,2.374-1.808c-17.635-2.727-35.27-5.454-52.905-8.181c-2.365-0.366-3.381,3.248-0.997,3.616
						c17.635,2.727,35.27,5.454,52.905,8.181c1.221,0.189,2.324-0.489,2.374-1.808c0.381-10.125,0.763-20.249,1.145-30.374
						c0.035-0.933-0.884-1.993-1.875-1.875c-18.013,2.147-36.026,4.294-54.039,6.441c-1.015,0.121-1.874,0.761-1.875,1.875
						c-0.003,5.25-0.007,10.501-0.011,15.751C94.79,272.697,98.54,272.697,98.542,270.279z"/>
				</g>
			</g>
			<g>
				<g>
					<path fill="#2C9345" d="M150.156,279.977c43.242,3.012,86.483,6.024,129.726,9.036c48.993,3.412,97.987,6.825,146.981,10.237
						c10.046,0.7,21.364-3.687,25.79-13.174c0.513-1.099,0.119-2.389-1.121-2.754c-6.929-2.042-14.059-5.09-21.26-5.885
						c-6.078-0.67-12.155-1.341-18.232-2.012c-26.105-2.881-52.211-5.763-78.316-8.645c-56.48-6.234-112.961-12.468-169.442-18.702
						c-4.313-0.476-8.625-0.952-12.938-1.428c-1.046-0.116-1.837,0.941-1.875,1.875c-0.396,9.859-0.792,19.718-1.188,29.577
						c-0.097,2.419,3.653,2.41,3.75,0c0.396-9.859,0.792-19.718,1.188-29.577c-0.625,0.625-1.25,1.25-1.875,1.875
						c42.795,4.724,85.591,9.447,128.386,14.171c49.862,5.503,99.725,11.007,149.588,16.511c0.679,0.075,1.358,0.15,2.038,0.225
						c1.071,0.118-0.285-0.106,0.594,0.152c6.195,1.826,12.391,3.652,18.587,5.479c-0.374-0.918-0.747-1.836-1.121-2.754
						c-7.37,15.799-29.009,10.867-42.722,9.912c-26.793-1.866-53.586-3.732-80.379-5.599
						c-55.479-3.864-110.958-7.729-166.436-11.593c-3.241-0.226-6.481-0.452-9.722-0.677
						C147.741,276.059,147.757,279.81,150.156,279.977z"/>
				</g>
			</g>
		</g>
	</g>
	<g>
		<g>
			<g>
				<path fill="#FFFFFF" d="M442.065,567.353c-22.7,22.701-262.687,21.914-284.599,0c-21.913-21.91-20.36-391.559,0-411.918
					c20.359-20.36,264.615-19.983,284.599,0C462.048,175.417,464.764,544.655,442.065,567.353z"/>
				<g>
					<path fill="#3EBB64" d="M440.739,566.026c-5.164,5.018-14.405,6.431-21.115,7.854c-13.053,2.77-26.4,4.175-39.68,5.324
						c-34.637,2.996-69.54,3.481-104.282,2.721c-30.685-0.672-61.917-1.877-92.161-7.484c-7.773-1.441-16.902-2.896-23.576-7.46
						c-3.518-2.406-4.611-8.219-5.61-12.312c-5.126-20.998-6.167-43.251-7.52-64.736c-2.023-32.139-2.837-64.356-3.174-96.553
						c-0.665-63.547-0.228-127.648,5.949-190.952c0.963-9.875,2.101-19.761,3.952-29.514c0.967-5.097,1.85-11.188,4.803-15.602
						c2.808-4.194,12.057-5.666,16.894-6.737c12.087-2.676,24.493-3.966,36.807-5.066c33.832-3.024,67.924-3.622,101.872-3.245
						c31.653,0.352,63.614,1.348,95.005,5.709c9.196,1.277,18.838,2.65,27.49,6.183c4.641,1.895,5.931,4.518,7.34,9.22
						c5.602,18.685,6.407,39.301,7.857,58.618c4.945,65.9,5.45,132.303,4.12,198.348c-0.609,30.259-1.69,60.556-4.278,90.718
						c-0.936,10.898-2.069,21.802-3.872,32.595c-1.083,6.484-2.181,13.462-4.985,19.472
						C442.051,564.249,441.455,565.29,440.739,566.026c-1.685,1.735,0.965,4.389,2.652,2.652c3.467-3.57,4.691-9.386,5.807-14.043
						c2.138-8.934,3.306-18.112,4.358-27.226c3.222-27.896,4.426-56.044,5.313-84.095c2.128-67.244,1.654-134.779-2.249-201.952
						c-1.338-23.02-2.738-46.343-6.97-69.05c-1.017-5.456-2.052-11.548-4.903-16.41c-2.798-4.769-9.635-6.392-14.558-7.709
						c-25.547-6.841-53.291-7.562-79.552-8.7c-35.138-1.523-70.391-1.478-105.525,0.108c-25.575,1.154-52.82,1.887-77.59,9.046
						c-4.884,1.412-10.651,3.234-13.178,8.03c-2.811,5.336-3.831,11.754-4.877,17.617c-4.149,23.255-5.474,47.103-6.769,70.652
						c-1.813,32.97-2.597,65.999-2.875,99.014c-0.289,34.354,0.044,68.722,1.202,103.059c0.931,27.614,2.22,55.313,5.44,82.77
						c1.033,8.805,2.225,17.655,4.33,26.277c1.075,4.405,2.342,10.033,5.934,13.151c5.582,4.847,14.29,6.439,21.267,7.939
						c12.621,2.714,25.535,4.15,38.375,5.344c34.424,3.199,69.136,3.857,103.688,3.303c31.059-0.499,62.526-1.701,93.203-6.914
						c9.449-1.605,22.854-3.146,30.128-10.212C445.127,566.991,442.473,564.342,440.739,566.026z"/>
				</g>
			</g>
		</g>
		<g>
			<g>
				<path fill="#FFFFFF" d="M434.576,560.8c-22.7,22.701-262.687,21.914-284.6,0c-21.912-21.912-20.36-391.559,0-411.919
					c20.359-20.36,264.615-19.983,284.6,0C454.559,168.864,457.275,538.103,434.576,560.8z"/>
				<g>
					<path fill="#3EBB64" d="M433.25,559.474c-5.164,5.018-14.405,6.431-21.115,7.854c-13.053,2.77-26.4,4.175-39.68,5.324
						c-34.637,2.996-69.54,3.481-104.282,2.721c-30.685-0.672-61.917-1.877-92.161-7.484c-7.773-1.441-16.902-2.896-23.576-7.46
						c-3.518-2.406-4.611-8.22-5.61-12.312c-5.126-20.998-6.167-43.252-7.519-64.737c-2.023-32.139-2.837-64.356-3.174-96.553
						c-0.665-63.547-0.228-127.648,5.948-190.951c0.963-9.875,2.101-19.761,3.952-29.514c0.967-5.097,1.85-11.188,4.803-15.602
						c2.808-4.194,12.057-5.666,16.894-6.737c12.087-2.676,24.493-3.966,36.807-5.066c33.832-3.024,67.924-3.622,101.872-3.245
						c31.653,0.352,63.614,1.348,95.006,5.709c9.195,1.277,18.838,2.65,27.49,6.183c4.641,1.895,5.931,4.518,7.34,9.22
						c5.602,18.685,6.407,39.301,7.857,58.618c4.944,65.9,5.45,132.304,4.12,198.348c-0.609,30.26-1.69,60.557-4.278,90.719
						c-0.936,10.898-2.069,21.802-3.872,32.595c-1.082,6.484-2.181,13.462-4.985,19.472
						C434.562,557.696,433.965,558.737,433.25,559.474c-1.685,1.735,0.965,4.389,2.652,2.652c3.467-3.57,4.691-9.386,5.807-14.043
						c2.138-8.934,3.306-18.112,4.358-27.226c3.221-27.896,4.426-56.044,5.313-84.096c2.128-67.243,1.654-134.779-2.249-201.951
						c-1.338-23.021-2.738-46.343-6.97-69.05c-1.017-5.456-2.052-11.548-4.903-16.41c-2.798-4.77-9.636-6.392-14.558-7.709
						c-25.547-6.841-53.292-7.562-79.553-8.7c-35.138-1.523-70.391-1.478-105.525,0.108c-25.575,1.154-52.82,1.887-77.59,9.046
						c-4.884,1.412-10.651,3.235-13.178,8.031c-2.811,5.336-3.831,11.754-4.877,17.617c-4.149,23.255-5.474,47.103-6.769,70.651
						c-1.813,32.97-2.597,65.999-2.875,99.014c-0.289,34.354,0.044,68.722,1.202,103.059c0.931,27.614,2.22,55.313,5.44,82.77
						c1.032,8.805,2.225,17.655,4.329,26.277c1.076,4.405,2.342,10.034,5.934,13.152c5.582,4.847,14.291,6.439,21.267,7.939
						c12.621,2.714,25.536,4.15,38.375,5.344c34.425,3.199,69.137,3.857,103.688,3.303c31.059-0.499,62.526-1.701,93.203-6.914
						c9.449-1.605,22.854-3.146,30.128-10.212C437.638,560.438,434.985,557.789,433.25,559.474z"/>
				</g>
			</g>
		</g>
		<g>
			<circle fill="#E6E7E8" cx="192.416" cy="221.903" r="22.468"/>
			<g>
				<path fill="#2C9345" d="M213.633,221.903c-0.354,11.824-9.395,20.864-21.219,21.219c-11.82,0.354-20.878-9.928-21.217-21.219
					c-0.354-11.819,9.925-20.88,21.217-21.218C204.235,200.331,213.295,210.611,213.633,221.903c0.048,1.608,2.548,1.613,2.5,0
					c-0.396-13.207-10.512-23.323-23.719-23.718c-13.202-0.396-23.339,11.108-23.717,23.718
					c-0.396,13.202,11.105,23.341,23.717,23.719c13.203,0.396,23.341-11.107,23.719-23.719
					C216.182,220.29,213.682,220.295,213.633,221.903z"/>
			</g>
		</g>
		<g>
			<g>
				<path fill="#2C9345" d="M226.119,212.542c22.468,0,44.937,0,67.405,0c1.612,0,1.612-2.5,0-2.5c-22.469,0-44.937,0-67.405,0
					C224.506,210.042,224.506,212.542,226.119,212.542L226.119,212.542z"/>
			</g>
		</g>
		<g>
			<g>
				<path fill="#2C9345" d="M226.12,228.146c17.668,0,35.337,0,53.005,0c1.612,0,1.612-2.5,0-2.5c-17.668,0-35.336,0-53.005,0
					C224.507,225.646,224.507,228.146,226.12,228.146L226.12,228.146z"/>
			</g>
		</g>
		<g>
			<g>
				<path fill="#2C9345" d="M323.029,308.032c36.771,0,73.542,0,110.313,0c1.612,0,1.612-2.5,0-2.5c-36.771,0-73.542,0-110.313,0
					C321.417,305.532,321.417,308.032,323.029,308.032L323.029,308.032z"/>
			</g>
		</g>
		<g>
			<g>
				<path fill="#2C9345" d="M165.868,269.337c37.738,0,75.475,0,113.213,0c1.612,0,1.612-2.5,0-2.5c-37.738,0-75.475,0-113.213,0
					C164.255,266.837,164.255,269.337,165.868,269.337L165.868,269.337z"/>
			</g>
		</g>
		<g>
			<g>
				<path fill="#2C9345" d="M165.868,405.085c31.522,0,63.045,0,94.567,0c1.612,0,1.612-2.5,0-2.5c-31.522,0-63.045,0-94.567,0
					C164.255,402.585,164.255,405.085,165.868,405.085L165.868,405.085z"/>
			</g>
		</g>
		<g>
			<g>
				<path fill="#2C9345" d="M165.868,414.446c25.983,0,51.965,0,77.948,0c1.612,0,1.612-2.5,0-2.5c-25.983,0-51.965,0-77.948,0
					C164.255,411.946,164.255,414.446,165.868,414.446L165.868,414.446z"/>
			</g>
		</g>
		<g>
			<g>
				<path fill="#2C9345" d="M165.868,423.808c25.983,0,51.965,0,77.948,0c1.612,0,1.612-2.5,0-2.5c-25.983,0-51.965,0-77.948,0
					C164.255,421.308,164.255,423.808,165.868,423.808L165.868,423.808z"/>
			</g>
		</g>
		<g>
			<g>
				<path fill="#2C9345" d="M165.868,511.751c31.522,0,63.045,0,94.567,0c1.612,0,1.612-2.5,0-2.5c-31.522,0-63.045,0-94.567,0
					C164.255,509.251,164.255,511.751,165.868,511.751L165.868,511.751z"/>
			</g>
		</g>
		<g>
			<g>
				<path fill="#2C9345" d="M165.868,521.114c25.983,0,51.965,0,77.948,0c1.612,0,1.612-2.5,0-2.5c-25.983,0-51.965,0-77.948,0
					C164.255,518.614,164.255,521.114,165.868,521.114L165.868,521.114z"/>
			</g>
		</g>
		<g>
			<g>
				<path fill="#2C9345" d="M165.868,530.476c25.983,0,51.965,0,77.948,0c1.612,0,1.612-2.5,0-2.5c-25.983,0-51.965,0-77.948,0
					C164.255,527.976,164.255,530.476,165.868,530.476L165.868,530.476z"/>
			</g>
		</g>
		<g>
			<g>
				<path fill="#2C9345" d="M165.868,459.853c30.159,0,60.318,0,90.478,0c1.612,0,1.612-2.5,0-2.5c-30.159,0-60.318,0-90.478,0
					C164.255,457.353,164.255,459.853,165.868,459.853L165.868,459.853z"/>
			</g>
		</g>
		<g>
			<g>
				<path fill="#2C9345" d="M165.868,471.554c25.478,0,50.955,0,76.433,0c1.612,0,1.612-2.5,0-2.5c-25.478,0-50.955,0-76.433,0
					C164.255,469.054,164.255,471.554,165.868,471.554L165.868,471.554z"/>
			</g>
		</g>
		<g>
			<g>
				<path fill="#2C9345" d="M165.868,480.915c32.25,0,64.5,0,96.749,0c1.612,0,1.612-2.5,0-2.5c-32.25,0-64.5,0-96.749,0
					C164.255,478.415,164.255,480.915,165.868,480.915L165.868,480.915z"/>
			</g>
		</g>
		<g>
			<g>
				<path fill="#2C9345" d="M165.868,316.659c23.302,0,46.604,0,69.906,0c1.612,0,1.612-2.5,0-2.5c-23.302,0-46.604,0-69.906,0
					C164.255,314.159,164.255,316.659,165.868,316.659L165.868,316.659z"/>
			</g>
		</g>
		<g>
			<g>
				<path fill="#2C9345" d="M165.868,326.021c35.808,0,71.616,0,107.424,0c1.612,0,1.612-2.5,0-2.5c-35.808,0-71.616,0-107.424,0
					C164.255,323.521,164.255,326.021,165.868,326.021L165.868,326.021z"/>
			</g>
		</g>
		<g>
			<g>
				<path fill="#2C9345" d="M323.029,242.986c21.086,0,42.171,0,63.257,0c1.612,0,1.612-2.5,0-2.5c-21.086,0-42.171,0-63.257,0
					C321.417,240.486,321.417,242.986,323.029,242.986L323.029,242.986z"/>
			</g>
		</g>
		<g>
			<g>
				<path fill="#2C9345" d="M323.029,250.319c27.293,0,54.585,0,81.878,0c1.612,0,1.612-2.5,0-2.5c-27.293,0-54.585,0-81.878,0
					C321.417,247.819,321.417,250.319,323.029,250.319L323.029,250.319z"/>
			</g>
		</g>
		<g>
			<g>
				<path fill="#2C9345" d="M165.868,336.319c15.184,0,30.368,0,45.552,0c1.612,0,1.612-2.5,0-2.5c-15.184,0-30.368,0-45.552,0
					C164.255,333.819,164.255,336.319,165.868,336.319L165.868,336.319z"/>
			</g>
		</g>
		<g>
			<g>
				<path fill="#2C9345" d="M165.868,277.451c17.115,0,34.23,0,51.346,0c1.612,0,1.612-2.5,0-2.5c-17.115,0-34.23,0-51.346,0
					C164.255,274.951,164.255,277.451,165.868,277.451L165.868,277.451z"/>
			</g>
		</g>
		<g>
			<g>
				<path fill="#2C9345" d="M222.869,277.451c17.115,0,34.23,0,51.346,0c1.612,0,1.612-2.5,0-2.5c-17.115,0-34.23,0-51.346,0
					C221.256,274.951,221.256,277.451,222.869,277.451L222.869,277.451z"/>
			</g>
		</g>
		<g>
			<g>
				<path fill="#2C9345" d="M436.241,321.76c-37.737,0-75.475,0-113.212,0c-1.612,0-1.612,2.5,0,2.5c37.737,0,75.475,0,113.212,0
					C437.853,324.26,437.853,321.76,436.241,321.76L436.241,321.76z"/>
			</g>
		</g>
		<g>
			<g>
				<path fill="#2C9345" d="M413.375,313.646c-17.115,0-34.23,0-51.346,0c-1.612,0-1.612,2.5,0,2.5c17.115,0,34.23,0,51.346,0
					C414.987,316.146,414.987,313.646,413.375,313.646L413.375,313.646z"/>
			</g>
		</g>
		<g>
			<g>
				<path fill="#2C9345" d="M355.955,313.646c-10.976,0-21.95,0-32.926,0c-1.612,0-1.612,2.5,0,2.5c10.976,0,21.95,0,32.926,0
					C357.567,316.146,357.567,313.646,355.955,313.646L355.955,313.646z"/>
			</g>
		</g>
		<g>
			<circle fill="none" stroke="#2C9345" stroke-width="2" stroke-miterlimit="10" cx="181.297" cy="367.212" r="15.333"/>
			<path fill="#2C9345" d="M174.635,353.548l7,14.5l8.333-13.5c0,0-3.271-2.438-7.834-2.688S174.635,353.548,174.635,353.548z"/>
		</g>
		<g>
			<circle fill="none" stroke="#2C9345" stroke-width="2" stroke-miterlimit="10" cx="237.214" cy="367.212" r="15.333"/>
			<path fill="#2C9345" d="M241.624,352.663l-4.729,15.391l15.29-4.23c0,0-0.741-4.01-3.916-7.297
				C245.093,353.24,241.624,352.663,241.624,352.663z"/>
		</g>
		<g>
			<circle fill="none" stroke="#2C9345" stroke-width="2" stroke-miterlimit="10" cx="293.131" cy="367.212" r="15.333"/>
			<path fill="#2C9345" d="M308.004,370.358l-15.74-3.393l5.526,14.871c0,0,3.934-1.082,6.935-4.527
				C307.727,373.864,308.004,370.358,308.004,370.358z"/>
		</g>
		<g>
			<path fill="none" stroke="#2C9345" stroke-width="2" stroke-miterlimit="10" d="M361.485,358.245
				c4.952,6.869,3.398,16.453-3.471,21.406c-6.868,4.951-16.452,3.396-21.404-3.473c-4.952-6.867-3.398-16.451,3.47-21.402
				C346.949,349.823,356.533,351.376,361.485,358.245z"/>
			<path fill="#2C9345" d="M335.651,360.024l14.158,7.668l-1.135-15.824c0,0-4.079-0.064-7.927,2.401
				C336.901,356.735,335.651,360.024,335.651,360.024z"/>
		</g>
		<g>
			<circle fill="none" stroke="#2C9345" stroke-width="2" stroke-miterlimit="10" cx="404.963" cy="367.213" r="15.333"/>
			<path fill="#2C9345" d="M405.566,352.022l-0.7,16.086l13.731-7.945c0,0-1.727-3.695-5.627-6.076S405.566,352.022,405.566,352.022
				z"/>
		</g>
		<g>
			<g>
				<path fill="#2C9345" d="M297.564,412.763c0,39.024,0,78.05,0,117.074c0,0.682,0.568,1.25,1.25,1.25c38.879,0,77.757,0,116.636,0
					c1.612,0,1.612-2.5,0-2.5c-38.879,0-77.757,0-116.636,0c0.417,0.417,0.833,0.833,1.25,1.25c0-39.024,0-78.05,0-117.074
					C300.064,411.15,297.564,411.15,297.564,412.763L297.564,412.763z"/>
			</g>
		</g>
		<circle fill="#2C9345" cx="324.967" cy="475.214" r="3.333"/>
		<circle fill="#2C9345" cx="344.967" cy="458.548" r="3.333"/>
		<circle fill="#2C9345" cx="358.634" cy="466.548" r="3.333"/>
		<circle fill="#2C9345" cx="379.634" cy="447.882" r="3.333"/>
		<circle fill="#2C9345" cx="396.634" cy="454.216" r="3.333"/>
		<g>
			<g>
				<path fill="#2C9345" d="M325.41,475.656c5.806-4.839,11.611-9.677,17.418-14.515c0.848-0.707,1.696-1.414,2.545-2.121
					c-0.571,0.476-0.742,0.055,0.292,0.659c0.844,0.494,1.687,0.988,2.53,1.482c3.375,1.975,6.749,3.95,10.124,5.926
					c0.253,0.147,0.546,0.09,0.758-0.098c6.363-5.656,12.727-11.313,19.09-16.969c0.466-0.414,0.932-0.829,1.398-1.243
					c0.67-0.595,0.379-0.116-0.033-0.271c1.631,0.608,3.262,1.216,4.893,1.823c4.015,1.496,8.029,2.991,12.044,4.487
					c0.757,0.282,1.08-0.927,0.332-1.205c-5.667-2.111-11.333-4.223-17-6.334c-0.213-0.079-0.45,0.021-0.608,0.16
					c-6.04,5.369-12.08,10.738-18.12,16.107c-0.916,0.813-1.832,1.628-2.747,2.441c0.067-0.06,0.928,0.197,0.038-0.324
					c-0.741-0.434-1.482-0.867-2.223-1.301c-3.619-2.118-7.238-4.236-10.857-6.355c-0.259-0.151-0.539-0.084-0.758,0.098
					c-6.666,5.556-13.333,11.111-20,16.666C323.906,475.288,324.794,476.168,325.41,475.656L325.41,475.656z"/>
			</g>
		</g>
	</g>
</g>
</svg>
