<?xml version="1.0" encoding="UTF-8"?>
<svg width="20px" height="20px" viewBox="0 0 20 20" version="1.1" xmlns="http://www.w3.org/2000/svg" xmlns:xlink="http://www.w3.org/1999/xlink">
    <!-- Generator: Sketch 43.1 (39012) - http://www.bohemiancoding.com/sketch -->
    <title>linkedin</title>
    <desc>Created with Sketch.</desc>
    <defs></defs>
    <g id="development" stroke="none" stroke-width="1" fill="none" fill-rule="evenodd">
        <g id="linkedin" fill-rule="nonzero" fill="#FFFFFF">
            <path d="M18.485058,0 L1.47470998,0 C0.660185615,0 0,0.640046404 0,1.4300232 L0,18.5284455 C0,19.3184687 0.660417633,19.9590719 1.47470998,19.9590719 L18.485058,19.9590719 C19.2993968,19.9590719 19.9588399,19.318051 19.9588399,18.5284455 L19.9588399,1.4300232 C19.9588399,0.640278422 19.2993968,0 18.485058,0 Z M6.05095128,16.7070998 L3.03531323,16.7070998 L3.03531323,7.69582367 L6.05095128,7.69582367 L6.05095128,16.7070998 Z M4.54343387,6.46473318 L4.52315545,6.46473318 C3.51187935,6.46473318 2.85633411,5.77313225 2.85633411,4.90728538 C2.85633411,4.02399072 3.53113689,3.35113689 4.5624594,3.35113689 C5.59387471,3.35113689 6.22830626,4.0238051 6.24835267,4.90728538 C6.24835267,5.77331787 5.59410673,6.46473318 4.54343387,6.46473318 Z M16.9214385,16.7070998 L13.9067749,16.7070998 L13.9067749,11.8857541 C13.9067749,10.6742923 13.4699768,9.84765661 12.379768,9.84765661 C11.5457541,9.84765661 11.0506729,10.4053364 10.8332715,10.9437587 C10.7527146,11.1360557 10.732761,11.4050116 10.732761,11.6735963 L10.732761,16.7069142 L7.71865429,16.7069142 C7.71865429,16.7069142 7.75809745,8.54083527 7.71865429,7.69568445 L10.7332251,7.69568445 L10.7332251,8.97322506 C11.1334107,8.35935035 11.8485383,7.48366589 13.44942,7.48366589 C15.4336427,7.48366589 16.9214385,8.77085847 16.9214385,11.54 L16.9214385,16.7070998 Z M10.7137355,9.03476427 C10.7248355,9.01656427 10.7403355,8.99466427 10.7557355,8.97336427 L10.7557355,9.03476427 L10.7137355,9.03476427 Z" id="LinkedIn__x28_alt_x29_"></path>
        </g>
    </g>
</svg>