<svg width="30px" height="30px" version="1.1" id="Layer_1"
											xmlns="http://www.w3.org/2000/svg"
											xmlns:xlink="http://www.w3.org/1999/xlink" x="0px" y="0px"
											viewBox="-3.5 -3.5 55 55" enable-background="new -3.5 -3.5 55 55"
											xml:space="preserve">
											<path fill="#FFFFFF" d="M12,36c0,1.1,0.9,2,2,2h2v7c0,1.7,1.3,3,3,3s3-1.3,3-3v-7h4v7c0,1.7,1.3,3,3,3s3-1.3,3-3v-7h2c1.1,0,2-0.9,2-2V16H12V36z
									                         M7,16c-1.7,0-3,1.3-3,3v14c0,1.7,1.3,3,3,3s3-1.3,3-3V19C10,17.3,8.7,16,7,16z M41,16c-1.7,0-3,1.3-3,3v14c0,1.7,1.3,3,3,3
									                        s3-1.3,3-3V19C44,17.3,42.7,16,41,16z M31.1,4.3l2.6-2.6c0.4-0.4,0.4-1,0-1.4s-1-0.4-1.4,0l-3,2.9C27.7,2.5,25.9,2,24,2
									                        c-1.9,0-3.7,0.5-5.3,1.3l-3-3c-0.4-0.4-1-0.4-1.4,0s-0.4,1,0,1.4l2.6,2.6C13.9,6.5,12,10,12,14h24C36,10,34,6.5,31.1,4.3z M20,10h-2
									                        V8h2V10z M30,10h-2V8h2V10z"></path>
										</svg>