<?xml version="1.0" encoding="UTF-8"?>
<svg width="153px" height="43px" viewBox="0 0 153 43" version="1.1" xmlns="http://www.w3.org/2000/svg" xmlns:xlink="http://www.w3.org/1999/xlink">
    <!-- Generator: Sketch 43.1 (39012) - http://www.bohemiancoding.com/sketch -->
    <title>logo</title>
    <desc>Created with Sketch.</desc>
    <defs>
        <polygon id="path-1" points="7.80685714 0.863238095 7.80685714 17.674381 0.127914286 17.674381 0.127914286 0.863238095 7.80685714 0.863238095"></polygon>
        <polygon id="path-3" points="0.9152 0.372952381 28.2517714 0.372952381 28.2517714 9.21559048 0.9152 9.21559048 0.9152 0.372952381"></polygon>
    </defs>
    <g id="final" stroke="none" stroke-width="1" fill="none" fill-rule="evenodd">
        <g id="employer-design-04" transform="translate(-135.000000, -64.000000)">
            <g id="logo" transform="translate(135.000000, 63.000000)">
                <g id="Group-3" transform="translate(144.571429, 16.389057)">
                    <mask id="mask-2" fill="white">
                        <use xlink:href="#path-1"></use>
                    </mask>
                    <g id="Clip-2"></g>
                    <path d="M2.39705714,0.863238095 L0.719819048,0.863238095 C0.392961905,0.863238095 0.127914286,1.12828571 0.127914286,1.45619048 L0.127914286,11.7019048 C0.127914286,15.0008571 2.80248571,17.674381 6.1014381,17.674381 L7.21505714,17.674381 C7.54191429,17.674381 7.8069619,17.4093333 7.8069619,17.0824762 L7.8069619,15.4062857 C7.8069619,15.078381 7.54191429,14.8133333 7.21505714,14.8133333 L6.1014381,14.8133333 C4.38334286,14.8133333 2.9889619,13.42 2.9889619,11.7019048 L2.9889619,1.45619048 C2.9889619,1.12828571 2.72391429,0.863238095 2.39705714,0.863238095" id="Fill-1" fill="#FAFDFE" mask="url(#mask-2)"></path>
                </g>
                <path d="M150.450981,21.5451238 L146.345362,21.5451238 L146.345362,24.4061714 L150.450981,24.4061714 C150.777838,24.4061714 151.042886,24.1421714 151.042886,23.8142667 L151.042886,22.1380762 C151.042886,21.8101714 150.777838,21.5451238 150.450981,21.5451238" id="Fill-4" fill="#FAFDFE"></path>
                <path d="M96.1067905,34.0638571 L94.4295524,34.0638571 C94.1026952,34.0638571 93.8376476,33.7988095 93.8376476,33.4719524 L93.8376476,22.1377619 C93.8376476,21.8109048 94.1026952,21.5448095 94.4295524,21.5448095 L96.1067905,21.5448095 C96.4336476,21.5448095 96.6986952,21.8109048 96.6986952,22.1377619 L96.6986952,33.4719524 C96.6986952,33.7988095 96.4336476,34.0638571 96.1067905,34.0638571" id="Fill-6" fill="#FAFDFE"></path>
                <path d="M106.046914,34.0571524 L104.369676,34.0571524 C104.042819,34.0571524 103.777771,33.7921048 103.777771,33.4642 L103.777771,17.8452476 C103.777771,17.5173429 104.042819,17.2522952 104.369676,17.2522952 L106.046914,17.2522952 C106.373771,17.2522952 106.638819,17.5173429 106.638819,17.8452476 L106.638819,33.4642 C106.638819,33.7921048 106.373771,34.0571524 106.046914,34.0571524" id="Fill-8" fill="#FAFDFE"></path>
                <path d="M142.701219,34.0638571 L141.025029,34.0638571 C140.698171,34.0638571 140.432076,33.7988095 140.432076,33.4719524 L140.432076,22.1377619 C140.432076,21.8109048 140.698171,21.5448095 141.025029,21.5448095 L142.701219,21.5448095 C143.028076,21.5448095 143.293124,21.8109048 143.293124,22.1377619 L143.293124,33.4719524 C143.293124,33.7988095 143.028076,34.0638571 142.701219,34.0638571" id="Fill-10" fill="#FAFDFE"></path>
                <path d="M142.701219,20.1138667 L141.025029,20.1138667 C140.698171,20.1138667 140.432076,19.848819 140.432076,19.5209143 L140.432076,17.8447238 C140.432076,17.5178667 140.698171,17.252819 141.025029,17.252819 L142.701219,17.252819 C143.028076,17.252819 143.293124,17.5178667 143.293124,17.8447238 L143.293124,19.5209143 C143.293124,19.848819 143.028076,20.1138667 142.701219,20.1138667" id="Fill-12" fill="#FAFDFE"></path>
                <path d="M86.2433524,24.4060667 C84.3691619,24.4060667 82.8448762,25.9303524 82.8448762,27.8045429 C82.8448762,29.6787333 84.3691619,31.2019714 86.2433524,31.2019714 C88.1164952,31.2019714 89.640781,29.6787333 89.640781,27.8045429 C89.640781,25.9303524 88.1164952,24.4060667 86.2433524,24.4060667 M86.2433524,34.0640667 C82.7914476,34.0640667 79.982781,31.2564476 79.982781,27.8045429 C79.982781,24.3526381 82.7914476,21.545019 86.2433524,21.545019 C89.6942095,21.545019 92.5028762,24.3526381 92.5028762,27.8045429 C92.5028762,31.2564476 89.6942095,34.0640667 86.2433524,34.0640667" id="Fill-14" fill="#FAFDFE"></path>
                <path d="M127.67239,21.5451238 L129.349629,21.5451238 C129.676486,21.5451238 129.941533,21.8101714 129.941533,22.1380762 L129.941533,27.9816952 C129.941533,29.5636 131.075057,30.9747429 132.643343,31.1758857 C134.541629,31.419981 136.165438,29.9417905 136.165438,28.0906476 L136.165438,22.1380762 C136.165438,21.8101714 136.430486,21.5451238 136.75839,21.5451238 L138.433533,21.5451238 C138.761438,21.5451238 139.027533,21.8101714 139.027533,22.1380762 L139.027533,27.9177905 C139.027533,31.1297905 136.562486,33.8986476 133.354676,34.0568381 C129.923724,34.2255048 127.080486,31.4838857 127.080486,28.0906476 L127.080486,22.1380762 C127.080486,21.8101714 127.345533,21.5451238 127.67239,21.5451238" id="Fill-16" fill="#FAFDFE"></path>
                <path d="M115.230971,33.1230952 L109.4764,24.950619 C108.690686,25.5016667 107.872495,25.9950952 107.019733,26.4319524 L112.210686,33.8050952 C112.322781,33.9632857 112.502971,34.0575714 112.695733,34.0575714 L114.746971,34.0575714 C115.226781,34.0575714 115.50859,33.5159524 115.230971,33.1230952" id="Fill-18" fill="#FAFDFE"></path>
                <path d="M110.641457,21.758419 L105.661076,27.7288 C105.952314,28.1928952 106.230981,28.6695619 106.491838,29.1608952 C106.6626,29.6354667 106.173362,30.9083238 106.345171,31.3818476 L113.738219,22.5179429 C114.060886,22.1313714 113.78641,21.5447048 113.283552,21.5447048 L111.097171,21.5447048 C110.921171,21.5447048 110.753552,21.6232762 110.641457,21.758419" id="Fill-20" fill="#FAFDFE"></path>
                <path d="M75.7866476,22.1379714 L75.7866476,28.8364476 C75.7866476,30.0192095 74.9244571,31.0773048 73.747981,31.1914952 C72.3976,31.3234952 71.2556952,30.2601619 71.2556952,28.937019 L71.2556952,22.1379714 C71.2556952,21.8111143 70.9906476,21.545019 70.6627429,21.545019 L68.9865524,21.545019 C68.6596952,21.545019 68.3936,21.8111143 68.3936,22.1379714 L68.3936,28.937019 C68.3936,31.7687333 70.689981,34.0640667 73.5216952,34.0640667 C76.3534095,34.0640667 78.6476952,31.7687333 78.6476952,28.937019 L78.6476952,22.1379714 C78.6476952,21.8111143 78.3836952,21.545019 78.0557905,21.545019 L76.3796,21.545019 C76.0527429,21.545019 75.7866476,21.8111143 75.7866476,22.1379714" id="Fill-22" fill="#FAFDFE"></path>
                <path d="M68.394019,22.1379714 L68.394019,28.8364476 C68.394019,30.0192095 67.5318286,31.0773048 66.3553524,31.1914952 C65.0049714,31.3234952 63.8630667,30.2601619 63.8630667,28.937019 L63.8630667,22.1379714 C63.8630667,21.8111143 63.598019,21.545019 63.2701143,21.545019 L61.5939238,21.545019 C61.266019,21.545019 61.0009714,21.8111143 61.0009714,22.1379714 L61.0009714,28.937019 C61.0009714,31.7687333 63.2973524,34.0640667 66.1290667,34.0640667 C68.9597333,34.0640667 71.2550667,31.7687333 71.2550667,28.937019 L71.2550667,22.1379714 C71.2550667,21.8111143 70.9910667,21.545019 70.6631619,21.545019 L68.9859238,21.545019 C68.6601143,21.545019 68.394019,21.8111143 68.394019,22.1379714" id="Fill-24" fill="#FAFDFE"></path>
                <path d="M101.304971,24.2332095 L102.127352,22.7340667 C102.30021,22.4187333 102.157733,22.0143524 101.819352,21.8938762 C100.759162,21.5146381 99.5858286,21.4318762 98.4177333,21.7084476 C95.696019,22.3548286 93.8375429,24.883781 93.8375429,27.6809238 L93.8375429,33.4711143 C93.8375429,33.799019 94.1025905,34.0640667 94.4304952,34.0640667 L96.1066857,34.0640667 C96.4345905,34.0640667 96.6996381,33.799019 96.6996381,33.4711143 L96.6996381,27.6589238 C96.6996381,26.181781 97.6676381,24.8272095 99.1049714,24.4888286 C99.6224952,24.3662571 100.140019,24.3840667 100.620876,24.515019 C100.889067,24.5883524 101.171924,24.4762571 101.304971,24.2332095" id="Fill-26" fill="#FAFDFE"></path>
                <path d="M119.338581,34.0638571 L117.66239,34.0638571 C117.335533,34.0638571 117.069438,33.7988095 117.069438,33.4719524 L117.069438,22.1377619 C117.069438,21.8098571 117.335533,21.5448095 117.66239,21.5448095 L119.338581,21.5448095 C119.665438,21.5448095 119.930486,21.8098571 119.930486,22.1377619 L119.930486,33.4719524 C119.930486,33.7988095 119.665438,34.0638571 119.338581,34.0638571" id="Fill-28" fill="#FAFDFE"></path>
                <path d="M124.53781,24.2332095 L125.359143,22.7340667 C125.532,22.4187333 125.389524,22.0143524 125.051143,21.8938762 C123.992,21.5146381 122.817619,21.4318762 121.649524,21.7084476 C118.928857,22.3548286 117.069333,24.883781 117.069333,27.6809238 L117.069333,33.4711143 C117.069333,33.799019 117.335429,34.0640667 117.663333,34.0640667 L119.338476,34.0640667 C119.666381,34.0640667 119.931429,33.799019 119.931429,33.4711143 L119.931429,27.6589238 C119.931429,26.181781 120.899429,24.8272095 122.336762,24.4888286 C122.855333,24.3662571 123.37181,24.3840667 123.853714,24.515019 C124.121905,24.5883524 124.403714,24.4762571 124.53781,24.2332095" id="Fill-30" fill="#FAFDFE"></path>
                <g id="Group-34" transform="translate(11.523810, 0.674771)">
                    <mask id="mask-4" fill="white">
                        <use xlink:href="#path-3"></use>
                    </mask>
                    <g id="Clip-33"></g>
                    <path d="M27.2984381,0.372638095 L1.87062857,0.372638095 C1.34367619,0.372638095 0.9152,0.801114286 0.9152,1.32701905 L0.9152,8.26120952 C0.9152,8.78711429 1.34367619,9.21559048 1.87062857,9.21559048 L2.8239619,9.21559048 C3.34986667,9.21559048 3.77834286,8.78711429 3.77834286,8.26120952 L3.77834286,3.23578095 L25.3896762,3.23473333 L25.3896762,8.26120952 C25.3896762,8.78711429 25.8181524,9.21559048 26.3440571,9.21559048 L27.2984381,9.21559048 C27.8243429,9.21559048 28.2517714,8.78711429 28.2517714,8.26120952 L28.2517714,1.32701905 C28.2517714,0.801114286 27.8243429,0.372638095 27.2984381,0.372638095" id="Fill-32" fill="#FAFDFE" mask="url(#mask-4)"></path>
                </g>
                <path d="M18.9369714,38.6655238 C19.724781,38.6655238 20.4518286,38.205619 20.7902095,37.4932381 L25.9759238,26.562381 L31.1605905,37.4932381 C31.4979238,38.205619 32.226019,38.6655238 33.0148762,38.6655238 C33.8016381,38.6655238 34.5297333,38.205619 34.8670667,37.4932381 L45.6072571,14.8520952 L49.3524952,14.8520952 L49.3524952,40.7649524 L2.86230476,40.7649524 L2.86230476,14.8520952 L6.34354286,14.8520952 L17.0826857,37.4932381 C17.4210667,38.205619 18.1481143,38.6655238 18.9369714,38.6655238 M51.2612571,11.9889524 L44.4789714,11.9889524 C44.0641143,11.9889524 43.6817333,12.2309524 43.5046857,12.6049524 L33.0148762,34.7212381 L23.5884,14.8520952 L28.3624,14.8520952 L27.3902095,16.9001905 C27.2288762,17.239619 27.2288762,17.6282857 27.3902095,17.9687619 L27.9884,19.228 C28.1235429,19.514 28.4043048,19.6920952 28.7217333,19.6920952 C29.0381143,19.6920952 29.3188762,19.514 29.454019,19.228 L32.248019,13.3382857 C32.3873524,13.0439048 32.3664,12.7044762 32.1924952,12.4289524 C32.0185905,12.1534286 31.720019,11.9889524 31.3952571,11.9889524 L20.5565905,11.9889524 C20.2297333,11.9889524 19.9322095,12.1534286 19.7572571,12.4289524 C19.5833524,12.7044762 19.5634476,13.0439048 19.7017333,13.3382857 L24.3908762,23.2225714 L18.9369714,34.7212381 L8.44506667,12.6049524 C8.26801905,12.2309524 7.8856381,11.9889524 7.47287619,11.9889524 L0.954590476,11.9889524 C0.428685714,11.9889524 0.000209523809,12.4174286 0.000209523809,12.9433333 L0.000209523809,42.6726667 C0.000209523809,43.1985714 0.428685714,43.6270476 0.954590476,43.6270476 L51.2612571,43.6270476 C51.7871619,43.6270476 52.2156381,43.1985714 52.2156381,42.6726667 L52.2156381,12.9433333 C52.2156381,12.4174286 51.7871619,11.9889524 51.2612571,11.9889524" id="Fill-35" fill="#FAFDFE"></path>
            </g>
        </g>
    </g>
</svg>