<?xml version="1.0" encoding="UTF-8"?>
<svg width="133px" height="25px" viewBox="0 0 133 25" version="1.1" xmlns="http://www.w3.org/2000/svg" xmlns:xlink="http://www.w3.org/1999/xlink">
    <!-- Generator: Sketch 47.1 (45422) - http://www.bohemiancoding.com/sketch -->
    <title>logo</title>
    <desc>Created with Sketch.</desc>
    <defs>
        <polygon id="path-1" points="0 0 4.36460861 0 4.36460861 4.48362185 3.23931682e-14 4.48362185 3.23931682e-14 0"></polygon>
        <polygon id="path-3" points="17.6547228 17.7394707 0 17.7394707 0 0 17.6547228 0"></polygon>
        <polygon id="path-5" points="2.54925649e-16 17.7393119 2.54925649e-16 3.76153846e-15 14.893347 0 14.893347 17.7393119"></polygon>
    </defs>
    <g id="Page-1" stroke="none" stroke-width="1" fill="none" fill-rule="evenodd">
        <g id="forms-/-sign-up" transform="translate(-157.000000, -36.000000)">
            <g id="sidebar" transform="translate(1.000000, 0.000000)">
                <g id="logo" transform="translate(156.000000, 36.000000)">
                    <path d="M124.749239,0 L122.295783,0 C121.816794,0 121.428571,0.384199134 121.428571,0.858225108 L121.428571,15.6985931 C121.428571,20.4767316 125.342508,24.3506494 130.171228,24.3506494 L131.800667,24.3506494 C132.27911,24.3506494 132.667333,23.9664502 132.667333,23.4918831 L132.667333,21.0643939 C132.667333,20.590368 132.27911,20.2061688 131.800667,20.2061688 L130.171228,20.2061688 C127.655438,20.2061688 125.616451,18.1877706 125.616451,15.6985931 L125.616451,0.858225108 C125.616451,0.384199134 125.228229,0 124.749239,0" id="Fill-1" fill="#3EBB64"></path>
                    <path d="M129.835774,6.25 L124.107143,6.25 L124.107143,9.99625375 L129.835774,9.99625375 C130.292438,9.99625375 130.663087,9.64852706 130.663087,9.22010431 L130.663087,7.02614944 C130.663087,6.59723762 130.292438,6.25 129.835774,6.25" id="Fill-3" fill="#3EBB64"></path>
                    <path d="M50.2919207,24.0447053 L48.0971902,24.0447053 C47.6687115,24.0447053 47.3214286,23.6676651 47.3214286,23.2019407 L47.3214286,7.09276455 C47.3214286,6.62704022 47.6687115,6.25 48.0971902,6.25 L50.2919207,6.25 C50.7203994,6.25 51.0676823,6.62704022 51.0676823,7.09276455 L51.0676823,23.2019407 C51.0676823,23.6676651 50.7203994,24.0447053 50.2919207,24.0447053" id="Fill-5" fill="#3EBB64"></path>
                    <path d="M64.577635,24.3506494 L62.3833936,24.3506494 C61.9544258,24.3506494 61.6071429,23.9662879 61.6071429,23.4915204 L61.6071429,0.858587623 C61.6071429,0.38436142 61.9544258,0 62.3833936,0 L64.577635,0 C65.0061136,0 65.3533966,0.38436142 65.3533966,0.858587623 L65.3533966,23.4915204 C65.3533966,23.9662879 65.0061136,24.3506494 64.577635,24.3506494" id="Fill-7" fill="#3EBB64"></path>
                    <path d="M118.149064,24.0447053 L115.954822,24.0447053 C115.525854,24.0447053 115.178571,23.6676651 115.178571,23.2019407 L115.178571,7.09276455 C115.178571,6.62704022 115.525854,6.25 115.954822,6.25 L118.149064,6.25 C118.577542,6.25 118.924825,6.62704022 118.924825,7.09276455 L118.924825,23.2019407 C118.924825,23.6676651 118.577542,24.0447053 118.149064,24.0447053" id="Fill-9" fill="#3EBB64"></path>
                    <g id="Group-13" transform="translate(115.197303, 0.000000)">
                        <mask id="mask-2" fill="white">
                            <use xlink:href="#path-1"></use>
                        </mask>
                        <g id="Clip-12"></g>
                        <path d="M3.46080011,4.48379745 L0.90437836,4.48379745 C0.404605315,4.48379745 0,4.06819743 0,3.55542895 L0,0.928953859 C0,0.416185377 0.404605315,0 0.90437836,0 L3.46080011,0 C3.96000329,0 4.36460861,0.416185377 4.36460861,0.928953859 L4.36460861,3.55542895 C4.36460861,4.06819743 3.96000329,4.48379745 3.46080011,4.48379745" id="Fill-11" fill="#3EBB64" mask="url(#mask-2)"></path>
                    </g>
                    <path d="M35.6830669,10.3171336 C33.0199679,10.3171336 30.8528479,12.4837226 30.8528479,15.1473526 C30.8528479,17.8109827 33.0199679,19.9775717 35.6830669,19.9775717 C38.3466969,19.9775717 40.513286,17.8109827 40.513286,15.1473526 C40.513286,12.4837226 38.3466969,10.3171336 35.6830669,10.3171336 M35.6830669,24.0447053 C30.7769111,24.0447053 26.7857143,20.0535085 26.7857143,15.1473526 C26.7857143,10.2406658 30.7769111,6.25 35.6830669,6.25 C40.5892228,6.25 44.5804196,10.2406658 44.5804196,15.1473526 C44.5804196,20.0535085 40.5892228,24.0447053 35.6830669,24.0447053" id="Fill-14" fill="#3EBB64"></path>
                    <g id="Group-18" transform="translate(96.466034, 6.555944)">
                        <mask id="mask-4" fill="white">
                            <use xlink:href="#path-3"></use>
                        </mask>
                        <g id="Clip-17"></g>
                        <path d="M0.876138877,0 L3.3527356,0 C3.83635101,0 4.22887448,0.375866527 4.22887448,0.840141096 L4.22887448,9.12085126 C4.22887448,11.3617569 5.9038621,13.3617903 8.22201405,13.6471313 C11.0259897,13.9928226 13.4258484,11.8969697 13.4258484,9.2749036 L13.4258484,0.840141096 C13.4258484,0.375866527 13.8178198,0 14.3019872,0 L16.779136,0 C17.2627515,0 17.6547228,0.375866527 17.6547228,0.840141096 L17.6547228,9.02926688 C17.6547228,13.5820164 14.0138055,17.5047924 9.27205573,17.7292535 C4.20292708,17.9685375 0,14.0833482 0,9.2749036 L0,0.840141096 C0,0.375866527 0.392523467,0 0.876138877,0" id="Fill-16" fill="#3EBB64" mask="url(#mask-4)"></path>
                    </g>
                    <path d="M78.9799843,23.3742219 L70.5587722,11.6071429 C69.4085365,12.3995043 68.2107388,13.1106394 66.9642857,13.7405479 L74.5610894,24.3570084 C74.7234563,24.5840121 74.9875075,24.719031 75.2701463,24.719031 L78.2709274,24.719031 C78.973424,24.719031 79.3845349,23.9395797 78.9799843,23.3742219" id="Fill-19" fill="#3EBB64"></path>
                    <path d="M71.6659315,6.55413678 L64.2857143,15.0817053 C64.7175326,15.7444034 65.1299744,16.4247094 65.5163964,17.1274254 C65.7699512,17.8034628 65.0458252,19.6224142 65.29938,20.2984515 L76.2553846,7.63889131 C76.7325992,7.08771009 76.3262471,6.25 75.5810838,6.25 L72.3402323,6.25 C72.0800341,6.25 71.832569,6.36151682 71.6659315,6.55413678" id="Fill-21" fill="#3EBB64"></path>
                    <path d="M21.5173853,7.09276455 L21.5173853,16.6138267 C21.5173853,18.2945764 20.2568053,19.7984889 18.5370881,19.961519 C16.5635079,20.148446 14.8956552,18.638692 14.8956552,16.7572082 L14.8956552,7.09276455 C14.8956552,6.62757126 14.5080364,6.25 14.0297913,6.25 L11.5801497,6.25 C11.1019045,6.25 10.7142857,6.62757126 10.7142857,7.09276455 L10.7142857,16.7572082 C10.7142857,20.7819798 14.0685531,24.0447053 18.2067932,24.0447053 C22.3444873,24.0447053 25.6993007,20.7819798 25.6993007,16.7572082 L25.6993007,7.09276455 C25.6993007,6.62757126 25.311136,6.25 24.8328908,6.25 L22.3832492,6.25 C21.9050041,6.25 21.5173853,6.62757126 21.5173853,7.09276455" id="Fill-23" fill="#3EBB64"></path>
                    <g id="Group-27" transform="translate(0.000000, 6.555944)">
                        <mask id="mask-6" fill="white">
                            <use xlink:href="#path-5"></use>
                        </mask>
                        <g id="Clip-26"></g>
                        <path d="M10.7377518,0.840141096 L10.7377518,10.331565 C10.7377518,12.0070827 9.48486038,13.5063137 7.77563211,13.6688362 C5.81408918,13.8551813 4.15640907,12.3501271 4.15640907,10.4745001 L4.15640907,0.840141096 C4.15640907,0.376395916 3.77115444,0 3.2958262,0 L0.861125482,0 C0.385797238,0 0,0.376395916 0,0.840141096 L0,10.4745001 C0,14.486743 3.33435166,17.7393119 7.44735176,17.7393119 C11.5598092,17.7393119 14.8936183,14.486743 14.8936183,10.4745001 L14.8936183,0.840141096 C14.8936183,0.376395916 14.5083637,0 14.0330354,0 L11.5983347,0 C11.1230065,0 10.7377518,0.376395916 10.7377518,0.840141096" id="Fill-25" fill="#3EBB64" mask="url(#mask-6)"></path>
                    </g>
                    <path d="M58.1929678,10.0715032 L59.3894952,7.93999776 C59.640766,7.49234976 59.4340931,6.91831953 58.9413413,6.74626976 C57.3983649,6.20675569 55.69005,6.08886974 53.9893495,6.48288494 C50.0266683,7.40154572 47.3214286,10.9949431 47.3214286,14.9712043 L47.3214286,23.2019801 C47.3214286,23.6676827 47.7075806,24.0447053 48.1840161,24.0447053 L50.6243881,24.0447053 C51.1008236,24.0447053 51.4869756,23.6676827 51.4869756,23.2019801 L51.4869756,14.9393432 C51.4869756,12.8407609 52.8977902,10.9152904 54.9900815,10.4347193 C55.742806,10.2610765 56.4955305,10.2855033 57.1960429,10.4718906 C57.586546,10.575439 57.9988041,10.4177268 58.1929678,10.0715032" id="Fill-28" fill="#3EBB64"></path>
                    <path d="M84.2201043,24.0447053 L82.0261494,24.0447053 C81.5977267,24.0447053 81.25,23.6676763 81.25,23.2019659 L81.25,7.09220837 C81.25,6.62702897 81.5977267,6.25 82.0261494,6.25 L84.2201043,6.25 C84.6485271,6.25 84.9962537,6.62702897 84.9962537,7.09220837 L84.9962537,23.2019659 C84.9962537,23.6676763 84.6485271,24.0447053 84.2201043,24.0447053" id="Fill-30" fill="#3EBB64"></path>
                    <path d="M92.1217128,10.0715032 L93.3177155,7.93999776 C93.5695341,7.49234976 93.3628579,6.91831953 92.8700983,6.74626976 C91.3270972,6.20675569 89.6187551,6.08886974 87.9180274,6.48288494 C83.9552829,7.40154572 81.25,10.9949431 81.25,14.9712043 L81.25,23.2019801 C81.25,23.6676827 81.6367021,24.0447053 82.1131451,24.0447053 L84.5530123,24.0447053 C85.0294553,24.0447053 85.4161574,23.6676827 85.4161574,23.2019801 L85.4161574,14.9393432 C85.4161574,12.8407609 86.8264506,10.9152904 88.9187754,10.4347193 C89.6715119,10.2610765 90.4242485,10.2855033 91.1253159,10.4718906 C91.5158252,10.575439 91.927546,10.4177268 92.1217128,10.0715032" id="Fill-32" fill="#3EBB64"></path>
                </g>
            </g>
        </g>
    </g>
</svg>