<?xml version="1.0" encoding="utf-8"?>
<!-- Generator: Adobe Illustrator 22.0.1, SVG Export Plug-In . SVG Version: 6.00 Build 0)  -->
<svg version="1.0" id="Layer_1" xmlns="http://www.w3.org/2000/svg" xmlns:xlink="http://www.w3.org/1999/xlink" x="0px" y="0px"
	 viewBox="0 0 33 35" style="enable-background:new 0 0 33 35;" xml:space="preserve">
<style type="text/css">
	.st0{fill:#337AB7;}
	.st1{filter:url(#Adobe_OpacityMaskFilter);}
	.st2{fill:#FFFFFF;}
	.st3{mask:url(#mask-2_1_);fill:#337AB7;}
</style>
<title>notification / not-active</title>
<desc>Created with Sketch.</desc>
<g id="Symbols">
	<g id="notification-_x2F_-not-active">
		<g id="notification">
			
				<g id="Page-1" transform="translate(16.336806, 17.456272) rotate(-330.000000) translate(-16.336806, -17.456272) translate(5.836806, 3.956272)">
				<g>
					<path id="Fill-1" class="st0" d="M10.1,26.4c1.7,0,3.1-1.4,3.1-3.1H7C7,25.1,8.4,26.4,10.1,26.4"/>
					<g id="Group-5">
						<g id="Clip-4">
						</g>
						<defs>
							<filter id="Adobe_OpacityMaskFilter" filterUnits="userSpaceOnUse" x="5.4" y="-1.2" width="7.1" height="31.4">
								<feColorMatrix  type="matrix" values="1 0 0 0 0  0 1 0 0 0  0 0 1 0 0  0 0 0 1 0"/>
							</filter>
						</defs>
						<mask maskUnits="userSpaceOnUse" x="5.4" y="-1.2" width="7.1" height="31.4" id="mask-2_1_">
							<g class="st1">
								<polygon id="path-1_1_" class="st2" points="21,0.2 21,21.7 0,21.7 0,0.2 								"/>
							</g>
						</mask>
						<path id="Fill-3" class="st3" d="M19.8,18.4l-0.7-5.7c0-4.2-2.9-7.7-6.9-8.5l0-2.2c0-1-0.8-1.8-1.8-1.8c-1,0-1.8,0.8-1.8,1.8
							l0,2.2C4.8,5,1.8,8.5,1.8,12.7l-0.7,5.7c-0.7,0.3-1.2,1-1.2,1.9l0,0.2c0,1.2,0.9,1.2,2.1,1.2l16.8,0c1.1,0,2.1-0.1,2.1-1.2v0
							h0v-0.2C21,19.5,20.5,18.7,19.8,18.4"/>
					</g>
				</g>
			</g>
		</g>
	</g>
</g>
</svg>
