<?xml version="1.0" encoding="utf-8"?>
<!-- Generator: Adobe Illustrator 23.0.4, SVG Export Plug-In . SVG Version: 6.00 Build 0)  -->
<svg version="1.1" id="Layer_1" xmlns="http://www.w3.org/2000/svg" xmlns:xlink="http://www.w3.org/1999/xlink" x="0px" y="0px"
	 viewBox="0 0 512 372" style="enable-background:new 0 0 512 372;" xml:space="preserve">
<style type="text/css">
	.st0{fill:#FFFFFF;}
	.st1{fill:#CACACA;}
</style>
<g>
	<rect x="-1.77" class="st0" width="515.53" height="512"/>
	<g transform="translate(60 0) scale(0.75 0.75)">
		<g>
			<path id="XMLID_459_" class="st1" d="M417.2,182.27l-3.91,1.46c-0.76,0.28-1.15,1.13-0.87,1.9l8.91,23.87
				c2.87,7.69,11.43,11.59,19.11,8.72l2.59-0.97c0.76-0.28,1.15-1.13,0.87-1.9l-1.46-3.91c-0.28-0.76-1.13-1.15-1.9-0.87l-2.59,0.97
				c-4,1.49-8.46-0.54-9.96-4.54l-8.91-23.87C418.82,182.37,417.97,181.98,417.2,182.27z"/>
			<path id="XMLID_458_" class="st1" d="M429.05,189.24l-9.57,3.57l2.49,6.67l9.57-3.57c0.76-0.28,1.15-1.13,0.87-1.9l-1.46-3.91
				C430.66,189.34,429.81,188.96,429.05,189.24z"/>
			<path id="XMLID_457_" class="st1" d="M313.32,265.67l-3.91,1.46c-0.76,0.28-1.61-0.1-1.9-0.87l-9.86-26.41
				c-0.28-0.76,0.1-1.61,0.87-1.9l3.91-1.46c0.76-0.28,1.61,0.1,1.9,0.87l9.86,26.41C314.47,264.53,314.08,265.38,313.32,265.67z"/>
			<path id="XMLID_456_" class="st1" d="M336.47,257.01l-3.91,1.46c-0.76,0.28-1.61-0.1-1.9-0.87l-13.58-36.39
				c-0.28-0.76,0.1-1.61,0.87-1.9l3.91-1.46c0.76-0.28,1.61,0.1,1.9,0.87l13.58,36.39C337.62,255.87,337.24,256.72,336.47,257.01z"
				/>
			<path id="XMLID_455_" class="st1" d="M421.88,225.15l-3.91,1.46c-0.76,0.28-1.61-0.1-1.9-0.87l-9.86-26.41
				c-0.28-0.76,0.1-1.61,0.87-1.9l3.91-1.46c0.76-0.28,1.61,0.1,1.9,0.87l9.86,26.41C423.03,224.01,422.65,224.86,421.88,225.15z"/>
			<path id="XMLID_454_" class="st1" d="M409.75,192.65l-3.91,1.46c-0.76,0.28-1.61-0.1-1.9-0.87l-1.46-3.91
				c-0.28-0.76,0.1-1.61,0.87-1.9l3.91-1.46c0.76-0.28,1.61,0.1,1.9,0.87l1.46,3.91C410.9,191.51,410.51,192.36,409.75,192.65z"/>
			<path id="XMLID_451_" class="st1" d="M290.34,274.25c-8.04,3-17.03-1.1-20.03-9.14c-3-8.04,1.1-17.03,9.14-20.03
				c8.04-3,17.03,1.1,20.03,9.14C302.48,262.26,298.38,271.24,290.34,274.25z M281.94,251.74c-4.37,1.63-6.59,6.51-4.96,10.87
				c1.63,4.37,6.51,6.59,10.87,4.96c4.37-1.63,6.59-6.51,4.96-10.87C291.18,252.34,286.31,250.11,281.94,251.74z"/>
			<path id="XMLID_450_" class="st1" d="M375.98,209.05l3.91-1.46c0.76-0.28,1.61,0.1,1.9,0.87l5.08,13.62
				c1.38,3.68,5.24,5.99,9.07,5.09c4.63-1.08,7.13-5.94,5.52-10.25l-5.18-13.87c-0.28-0.76,0.1-1.61,0.87-1.9l3.91-1.46
				c0.76-0.28,1.61,0.1,1.9,0.87l5.03,13.47c2.79,7.49-0.54,16.08-7.88,19.24c-7.84,3.38-16.86-0.54-19.81-8.44l-5.18-13.87
				C374.83,210.18,375.22,209.33,375.98,209.05z"/>
			<path class="st1" d="M357.06,246.84l-20.52-14.04c-1.35,1.97-2.83,3.83-4.43,5.59l18.51,12.66c0.4,0.27,0.9,0.33,1.35,0.16
				l4.78-1.78C357.86,249.02,358.05,247.52,357.06,246.84z"/>
			<path class="st1" d="M336.48,224.36l-6.41,18.24c1.08,0.83,2.14,1.7,3.18,2.62c0.81,0.95,0.78,4.35,1.59,5.3l9.52-27.08
				c0.41-1.18-0.73-2.31-1.91-1.87l-5.1,1.9C336.95,223.62,336.63,223.94,336.48,224.36z"/>
			<g>
				<path class="st1" d="M255.61,255.55l5.83,15.61c1.03,2.76-0.06,5.97-2.7,7.26c-3.03,1.48-6.61,0-7.77-3.09l-5.91-15.84
					c-0.28-0.76-1.13-1.15-1.9-0.87l-3.91,1.46c-0.76,0.28-1.15,1.13-0.87,1.9l5.91,15.84c2.46,6.6,9.81,9.95,16.4,7.49l0,0
					c6.6-2.46,9.95-9.81,7.49-16.4l-5.91-15.84c-0.28-0.76-1.13-1.15-1.9-0.87l-3.91,1.46
					C255.71,253.94,255.32,254.79,255.61,255.55z"/>
				<path class="st1" d="M238.38,261.98l5.82,15.61c1.03,2.76-0.06,5.97-2.7,7.26c-3.03,1.48-6.61,0-7.77-3.09l-5.91-15.84
					c-0.28-0.76-1.13-1.15-1.9-0.87l-3.91,1.46c-0.76,0.28-1.15,1.13-0.87,1.9l5.91,15.84c2.46,6.6,9.81,9.95,16.4,7.49l0,0
					c6.6-2.46,9.95-9.81,7.49-16.4l-5.91-15.84c-0.28-0.76-1.13-1.15-1.9-0.87l-3.91,1.46C238.49,260.37,238.1,261.22,238.38,261.98
					z"/>
			</g>
			<path class="st1" d="M316.89,238.24l0.61-4.21c0.13-0.88-0.55-1.7-1.45-1.69c-2.8,0.04-5.61,0.86-8.09,2.53
				c-5.78,3.87-7.91,11.38-5.48,17.9l5.04,13.49c0.28,0.76,1.13,1.15,1.9,0.87l3.91-1.46c0.76-0.28,1.15-1.13,0.87-1.9l-5.05-13.54
				c-1.28-3.44-0.2-7.44,2.85-9.48c1.1-0.73,2.32-1.14,3.55-1.26C316.22,239.43,316.79,238.93,316.89,238.24z"/>
			<path id="XMLID_449_" class="st1" d="M367.45,245.47l-3.91,1.46c-0.76,0.28-1.61-0.1-1.9-0.87l-9.86-26.41
				c-0.28-0.76,0.1-1.61,0.87-1.9l3.91-1.46c0.76-0.28,1.61,0.1,1.9,0.87l9.86,26.41C368.6,244.33,368.21,245.18,367.45,245.47z"/>
			<path class="st1" d="M371.01,218.04l0.61-4.21c0.13-0.88-0.55-1.7-1.45-1.69c-2.8,0.04-5.61,0.86-8.09,2.53
				c-5.78,3.87-7.91,11.38-5.48,17.9l5.04,13.49c0.28,0.76,1.13,1.15,1.9,0.87l3.91-1.46c0.76-0.28,1.15-1.13,0.87-1.9l-5.05-13.54
				c-1.28-3.44-0.2-7.44,2.85-9.48c1.1-0.73,2.32-1.14,3.55-1.26C370.35,219.23,370.91,218.72,371.01,218.04z"/>
		</g>
		<path class="st1" d="M151.14,238.56L91.9,260.67c-1.23,0.46-1.85,1.83-1.39,3.05l6.03,16.16c0.46,1.23,1.83,1.85,3.05,1.39
			l2.22-0.83c1.23-0.46,1.85-1.83,1.39-3.05l-4.37-11.71l50.35-18.8l4.37,11.71c0.46,1.23,1.83,1.85,3.05,1.39l2.22-0.83
			c1.23-0.46,1.85-1.83,1.39-3.05l-6.03-16.16C153.74,238.73,152.37,238.1,151.14,238.56z"/>
		<path class="st1" d="M189.64,253.23l-15.8,5.9c-0.96,0.36-1.65,1.26-1.73,2.28l-5.21,60.65l-39.24-38.1l11.12-4.15l-0.48,5.62
			c-0.08,0.93,0.26,1.84,0.93,2.49l2.49,2.41c0.56,0.55,1.37,0.72,2.11,0.44c0.74-0.28,1.24-0.93,1.3-1.72l1.39-16.15
			c0.07-0.81-0.27-1.58-0.92-2.07c-0.65-0.49-1.48-0.61-2.24-0.33l-25.25,9.43c-0.76,0.28-1.31,0.93-1.48,1.72
			c-0.17,0.79,0.08,1.6,0.66,2.17l19.52,18.95l-2.71,31.53L90.42,291.9c-0.74-0.72-1.84-0.95-2.8-0.59l-15.18,5.67
			c-1.23,0.46-1.85,1.83-1.39,3.05l25.85,69.27c0.46,1.23,1.83,1.85,3.05,1.39l117.21-43.75c1.23-0.46,1.85-1.83,1.39-3.05
			l-25.85-69.27C192.24,253.4,190.87,252.78,189.64,253.23z M137.52,343.5c1.84-0.69,3.13-2.39,3.3-4.34l2.58-29.98l21.59,20.96
			c1.41,1.37,3.5,1.8,5.34,1.12c1.84-0.69,3.13-2.39,3.3-4.34l5.33-62.09l8.73-3.26l22.53,60.38L101.9,362.37l-22.53-60.38
			l8.11-3.03l44.71,43.41C133.59,343.74,135.69,344.18,137.52,343.5z"/>
	</g>
</g>
</svg>
