<?xml version="1.0" encoding="utf-8"?>
<!-- Generator: Adobe Illustrator 16.0.0, SVG Export Plug-In . SVG Version: 6.00 Build 0)  -->
<!DOCTYPE svg PUBLIC "-//W3C//DTD SVG 1.1//EN" "http://www.w3.org/Graphics/SVG/1.1/DTD/svg11.dtd">
<svg version="1.1" id="Layer_1" xmlns="http://www.w3.org/2000/svg" xmlns:xlink="http://www.w3.org/1999/xlink" x="0px" y="0px"
	 width="409.259px" height="455.556px" viewBox="0 0 409.259 455.556" enable-background="new 0 0 409.259 455.556"
	 xml:space="preserve">
<g>
	<g id="Papers_1_">
		
			<rect x="85.614" y="43.355" transform="matrix(0.9979 -0.065 0.065 0.9979 -12.3884 13.7282)" fill="#FFFFFF" width="238.03" height="307.516"/>
		
			<rect x="85.614" y="43.354" fill="#FFFFFF" stroke="#E6E7E8" stroke-width="0.75" stroke-miterlimit="10" width="238.03" height="307.518"/>
	</g>
	<g>
		
			<text transform="matrix(1 -0.006 0.006 1 117.2793 223.8047)" fill="#B6B6B6" font-family="'SourceSansPro-Black'" font-size="50.2201">RESUME</text>
	</g>
	<g id="Pin_1_">
		<path opacity="0.6" fill="#A0A0A0" d="M286.403,27.877h-2.144c-4.733,0-8.584,3.851-8.584,8.584v2.142h2.882v-2.142
			c0-3.144,2.559-5.702,5.702-5.702h2.144c3.145,0,5.702,2.559,5.702,5.702v35.178c0,1.385-1.127,2.511-2.512,2.511h-4.272
			c-1.385,0-2.511-1.126-2.511-2.511V48.203c0-0.796-0.646-1.441-1.442-1.441c-0.795,0-1.441,0.646-1.441,1.441v23.436
			c0,2.974,2.42,5.394,5.395,5.394h4.272c2.974,0,5.393-2.42,5.393-5.394V36.461C294.986,31.728,291.138,27.877,286.403,27.877z"/>
		<path fill="#26A69A" d="M285.17,27.877h-2.143c-4.733,0-8.585,3.851-8.585,8.584v2.142h2.884v-2.142
			c0-3.144,2.558-5.702,5.701-5.702h2.143c3.146,0,5.703,2.559,5.703,5.702v35.178c0,1.385-1.128,2.511-2.513,2.511h-4.272
			c-1.383,0-2.511-1.126-2.511-2.511V48.203c0-0.796-0.645-1.441-1.441-1.441c-0.795,0-1.44,0.646-1.44,1.441v23.436
			c0,2.974,2.419,5.394,5.393,5.394h4.272c2.976,0,5.395-2.42,5.395-5.394V36.461C293.755,31.728,289.905,27.877,285.17,27.877z"/>
	</g>
	<g id="Char1">
		<g>
			<g>
				<g>
					<path fill="#FFB8A6" d="M300.532,325.281c0,0-0.734,1.203-0.826,2.186c-0.072,0.777-0.727,1.939-1.011,2.58
						c-0.282,0.643-1.192,3.548-1.226,4.304c-0.014,0.309,0.676,2.257,0.578,2.88s-0.453,1.857,0.105,1.939
						c0.56,0.082,1.194-0.93,1.194-0.93s-0.054,0.573,0.42,0.793c0.921,0.426,1.408,0.051,1.408,0.051s0.339,0.631,0.766,0.716
						c0.94,0.187,1.4-0.189,1.4-0.189s0.414,0.354,1.063,0.341c0.831-0.016,1.181-0.733,1.181-0.733s1.051,0.213,1.356-0.278
						c0.305-0.49,0.253-1.014,0.378-1.459c0.127-0.444,0.031-4.461-1.333-7.354c-1.365-2.892,0.349-5.713,0.349-5.713
						L300.532,325.281z"/>
				</g>
			</g>
		</g>
		<g>
			<g>
				<path fill="#FFB8A6" d="M299.199,337.863c0,0-0.094-3.604,0.855-4.371c0.947-0.768,1.057,0.534,1.057,0.534
					s-0.13-1.286,0.906-1.46c1.037-0.173,1.081,1.354,1.081,1.354s0.169-0.992,1.259-0.788c1.089,0.204,0.829,1.468,0.829,1.468
					s1.04-1.24,1.715-0.049c1.139,2.013,0.154,4.403,0.154,4.403s-0.373,0.656-1.408,0.389c0,0-0.735,1.432-2.285,0.428
					c0,0-1.638,0.856-2.216-0.544C301.146,339.228,299.29,339.879,299.199,337.863z"/>
			</g>
		</g>
		<path fill="#52C164" d="M288.308,273.364c0,0,6.169,20.563,8.253,28.147c0.653,2.38,2.235,25.097,2.515,26.011
			c0.28,0.916,8.105,2.168,8.105,2.168s-0.947-28.419-1.036-29.969c-0.089-1.551-8.635-33.287-11.12-34.418
			c-1.862-0.848-2.845-0.147-5.192,1.595C286.54,269.344,288.308,273.364,288.308,273.364z"/>
		<path fill="#414042" d="M216.176,236.876l5.685,0.798c0,0,0.632,1.064-0.232,1.662c-0.864,0.599-7.115-1.13-7.115-1.13
			S213.582,237.441,216.176,236.876z"/>
		<path fill="#414042" d="M212.901,237.742l2.66,0.72l1.047-1.603l-3.635-0.367C212.974,236.492,212.368,237.385,212.901,237.742z"
			/>
		<path fill="#FFB8A6" d="M211.825,240.632c0,0,0.135,0.799,0.365,1.119c0,0,0.461,0.552,0.767,0.962
			c0.096,0.132,0.177,0.248,0.221,0.329c0.187,0.336,0.494,1.131,1.167,1.813c0.672,0.682,3.291,2.851,3.291,2.851l2.246-1.905
			l2.33-1.044c0,0-1.305-5.672-1.859-6.38c-0.054-0.069-0.109-0.135-0.168-0.192c-0.526-0.554-1.151-0.745-1.46-1.005
			c-0.114-0.095-1.313-0.958-1.74-0.847c-0.593,0.153-0.942,0.502-1.077,0.898c0,0-1.147,0.353-1.596,1.026
			c0,0-1.069,0.292-1.387,1.288C212.925,239.546,211.873,239.963,211.825,240.632z"/>
		<g>
			<g>
				<path fill="#424773" d="M293.312,413.762c0,0,0.563,3.904,0.634,4.49c0.069,0.587,6.257-0.346,6.257-0.346l0.501-4.646
					C300.703,413.26,294.086,413.212,293.312,413.762z"/>
			</g>
		</g>
		<g>
			<g>
				<g>
					<path fill="#58595B" d="M293.879,417.756c0,0-1.959,2.353-3.855,3.378c-1.895,1.025-4.874,1.432-5.995,2.492
						c-0.809,0.767-2.947,4.064,4.926,3.998c7.873-0.067,11.669,0.465,12.514-0.8c0.842-1.264-1.221-9.332-1.221-9.332
						S298.382,418.162,293.879,417.756z"/>
				</g>
			</g>
		</g>
		<g>
			<g>
				<path fill="#424773" d="M248.99,413.762c0,0,0.562,3.904,0.633,4.49c0.07,0.587,6.256-0.346,6.256-0.346l0.501-4.646
					C256.38,413.26,249.763,413.212,248.99,413.762z"/>
			</g>
		</g>
		<g>
			<g>
				<g>
					<path fill="#58595B" d="M249.558,417.756c0,0-1.961,2.353-3.855,3.378c-1.896,1.025-8.872,1.867-9.994,2.929
						c-0.808,0.766-2.153,3.85,8.924,3.562c7.87-0.205,11.669,0.465,12.513-0.8c0.844-1.264-1.221-9.332-1.221-9.332
						S254.167,418.209,249.558,417.756z"/>
				</g>
			</g>
		</g>
		<g>
			<g>
				<path fill="#2D6FA0" d="M288.189,313.458c0,0,5.813,9.234,5.38,17.583c-0.435,8.348,2.107,17.46,2.98,26.181
					c0.973,9.722,4.957,32.735,5.102,37.936c0.145,5.201-0.618,21.805-0.618,21.805l-7.975,0.183c0,0-6.697-40.234-8.432-44.34
					s-10.336-33.373-10.625-36.658C273.712,332.863,288.189,313.458,288.189,313.458z"/>
			</g>
		</g>
		<g>
			<g>
				<path fill="#2D6FA0" d="M257.594,314.709c0,0-4.382,22.879-4.959,27.988c-0.579,5.109-0.963,24.725-1.253,27.918
					s-2.7,41.689-3.469,46.529h10.193c0,0,7.825-28.056,7.825-41.329c0-13.274,6.047-28.857,9.949-37.615
					c3.902-8.759,12.835-8.966,15.234-25.215C291.115,312.985,260.841,309.556,257.594,314.709z"/>
			</g>
		</g>
		<g>
			<g>
				<g>
					<path fill="#FFB8A6" d="M278.491,235.817c0,0-7.802-2.914-11.398,3.025c-3.599,5.938-3.251,17.827,0.681,19.29
						c3.933,1.462,9.84,0.697,11.854-3.02c2.014-3.715,3.831-9.087,3.744-12.678C283.284,238.846,280.539,236.854,278.491,235.817z"
						/>
				</g>
			</g>
		</g>
		<g>
			<g>
				<g>
					<path fill="#FFB8A6" d="M268.62,258.404c0,0,0.326,2.106-0.211,3.145c-0.537,1.037,10.107,1.063,10.107,1.063
						s0.864-5.644,2.503-10.412C282.656,247.432,268.62,258.404,268.62,258.404z"/>
				</g>
			</g>
		</g>
		<g>
			<g>
				<path fill="#414042" d="M281.02,252.2c0,0-0.736,1.213-3.734,0.742s-6.657-4.459-7.909-4.897s-1.264-1.174-1.264-1.174
					l-0.784,1.145l-1.33,0.084c0,0,1.214-3.568-0.616-5.024c-1.83-1.455,1.898-11.552,11.516-8.189c0,0,7.387,2.036,7.119,6.236
					C283.747,245.322,282.672,250.109,281.02,252.2z"/>
			</g>
		</g>
		<g>
			<g>
				<path fill="#4BBF5E" d="M267.777,261.423c0,0,0.033-1.982,0.933-2.172c0.898-0.19,9.919-1.057,11.021-0.624v2.31
					C279.73,260.937,277.606,262.245,267.777,261.423z"/>
			</g>
		</g>
		<g>
			<g>
				<path fill="#FFB8A6" d="M268.311,245.343c0.168-0.705,1.96-2.718,2.646-0.563c0.687,2.157-1.036,5.057-1.997,4.809
					C267.999,249.34,267.885,247.129,268.311,245.343z"/>
			</g>
		</g>
		<g>
			<g>
				<path fill="#52C164" d="M252.858,264.425c6.184-0.813,14.919-3.002,14.919-3.002l11.954-0.487c0,0,10.973,2.416,15.293,4.368
					c0.41,0.185,0.411,9.787,1.536,12.305l-3.582,7.559c0,0-2.069,14.971-2.499,21.629c-0.197,3.057,4.268,28.661,4.268,28.661
					s-4.785,1.409-12.943,2.309c-8.159,0.898-28.544-0.325-28.673-1.288c-0.128-0.966,3.948-35.883,4.129-37.691
					c0.276-2.775-0.957-17.523-0.957-17.523c-1.884-1.462-18.423-9.14-22.935-13.14c-1.208-1.071-6.305-6.034-7.754-7.747
					c-5.131-6.067-9.336-11.271-9.848-12.394c-0.582-0.638,5.574-3.984,6.133-4.17c0.488-0.163,7.424,8.822,10.093,11.715
					c1.19,1.288,6.138,4.887,6.138,4.887S248.989,264.647,252.858,264.425z"/>
			</g>
		</g>
		<g>
			<g>
				<path fill="#414042" d="M280.714,236.519c0,0,9.946,0.778,0.306,15.682L280.714,236.519z"/>
			</g>
		</g>
		<polygon fill="#414042" points="212.901,237.742 211.572,237.071 212.974,236.492 		"/>
	</g>
</g>
</svg>
