<?xml version="1.0" encoding="UTF-8"?>
<svg preserveAspectRatio="none" width="100%" height="100%" viewBox="0 0 346 2359" version="1.1" xmlns="http://www.w3.org/2000/svg" xmlns:xlink="http://www.w3.org/1999/xlink">
    <!-- Generator: Sketch 47.1 (45422) - http://www.bohemiancoding.com/sketch -->
    <title>e-hero-gradient-merged-mobile copy</title>
    <desc>Created with Sketch.</desc>
    <defs>
        <linearGradient x1="100%" y1="100%" x2="-7.97507225%" y2="-9.77895288%" id="linearGradient-1">
            <stop stop-color="#3EBB64" offset="0%"></stop>
            <stop stop-color="#337AB7" offset="100%"></stop>
        </linearGradient>
        <linearGradient x1="64.4839657%" y1="9.96870018%" x2="65.5121863%" y2="85.6001583%" id="linearGradient-2">
            <stop stop-color="#FFFFFF" stop-opacity="0.04" offset="1.4847736%"></stop>
            <stop stop-color="#FFFFFF" stop-opacity="0.4" offset="100%"></stop>
        </linearGradient>
        <linearGradient x1="63.9813031%" y1="-31.6726505%" x2="63.9813006%" y2="122.700682%" id="linearGradient-3">
            <stop stop-color="#FFFFFF" stop-opacity="0.04" offset="0%"></stop>
            <stop stop-color="#FFFFFF" stop-opacity="0.4" offset="100%"></stop>
        </linearGradient>
    </defs>
    <g id="development" stroke="none" stroke-width="1" fill="none" fill-rule="evenodd">
        <g id="e-hero-gradient-merged-mobile-copy">
            <polygon id="gr-bg" fill="#F9F9F9" points="0 580.515625 346 580.515625 346 2358 0 2332.55018"></polygon>
            <polygon id="gr-str" fill="#F6F5F5" transform="translate(173.000000, 2340.000000) scale(-1, 1) translate(-173.000000, -2340.000000) " points="0 2330.79556 346 2321 346 2333.54756 0 2359"></polygon>
            <polygon id="grad-bg" fill="url(#linearGradient-1)" points="0 0 346 0 346 606.597656 0 650.871707"></polygon>
            <polygon id="grad-str-1" fill="url(#linearGradient-2)" points="0.00357306351 623.332548 346 598 345.998999 607.155668 0 651"></polygon>
            <polygon id="grad-str-2" fill="url(#linearGradient-3)" transform="translate(172.364606, 626.095929) rotate(-5.800000) translate(-172.364606, -626.095929) " points="-0.606981477 618.773961 346.864606 618.595929 346.312151 623.953428 -2.13539408 633.595929"></polygon>
        </g>
    </g>
</svg>