<?xml version="1.0" encoding="utf-8"?>
<!-- Generator: Adobe Illustrator 16.0.0, SVG Export Plug-In . SVG Version: 6.00 Build 0)  -->
<!DOCTYPE svg PUBLIC "-//W3C//DTD SVG 1.1//EN" "http://www.w3.org/Graphics/SVG/1.1/DTD/svg11.dtd">
<svg version="1.1" id="Layer_1" xmlns="http://www.w3.org/2000/svg" xmlns:xlink="http://www.w3.org/1999/xlink" x="0px" y="0px"
	 width="409.259px" height="455.556px" viewBox="0 0 409.259 455.556" enable-background="new 0 0 409.259 455.556"
	 xml:space="preserve">
<g id="Papers">
	
		<rect x="132.904" y="33.285" transform="matrix(0.9979 -0.0651 0.0651 0.9979 -11.6339 16.7841)" fill="#FFFFFF" width="238.031" height="307.517"/>
	
		<rect x="132.904" y="33.285" fill="#FFFFFF" stroke="#E6E7E8" stroke-width="0.75" stroke-miterlimit="10" width="238.03" height="307.517"/>
</g>
<g id="Lines">
	<circle fill="#F5DAE6" cx="162.535" cy="65.344" r="21.437"/>
	<rect x="188.038" y="55.125" fill="#DAD9D9" width="36.712" height="9.012"/>
	<g>
		<g>
			<rect x="150.472" y="98.72" fill="#B6B6B6" width="37.146" height="7.797"/>
			<rect x="150.472" y="110.733" fill="#DAD9D9" width="89.155" height="2.085"/>
			<rect x="150.472" y="116.233" fill="#DAD9D9" width="75.821" height="2.085"/>
		</g>
		<g>
			<rect x="259.756" y="98.72" fill="#B6B6B6" width="37.146" height="7.797"/>
			<rect x="259.805" y="110.733" fill="#DAD9D9" width="55.612" height="2.085"/>
			<rect x="259.805" y="116.233" fill="#DAD9D9" width="75.821" height="2.085"/>
		</g>
	</g>
	<g>
		<g>
			<rect x="150.472" y="137.352" fill="#B6B6B6" width="37.146" height="7.797"/>
			<rect x="150.472" y="149.277" fill="#DAD9D9" width="11.015" height="2.085"/>
			<rect x="164.222" y="149.277" fill="#DAD9D9" width="27.528" height="2.085"/>
			<rect x="195.722" y="149.277" fill="#DAD9D9" width="29.778" height="2.085"/>
			<rect x="150.472" y="160.277" fill="#DAD9D9" width="23.528" height="2.085"/>
			<rect x="178.222" y="160.277" fill="#DAD9D9" width="12.528" height="2.085"/>
			<rect x="195.722" y="160.277" fill="#DAD9D9" width="24.028" height="2.085"/>
			<rect x="150.472" y="154.777" fill="#DAD9D9" width="75.821" height="2.085"/>
		</g>
		<g>
			<rect x="259.756" y="137.352" fill="#B6B6B6" width="37.146" height="7.797"/>
			<rect x="259.805" y="150.277" fill="#DAD9D9" width="26.278" height="2.085"/>
			<rect x="289.805" y="150.277" fill="#DAD9D9" width="26.278" height="2.085"/>
			<rect x="319.999" y="150.277" fill="#DAD9D9" width="8.945" height="2.085"/>
			<rect x="259.805" y="155.777" fill="#DAD9D9" width="75.821" height="2.085"/>
		</g>
	</g>
	<g>
		<g>
			<rect x="150.472" y="200.968" fill="#B6B6B6" width="37.146" height="7.796"/>
			<rect x="150.472" y="211.944" fill="#DAD9D9" width="64.778" height="2.086"/>
			<rect x="150.472" y="217.444" fill="#DAD9D9" width="30.778" height="2.086"/>
			<rect x="184.472" y="217.444" fill="#DAD9D9" width="30.778" height="2.086"/>
		</g>
		<g>
			<rect x="259.756" y="200.968" fill="#B6B6B6" width="37.146" height="7.796"/>
			<rect x="259.756" y="211.944" fill="#DAD9D9" width="90.279" height="2.086"/>
			<rect x="259.756" y="217.444" fill="#DAD9D9" width="30.778" height="2.086"/>
			<rect x="293.756" y="217.444" fill="#DAD9D9" width="30.778" height="2.086"/>
		</g>
	</g>
	<g>
		<rect x="150.472" y="274.138" fill="#B6B6B6" width="37.146" height="7.797"/>
		<rect x="150.521" y="286.069" fill="#DAD9D9" width="67.279" height="2.086"/>
		<rect x="150.521" y="291.569" fill="#DAD9D9" width="75.821" height="2.086"/>
	</g>
	<g>
		<g>
			<rect x="259.756" y="236.437" fill="#B6B6B6" width="37.146" height="7.795"/>
			<g>
				<rect x="259.756" y="253.052" fill="#DAD9D9" width="21.298" height="3.459"/>
				<rect x="284.09" y="254.188" fill="#DAD9D9" width="27.277" height="1.188"/>
			</g>
			<g>
				<rect x="259.756" y="265.331" fill="#DAD9D9" width="21.298" height="3.461"/>
				<rect x="284.09" y="266.468" fill="#DAD9D9" width="43.611" height="1.188"/>
			</g>
			<g>
				<rect x="259.756" y="277.61" fill="#DAD9D9" width="21.298" height="3.461"/>
				<rect x="284.09" y="278.747" fill="#DAD9D9" width="51.277" height="1.188"/>
			</g>
			<g>
				<rect x="259.756" y="289.892" fill="#DAD9D9" width="21.298" height="3.459"/>
				<rect x="284.09" y="291.028" fill="#DAD9D9" width="35.649" height="1.188"/>
			</g>
		</g>
		<g>
			<rect x="150.472" y="236.437" fill="#B6B6B6" width="37.146" height="7.795"/>
			<rect x="150.472" y="248.61" fill="#DAD9D9" width="46.155" height="2.086"/>
			<rect x="150.472" y="254.11" fill="#DAD9D9" width="23.155" height="2.086"/>
			<rect x="175.305" y="254.11" fill="#DAD9D9" width="36.779" height="2.086"/>
		</g>
	</g>
	<rect x="188.357" y="67.902" fill="#DAD9D9" width="68.321" height="2.377"/>
</g>
<g id="Pin">
	<path opacity="0.6" fill="#A0A0A0" d="M333.693,17.808h-2.144c-4.733,0-8.584,3.851-8.584,8.584v2.142h2.882v-2.142
		c0-3.143,2.559-5.702,5.702-5.702h2.144c3.145,0,5.702,2.559,5.702,5.702V61.57c0,1.384-1.127,2.511-2.512,2.511h-4.272
		c-1.385,0-2.511-1.126-2.511-2.511V38.134c0-0.796-0.646-1.441-1.442-1.441c-0.795,0-1.441,0.645-1.441,1.441V61.57
		c0,2.974,2.42,5.393,5.395,5.393h4.272c2.974,0,5.393-2.419,5.393-5.393V26.392C342.276,21.658,338.428,17.808,333.693,17.808z"/>
	<path fill="#26A69A" d="M332.46,17.808h-2.143c-4.733,0-8.585,3.851-8.585,8.584v2.142h2.884v-2.142
		c0-3.143,2.558-5.702,5.701-5.702h2.143c3.146,0,5.703,2.559,5.703,5.702V61.57c0,1.384-1.128,2.511-2.513,2.511h-4.272
		c-1.383,0-2.511-1.126-2.511-2.511V38.134c0-0.796-0.645-1.441-1.441-1.441c-0.795,0-1.44,0.645-1.44,1.441V61.57
		c0,2.974,2.419,5.393,5.393,5.393h4.272c2.976,0,5.395-2.419,5.395-5.393V26.392C341.045,21.658,337.195,17.808,332.46,17.808z"/>
</g>
<g id="Char2">
	<path fill="#FFB8A6" d="M62.415,287.3c-0.567,2.508-6.987,2.961-6.987,2.961"/>
	<path fill="#A7A9AC" d="M149.612,420.966c0,0-27.411,4.412-61.224,4.412c-33.812,0-61.222-4.412-61.222-4.412
		s27.41-4.408,61.222-4.408C122.201,416.558,149.612,420.966,149.612,420.966z"/>
	<g>
		<g>
			<path fill="#A97C50" d="M72.758,421.419L86.99,223.317c0.153-2.135-1.536-3.952-3.678-3.952l0,0
				c-1.934,0-3.538,1.494-3.677,3.422L65.365,421.419H72.758z"/>
		</g>
	</g>
	<g>
		<g>
			<g>
				<path fill="#A97C50" d="M127.048,247.317c-0.087,0-0.173-0.002-0.26-0.008l-43.849-3.053c-2.032-0.143-3.563-1.902-3.422-3.934
					c0.142-2.033,1.903-3.563,3.934-3.422l43.849,3.049c2.03,0.143,3.563,1.904,3.423,3.936
					C130.587,245.829,128.967,247.317,127.048,247.317z"/>
			</g>
			<g>
				<path fill="#A97C50" d="M125.478,269.88c-0.086,0-0.173-0.002-0.26-0.01l-43.849-3.049c-2.03-0.143-3.563-1.904-3.423-3.936
					c0.142-2.031,1.905-3.561,3.935-3.422l43.849,3.051c2.032,0.141,3.563,1.902,3.422,3.934
					C129.017,268.394,127.396,269.88,125.478,269.88z"/>
			</g>
			<g>
				<path fill="#A97C50" d="M123.907,292.442c-0.086,0-0.172-0.004-0.26-0.01L79.8,289.382c-2.032-0.141-3.564-1.9-3.422-3.934
					c0.142-2.031,1.905-3.561,3.934-3.422l43.849,3.051c2.03,0.141,3.563,1.902,3.422,3.934
					C127.447,290.956,125.827,292.442,123.907,292.442z"/>
			</g>
			<g>
				<path fill="#A97C50" d="M122.338,315.005c-0.086,0-0.172-0.002-0.26-0.01l-43.849-3.049c-2.031-0.143-3.563-1.904-3.423-3.934
					c0.142-2.033,1.909-3.563,3.935-3.424l43.849,3.051c2.031,0.143,3.563,1.902,3.422,3.934
					C125.877,313.519,124.257,315.005,122.338,315.005z"/>
			</g>
			<g>
				<path fill="#A97C50" d="M120.768,337.567c-0.086,0-0.173-0.002-0.26-0.008l-43.849-3.053c-2.031-0.141-3.563-1.9-3.421-3.934
					c0.141-2.029,1.908-3.561,3.934-3.422l43.848,3.051c2.031,0.141,3.564,1.902,3.422,3.936
					C124.307,336.079,122.688,337.567,120.768,337.567z"/>
			</g>
			<g>
				<path fill="#A97C50" d="M119.198,360.132c-0.086,0-0.173-0.004-0.26-0.012l-43.849-3.049c-2.031-0.143-3.563-1.904-3.423-3.934
					c0.142-2.033,1.912-3.563,3.935-3.422l43.849,3.049c2.03,0.143,3.563,1.904,3.422,3.934
					C122.737,358.644,121.117,360.132,119.198,360.132z"/>
			</g>
			<g>
				<path fill="#A97C50" d="M117.628,382.692c-0.086,0-0.173-0.002-0.26-0.008l-43.849-3.051c-2.031-0.141-3.563-1.902-3.422-3.936
					c0.142-2.029,1.912-3.561,3.935-3.422l43.848,3.053c2.031,0.141,3.563,1.9,3.423,3.934
					C121.167,381.206,119.548,382.692,117.628,382.692z"/>
			</g>
			<g>
				<path fill="#A97C50" d="M116.059,405.257c-0.087,0-0.172-0.002-0.26-0.01l-43.849-3.051c-2.031-0.143-3.563-1.902-3.423-3.934
					c0.142-2.033,1.914-3.564,3.934-3.424l43.85,3.051c2.031,0.143,3.563,1.904,3.422,3.936
					C119.598,403.769,117.978,405.257,116.059,405.257z"/>
			</g>
		</g>
	</g>
	<g>
		<path fill="#A97C50" d="M119.957,421.419l14.233-198.102c0.152-2.135-1.538-3.952-3.678-3.952l0,0
			c-1.935,0-3.539,1.494-3.679,3.422l-14.27,198.631H119.957z"/>
	</g>
	<path fill="#2D6FA0" d="M79.021,283.263c0,0-7.684,76.412-6.153,90.162l7.57-0.297l21.043-99.006L79.021,283.263z"/>
	<path fill="#5DDB77" d="M108.097,328.462l-4.991,0.068c-5.044-17.873,1.026-28.455,1.026-28.455s-23.277-2.346-29.005-9.684
		c-1.758-2.248-2.322-5.596-2.254-9.156c0.086-4.633,1.238-9.625,2.197-13.031c0.707-2.516,1.318-4.164,1.318-4.164
		s-1.354-8.459-2.757-17.959c-0.53-3.588-1.073-7.332-1.551-10.818c-1.045-7.588-1.798-13.971-1.542-14.998l11.69-3.971l15.278-2.14
		c0,0,11.074,1.301,14.058,3.823c2.979,2.516-10.087,56.144-10.087,56.144s16.271,7.336,17.875,12.373
		C120.963,291.538,108.097,328.462,108.097,328.462z"/>
	<g>
		<path fill="#FFB8A6" d="M97.506,214.157c0,0-1.146,7.484-7.183,7.636c-6.041,0.156-8.094-5.5-8.094-5.5l4.276-0.916l-0.473-2.48
			l-0.963-5.061l5.51,0.894l1.128,4.809l0.146,0.619H97.506z"/>
		<path fill="#FF938A" d="M91.708,213.538c-2.613,0.334-4.479-0.119-5.675-0.642l-0.963-5.061l5.51,0.894L91.708,213.538z"/>
	</g>
	<path fill="#FFB8A6" d="M98.271,196.817c0,0,1.341,14.711-4.126,15.38c-11,1.347-11.916-13.473-11.916-13.473L98.271,196.817z"/>
	<g>
		<path fill="#58595B" d="M72.867,373.425c0,0,3.322-3.23,8.843-2.209c3.352,0.621,5.521,4.051,5.521,4.051v1.662H72.867V373.425z"
			/>
	</g>
	<path fill="#5DDB77" d="M76.371,235.505c-0.109,1.723-0.429,3.496-0.901,5.271c-0.479,1.777-1.113,3.564-1.838,5.305
		c-3.845,9.232-10.332,17.305-10.332,17.305l-7.873,3.205l-3.959,1.613c-4.849-18.904,19.071-47.939,19.071-47.939
		S77.135,222.935,76.371,235.505z"/>
	<path fill="#4BBF5E" d="M75.47,240.776c-1.496-4.436-2.603-7.402-2.603-7.402l-0.786,1.889l-11.31,27.211h3.231
		c1.78-2.355,6.551-9,9.629-16.393c1.403,9.5,2.757,17.959,2.757,17.959s-0.611,1.648-1.318,4.164
		c-0.959,3.406-2.111,8.398-2.197,13.031c4.467,0.924,9.34,0.588,10.304-4.799C84.471,269.181,78.927,251.044,75.47,240.776z"/>
	<path fill="#337AB7" d="M108.096,328.464l-4.992,0.068c-5.042-17.875,1.026-28.457,1.026-28.457s-23.276-2.346-29.005-9.682
		c-4.044-5.174-1.756-16.16-0.057-22.189l26.412,5.918c0,0,16.271,7.336,17.876,12.377
		C120.961,291.542,108.096,328.464,108.096,328.464z"/>
	<g>
		<path fill="#58595B" d="M103.104,328.532c0,0,3.322-3.23,8.843-2.207c3.352,0.621,5.521,4.047,5.521,4.047v1.662h-14.363V328.532z
			"/>
	</g>
	<g>
		
			<rect x="51.518" y="214.88" transform="matrix(-0.7749 0.6321 -0.6321 -0.7749 352.1795 324.9333)" fill="#FF980D" width="133.414" height="20.606"/>
		
			<rect x="49.403" y="215.633" transform="matrix(-0.7749 0.6321 -0.6321 -0.7749 346.7873 321.6711)" fill="#FFC559" width="133.415" height="13.917"/>
		
			<rect x="47.204" y="216.416" transform="matrix(-0.7749 0.6321 -0.6321 -0.7749 341.1796 318.2758)" fill="#FFD953" width="133.415" height="6.958"/>
	</g>
	<path fill="#FFFFFF" d="M62.96,286.675c-0.103,0.193-0.242,0.357-0.412,0.502c-1.426,1.195-4.945,0.762-4.945,0.762l-12.518-15.346
		c0,0,0.405-3.096,1.12-4.977c0.713-1.875,7.495-3.086,7.495-3.086s0.663-2.791,1.463-4.133c0.663-1.105,3.518-1.088,4.512-1.047
		c0.222,0.01,0.349,0.02,0.349,0.02l13.025,15.965c0,0-0.966,3.896-2.439,5.266c-1.475,1.367-5.419,1.836-5.419,1.836
		S63.904,284.866,62.96,286.675z"/>
	<path fill="#D1D3D4" d="M49.971,295.2c-7.906-1.752-14.062-15.121-14.062-15.121c0.106-0.604,9.176-7.486,9.176-7.486l2.287,2.709
		l10.488,12.424l-6.394,6.057L49.971,295.2z"/>
	<path fill="#BCBEC0" d="M49.971,295.2c-7.906-1.752-14.062-15.121-14.062-15.121c0.106-0.604,9.176-7.486,9.176-7.486l2.287,2.709
		c-1.184,1.262-2.083,3.047-2.287,4.762c-0.268,2.254,0.669,4.465,1.673,6.502c1.273,2.582,2.744,5.146,4.709,7.217L49.971,295.2z"
		/>
	<polygon fill="#FFDABA" points="176.429,190.999 163.404,175.033 181.84,168.395 188.784,165.896 192.568,164.534 186.094,174.923 
		178.852,186.552 	"/>
	<path fill="#3E3662" d="M186.094,174.923c-2.019-1.668-3.498-4.001-4.254-6.528l6.944-2.5l3.784-1.362L186.094,174.923z"/>
	<g>
		<polygon fill="#FFD953" points="163.4,175.032 168.512,175.784 167.8,180.422 174.015,179.669 172.198,185.815 176.23,187.36 
			176.427,190.999 		"/>
		<polygon fill="#FFC559" points="172.197,185.813 167.8,180.422 174.014,179.669 		"/>
		<polygon fill="#FF980D" points="176.427,190.999 172.197,185.813 176.231,187.36 		"/>
	</g>
	<path fill="#FFB8A6" d="M134.994,220.413c0,0-2.233-5.468-1.188-5.753c1.046-0.285,1.614,1.159,1.614,1.159
		s0.572-7.055,3.378-7.291c2.805-0.239,2.899,11.367,2.899,11.367L134.994,220.413z"/>
	<path fill="#4BBF5E" d="M117.077,239.419c0,0,11.975,4.195,17.821-1.082c5.85-5.277,7.668-19.713,7.668-19.713l-9.093,1.271
		l-1.535,7.397L117.077,239.419z"/>
	<path fill="#FFB8A6" d="M55.428,290.261c0,0-3.317-6.996,0.809-8.498c3.226-1.176,6.179,5.537,6.179,5.537"/>
	<path fill="#414042" d="M83.087,202.904c0,0-9.573-0.265-7.269-5.496c0,0-2.483-3.812,2.481-4.255c0,0-0.886-5.765,7.713-4.079
		c0,0,0.797-7.003,9.663-3.812c0,0,5.143,0.53,5.409,4.875c0,0,5.851,5.496-0.444,7.447
		C100.641,197.584,88.318,197.761,83.087,202.904z"/>
</g>
</svg>
