<?xml version="1.0" encoding="UTF-8"?>
<svg width="35px" height="35px" viewBox="0 0 35 35" version="1.1" xmlns="http://www.w3.org/2000/svg" xmlns:xlink="http://www.w3.org/1999/xlink">
    <!-- Generator: Sketch 47.1 (45422) - http://www.bohemiancoding.com/sketch -->
    <title>linkedin-logo</title>
    <desc>Created with Sketch.</desc>
    <defs></defs>
    <g id="final" stroke="none" stroke-width="1" fill="none" fill-rule="evenodd">
        <g id="employer-design-04-and-social" transform="translate(-737.000000, -5803.000000)" fill-rule="nonzero" fill="#FFFFFF">
            <g id="linkedin-logo" transform="translate(737.000000, 5803.000000)">
                <path d="M32.4155629,0 L2.58606459,0 C1.15770739,0 0,1.12237805 0,2.50767231 L0,32.4912698 C0,33.8766455 1.15811426,35 2.58606459,35 L32.4155629,35 C33.8435946,35 35,33.8759131 35,32.4912698 L35,2.50767231 C35,1.12278491 33.8435946,0 32.4155629,0 Z M10.6110022,29.2973789 L5.32275239,29.2973789 L5.32275239,13.4953083 L10.6110022,13.4953083 L10.6110022,29.2973789 Z M7.96740624,11.3364821 L7.93184582,11.3364821 C6.15846301,11.3364821 5.00889301,10.1236986 5.00889301,8.60535946 C5.00889301,7.05642405 6.1922332,5.87651528 8.00076957,5.87651528 C9.80946867,5.87651528 10.9220135,7.05609856 10.9571671,8.60535946 C10.9571671,10.1240241 9.80987554,11.3364821 7.96740624,11.3364821 Z M29.6735858,29.2973789 L24.3870448,29.2973789 L24.3870448,20.8427222 C24.3870448,18.7183168 23.6210717,17.2687379 21.7092717,17.2687379 C20.2467375,17.2687379 19.3785587,18.2466788 18.9973216,19.19085 C18.8560564,19.5280597 18.8210656,19.9996978 18.8210656,20.4706848 L18.8210656,29.2970534 L13.5355011,29.2970534 C13.5355011,29.2970534 13.604669,14.9771109 13.5355011,13.4950641 L18.8218794,13.4950641 L18.8218794,15.7353447 C19.5236484,14.6588611 20.7777026,13.1232708 23.585023,13.1232708 C27.0645737,13.1232708 29.6735858,15.380477 29.6735858,20.2364119 L29.6735858,29.2973789 Z M18.7877023,15.7969888 C18.7988023,15.7787888 18.8143023,15.7568888 18.8297023,15.7355888 L18.8297023,15.7969888 L18.7877023,15.7969888 Z" id="LinkedIn__x28_alt_x29_"></path>
            </g>
        </g>
    </g>
</svg>