<?xml version="1.0" encoding="UTF-8" standalone="no"?>
<svg
   xmlns:dc="http://purl.org/dc/elements/1.1/"
   xmlns:cc="http://creativecommons.org/ns#"
   xmlns:rdf="http://www.w3.org/1999/02/22-rdf-syntax-ns#"
   xmlns:svg="http://www.w3.org/2000/svg"
   xmlns="http://www.w3.org/2000/svg"
   viewBox="0 0 100 78.666664"
   height="78.666664"
   width="100"
   xml:space="preserve"
   id="svg2"
   version="1.1"><metadata
     id="metadata8"><rdf:RDF><cc:Work
         rdf:about=""><dc:format>image/svg+xml</dc:format><dc:type
           rdf:resource="http://purl.org/dc/dcmitype/StillImage" /></cc:Work></rdf:RDF></metadata><defs
     id="defs6" /><g
     transform="matrix(1.3333333,0,0,-1.3333333,0,78.666667)"
     id="g10"><g
       transform="scale(0.1)"
       id="g12"><path
         id="path14"
         style="fill:#337AB7;fill-opacity:1;fill-rule:evenodd;stroke:none"
         d="m 184.602,205.434 h 28.207 c 0.582,2.183 4.418,6.14 5.793,7.961 l 7.691,9.234 c 3.809,4.285 7.375,8.809 11.465,12.863 0.613,0.61 1.004,0.977 1.558,1.613 0.047,0.055 0.114,0.137 0.164,0.192 l 8.321,8.601 c 4.844,4.899 13.031,11.86 18.363,16.196 l 11.824,8.621 c 0.739,0.512 1.371,0.89 2.121,1.41 0.746,0.512 1.368,0.891 2.114,1.406 l 21.324,12.883 c 0.91,0.457 1.539,0.797 2.355,1.168 7.504,3.398 14.84,6.449 23.168,7.863 4.004,0.68 8.688,1.313 12.793,1.313 4.219,0 8.09,-0.551 12.133,-1.262 5.219,-0.918 10.422,-2.433 15.133,-4.965 9.523,-5.105 17.055,-13.758 21.68,-23.457 1.601,-3.371 3.457,-7.937 3.152,-11.832 -0.258,-3.234 -1.902,-7.847 -5.91,-7.847 -6.278,0 -8.918,2.437 -12.969,6.777 -0.805,0.863 -1.023,1.496 -1.695,2.535 -2.754,4.262 -6.602,8.219 -10.961,10.902 -1.942,1.196 -3.516,2.164 -5.633,3.176 -7.355,3.524 -15.863,4.543 -23.941,3.246 l -12.934,-2.933 c -11.027,-3.2 -25.203,-11.809 -34.074,-18.461 L 270.18,239.742 c -0.711,-0.594 -0.856,-0.582 -1.578,-1.25 l -28.239,-29.933 c -0.867,-1.063 -1.769,-1.637 -2.168,-3.125 2.2,0 29.305,-0.528 30.602,0.425 1.348,0.989 2.82,3.524 4.043,4.774 0.484,0.496 0.59,0.625 1,1.117 0.051,0.051 0.113,0.133 0.164,0.188 4.859,5.816 11.926,12.179 17.754,17.152 l 0.578,0.48 c 3.68,3.118 7.598,5.762 11.543,8.555 2.613,1.848 5.691,3.324 8.512,4.887 1.078,0.597 2.007,1.101 3.031,1.554 l 6.391,2.778 c 9.558,3.633 19.199,5.621 28.496,0.035 5.769,-3.465 9.097,-9.395 11.254,-15.543 0.363,-1.031 0.472,-2.016 0.789,-3.09 2.453,-8.391 1.371,-15.078 1.371,-23.312 h 20.449 c 1.738,7.464 -2.152,23.996 5.465,29.793 3.218,2.453 8.054,1.125 10.043,-1.942 4.215,-6.512 3.886,-19.5 3.886,-27.851 h 21.508 c 0,9.882 -0.133,20.722 -1.476,29.906 -2.993,20.48 -9.008,40.91 -21.95,57.387 -39.851,50.738 -119.5,17.046 -158.773,-21.098 -0.91,-0.887 -1.387,-1.043 -2.305,-1.926 l -9.882,-9.512 c -0.227,-0.207 -0.387,-0.343 -0.559,-0.496 -6.106,-5.57 -11.621,-11.996 -17.234,-18.027 -4.68,-5.027 -9.469,-10.879 -13.688,-16.285 -3.758,-4.817 -7.707,-9.531 -11.148,-14.59 -1.036,-1.52 -3.051,-3.621 -3.457,-5.359" /><path
         id="path16"
         style="fill:#337AB7;fill-opacity:1;fill-rule:evenodd;stroke:none"
         d="m 475.496,144.082 c 0,1.227 0.504,2.82 1.762,2.82 h 23.976 V 128.57 c 0,-6.718 -1.535,-7.054 -5.289,-7.054 -8.496,0 -20.449,12.359 -20.449,22.566 z m -110.012,26.094 h 26.797 v -32.793 c 0,-2.149 -4.136,-4.43 -5.883,-5.403 -5.343,-2.976 -9.261,-3.371 -14.925,-1.656 -4.797,1.453 -7.926,5.614 -10.442,9.672 -1.426,2.305 -0.488,2.203 0.86,4.152 7.55,10.907 3.593,20.665 3.593,26.028 z m -167.484,0 h 10.578 c 2.133,0 3.949,-2.692 4.742,-4.43 1.231,-2.703 1.68,-4.234 1.957,-7.562 l -4.379,-5.137 c -0.511,-0.742 -0.808,-1.27 -1.265,-1.91 -0.863,-1.207 -1.797,-2.574 -2.403,-3.946 -0.742,-1.683 -1.132,-3.082 -1.699,-5 -1.297,-4.39 -2.898,-11.586 -0.828,-16.089 2.113,-4.598 7.242,-2.895 10.656,-0.082 0.7,0.574 1.153,0.824 1.774,1.398 l 2.781,3.211 c 3.969,4.863 9.469,13.797 9.469,21.211 0.351,0.094 10.523,7.129 13.047,8.461 1.25,-1.871 5.652,-8.348 4.547,-10.528 -2.036,-4.003 -10.192,-9.011 -10.192,-25.437 0,-14.188 7.211,-15.84 14.199,-8.559 3.512,3.657 6.172,9.836 7.883,14.688 1.367,3.883 1.543,4.609 1.543,9.738 2.121,1.125 7.172,5.953 13.399,7.406 v -39.843 h 14.457 v 62.41 h 25.035 v -31.031 h 14.457 v 31.031 h 22.566 c 0.387,-1.672 1.106,-3.203 1.321,-4.676 0.886,-6.055 0.64,-9.977 -2.262,-15.187 -2.203,-3.95 -4.34,-5.34 -5.406,-6.938 3.382,-6.387 6.199,-11.844 11.543,-17.016 0.406,-0.394 0.48,-0.457 0.925,-0.836 0.078,-0.066 0.305,-0.257 0.383,-0.324 l 0.574,-0.48 c 1.883,-1.606 4.008,-3.227 6.274,-4.305 7.304,-3.488 13.726,-4.305 21.773,-1.59 1.278,0.438 2.196,0.703 3.414,1.176 l 3.418,1.516 v -13.75 h 13.399 c 0.812,0 1.058,0.242 1.058,1.058 v 61.352 h 24.328 v -31.031 h 14.809 v 31.031 h 55.359 v -10.227 c -9.285,0 -19.582,0.512 -28.586,-0.679 -2.515,-0.332 -4.281,-1.051 -5.98,-2.129 -4.957,-3.153 -5.629,-7.059 -5.629,-12.707 0,-12.086 9.055,-22.77 17.738,-29.86 8.493,-6.933 22.821,-9.636 31.192,-1.441 2.758,2.695 5.371,8.008 5.371,13.316 v 43.727 h 15.16 v 12.34 H 273.809 v -20.805 c -2.918,-0.066 -8.332,-2.563 -10.778,-4.031 l -2.976,-1.961 c -0.563,6.777 -7.137,14.277 -12.09,18.582 -2.106,1.828 -2.121,1.644 -5.051,0.679 -5.269,-1.742 -7.676,-2.152 -12.07,-5.21 l -3.578,-2.418 c -0.297,3.543 -5.059,9.894 -7.348,12.75 -1.09,1.363 -1.945,2.414 -4.289,2.414 H 198 v -12.34" /><path
         id="path18"
         style="fill:#337AB7;fill-opacity:1;fill-rule:evenodd;stroke:none"
         d="m 190.949,275.246 c 0,-1.664 0.879,-3.734 1.699,-4.644 6.059,-6.739 16.641,4.406 21.723,8.375 l 3.621,3.078 c 0.742,0.621 1.074,1.113 1.817,1.707 0.886,0.711 1.054,0.781 1.902,1.625 3.434,3.418 14.707,13.004 18.75,16.156 0.75,0.59 1.336,0.969 2.016,1.512 8.539,6.859 18.171,12.316 27.519,17.965 35.211,21.273 83.004,31.585 121.414,12.238 9.817,-4.942 20.445,-13.301 27.117,-21.891 4.133,-5.316 7.887,-10.683 11.371,-16.484 3.606,-6.008 6.934,-12.547 8.926,-19.278 2.203,-7.425 2.59,-7.929 4.59,-16.214 4.117,-17.032 4.227,-34.2 4.227,-51.84 0,-0.953 -0.168,-0.973 -0.352,-1.762 h 21.859 c 0.036,1.59 0.352,1.399 0.352,3.172 v 15.867 c 0,7.531 -1.328,22.895 -2.562,29.875 l -4.336,19.996 -3.899,12.317 c -4.781,13.39 -11.992,25.066 -20.582,36.187 l -3.797,4.317 c -0.383,0.382 -0.504,0.511 -0.851,0.91 l -18.368,16.187 c -0.953,0.68 -1.527,0.977 -2.523,1.707 -3.453,2.52 -7.277,4.953 -11.172,6.809 l -4.195,2.152 c -1.899,0.844 -3.801,1.633 -5.645,2.465 -1.875,0.852 -3.832,1.422 -5.879,2.227 -37.722,14.89 -85.093,2.554 -119.16,-16.098 -14.508,-7.941 -27.801,-17.289 -40.429,-27.977 l -4.039,-3.363 c -0.797,-0.738 -1.083,-1.176 -1.997,-1.883 l -6.339,-6.004 c -0.071,-0.07 -0.282,-0.273 -0.36,-0.343 l -5.523,-5.407 c -0.051,-0.054 -0.121,-0.129 -0.172,-0.179 l -1.856,-2.028 c -0.406,-0.445 -0.578,-0.636 -1.023,-1.086 L 192.77,281.188 c -0.805,-1.336 -1.821,-3.946 -1.821,-5.942" /><path
         id="path20"
         style="fill:#337AB7;fill-opacity:1;fill-rule:evenodd;stroke:none"
         d="m 204.699,330.961 c 2.617,1.75 7.114,5.949 9.871,8.109 33.2,21.532 46.375,30.703 82.907,43.68 1.586,0.508 3.027,0.785 4.664,1.324 4.336,1.422 10.293,2.36 14.894,3.09 14.504,2.305 29.977,3.352 44.637,1.684 13.215,-1.5 18.523,-2.414 30.824,-5.489 5.371,-1.343 10.688,-3.285 15.652,-5.507 l 2.637,-1.239 c 0.656,-0.328 0.363,-0.222 0.918,-0.496 4.508,-2.23 9.09,-4.648 13.168,-7.633 6.027,-4.402 11.008,-8.316 15.844,-12.714 l 11.461,-12.168 c 0.804,-0.997 1.551,-1.825 2.406,-2.879 0.856,-1.051 1.484,-1.961 2.277,-3.012 4.11,-5.473 7.946,-11.305 11.254,-17.309 0.242,-0.433 0.235,-0.386 0.496,-0.91 l 10.246,-22.195 c 3.399,-9.609 5.856,-18.246 8.563,-28.109 l 1.73,-8.844 c 0.321,-1.656 0.582,-2.735 0.899,-4.391 l 1.324,-8.902 c 0.262,-3.18 0.762,-6.215 1.082,-9.5 1.176,-12.145 -2.59,-32.117 9.84,-32.117 11.34,0 10.227,12.707 10.227,20.8 0,3.793 -0.165,6.59 -0.352,10.231 l -3.316,28.418 c -0.266,1.699 -0.657,2.758 -0.926,4.367 -0.985,5.926 -2.602,11.301 -3.961,17.191 -1.266,5.481 -3.297,10.864 -5.156,16 -0.446,1.231 -0.957,2.696 -1.457,3.829 -0.547,1.226 -0.93,2.441 -1.524,3.765 -0.59,1.32 -1.109,2.477 -1.637,3.653 l -2.449,5.308 c -0.375,0.754 -0.433,1.121 -0.883,1.942 -7.105,12.921 -11.355,20.363 -20.699,32.187 -4.672,5.918 -10.105,11.02 -15.379,16.359 -2.605,2.633 -5.636,5.036 -8.551,7.313 l -6.05,4.531 c -5.16,3.828 -10.731,6.965 -16.367,10.074 -4.629,2.559 -9.645,4.731 -14.606,6.551 -7.301,2.684 -22.148,6.953 -29.289,7.735 -1.777,0.195 -3.063,0.39 -4.59,0.699 -3.015,0.605 -6.215,0.734 -9.461,1.117 -9.109,1.07 -19.406,0.707 -28.59,0.32 l -20.308,-2.961 c -7.297,-1.57 -14.457,-3.09 -21.395,-5.758 -35.898,-14.769 -59.566,-31.367 -85.035,-60.238 -1.476,-1.879 -5.277,-5.816 -5.84,-7.906" /><path
         id="path22"
         style="fill:#337AB7;fill-opacity:1;fill-rule:evenodd;stroke:none"
         d="m 542.488,219.539 v -14.105 h 41.606 c 0,1.875 0.496,2.671 0.359,4.933 l -3.785,33.953 c -0.32,1.672 -0.715,2.676 -1.012,4.278 -0.351,1.945 -0.433,2.797 -0.851,4.437 l -2.153,8.778 c -1.91,6.085 -2.898,9.929 -5.355,16.152 -0.555,1.41 -0.809,2.5 -1.426,3.863 -0.582,1.301 -1.117,2.547 -1.594,3.695 -1.074,2.606 -2.117,5.028 -3.336,7.594 l -3.484,7.094 c -1.344,2.469 -2.461,4.738 -3.824,7.105 -2.871,4.989 -6.867,11.899 -10.156,16.641 l -19.008,24.012 -16.336,15.75 c -6.246,5.312 -11.481,9.609 -18.238,14.203 l -23.45,14.273 c -7.105,3.555 -22.531,10.938 -30.562,12.809 l 10.523,-7.457 c 1.782,-1.313 3.301,-2.387 5.094,-3.723 1.82,-1.359 3.395,-2.644 5.141,-4.027 1.695,-1.34 3.031,-2.664 4.781,-4.035 l 22.871,-22.262 8.312,-9.668 c 6.54,-8.23 15.333,-21.617 20.071,-31.402 l 5.16,-10.711 c 2.519,-5.547 9.898,-23.824 11.277,-29.274 0.817,-3.207 3.242,-11.257 3.735,-14.246 0.418,-2.543 1.031,-4.492 1.504,-7.312 0.187,-1.086 0.601,-2.524 0.82,-3.762 0.258,-1.449 0.266,-2.773 0.492,-4.094 1.699,-9.902 2.824,-22.019 2.824,-33.492" /><path
         id="path24"
         style="fill:#337AB7;fill-opacity:1;fill-rule:evenodd;stroke:none"
         d="m 333.75,430.746 c 2.738,0 6.32,0.789 9.008,1.219 l 19.555,1.601 c 3.906,0 6.527,0.348 10.226,0.356 l 20.129,-1.027 c 3.176,-0.309 6.496,-0.43 9.648,-0.93 2.895,-0.461 6.317,-1.219 9.356,-1.219 -0.633,1.324 -0.707,4.313 -1.652,6.805 -1.469,3.851 -1.125,3.617 -3.18,8.105 -2.633,5.746 -6.727,10.574 -10.945,14.797 l -5.879,5.402 c -3.844,2.993 -15.864,12.696 -17.125,17.426 -1.051,-0.765 -0.528,-0.402 -1.137,-1.687 -0.926,-1.965 -2.149,-3.258 -3.707,-4.754 -0.719,-0.692 -0.863,-0.707 -1.555,-1.266 l -10.801,-9.301 c -1.078,-1.066 -1.753,-1.8 -2.89,-2.746 -0.41,-0.343 -0.348,-0.297 -0.75,-0.664 l -0.363,-0.343 c -7.028,-6.465 -11.692,-14.063 -15.368,-22.707 -1.629,-3.829 -1.648,-5.118 -2.57,-9.067" /><path
         id="path26"
         style="fill:#337AB7;fill-opacity:1;fill-rule:evenodd;stroke:none"
         d="m 451.516,419.816 14.097,-5.652 c 1.578,-0.684 2.961,-1.394 4.586,-2.113 l 10.735,-5.485 c 0.621,-0.339 0.629,-0.296 1.195,-0.57 0.598,-0.289 0.535,-0.273 1.125,-0.637 8.094,-4.972 16.723,-9.351 24.086,-15.406 l 11.523,-8.574 2.481,8.449 1.047,9.891 c 0,6.094 -1.911,15.097 -4.032,20.648 -0.433,1.129 -0.57,1.836 -0.953,2.922 l -3.738,10.371 c -1.23,3.453 -2.211,7.688 -2.211,12.246 -1.074,-0.289 -1.844,-1.125 -3.422,-1.863 -3.305,-1.539 -19.879,-4.016 -26.32,-5.766 -1.59,-0.429 -2.602,-0.832 -4.313,-1.328 -0.859,-0.254 -1.089,-0.398 -1.816,-0.652 -0.879,-0.313 -1.227,-0.363 -2.094,-0.734 -7.129,-3.043 -11.004,-5.438 -16.738,-10.055 -1.156,-0.93 -4.899,-4.434 -5.238,-5.692" /><path
         id="path28"
         style="fill:#337AB7;fill-opacity:1;fill-rule:evenodd;stroke:none"
         d="m 223.387,401.48 c 0,-11.66 0.457,-9.953 2.82,-20.101 l 3.637,2.711 c 11.301,9.168 19.496,13.828 31.691,21.199 1.508,0.91 2.82,1.418 4.363,2.336 3.165,1.879 17.485,8.449 20.157,9.465 1.09,0.414 1.617,0.531 2.57,0.949 l 4.93,1.777 c -0.371,1.395 -1.434,1.891 -2.325,2.965 -0.328,0.403 -0.152,0.219 -0.472,0.582 l -0.512,0.547 c -7.129,7.129 -16.613,12.262 -26.516,14.387 -9.511,2.035 -20.546,2.898 -28.167,6.738 -0.958,0.485 -0.762,0.594 -1.95,0.871 0,-5.39 -0.125,-7.07 -1.859,-11.539 l -4.406,-12.515 c -1.871,-5.918 -3.961,-14.071 -3.961,-20.372" /><path
         id="path30"
         style="fill:#337AB7;fill-opacity:1;fill-rule:evenodd;stroke:none"
         d="m 548.129,352.113 c 0.269,-0.992 4.906,-6.375 5.691,-7.355 1.051,-1.313 1.77,-2.543 2.852,-3.844 5.93,-7.129 13.301,-20.41 17.887,-28.305 3.535,-6.086 7.617,-15.828 10.386,-22.757 l 1.973,-4.731 c 1.547,0.414 4.559,3.711 5.59,4.988 4.617,5.75 4.937,5.567 8.515,12.641 1.93,3.82 3.028,7.957 4.082,12.133 2.508,9.902 1.965,15.066 5.915,25.824 0.562,1.535 1.21,2.488 1.988,3.652 -9.918,0 -10.86,2.289 -19.742,4.938 -3.453,1.031 -7.321,2.578 -11.02,3.437 -10.433,2.422 -15.836,2.817 -26.266,1.403 -2.613,-0.356 -5.281,-1.422 -7.851,-2.024" /><path
         id="path32"
         style="fill:#337AB7;fill-opacity:1;fill-rule:evenodd;stroke:none"
         d="m 132.418,344.004 c 0.258,-1.113 0.262,-0.863 0.797,-1.668 2.59,-3.891 4.594,-17.285 5.808,-23.461 2.04,-10.363 9.524,-27.906 18.782,-34.105 0.797,1.507 1.101,2.824 1.883,4.46 0.496,1.04 0.449,1.29 0.843,2.333 2.332,6.179 6.758,14.664 9.547,20.425 3.727,7.719 15.004,25.352 20.625,32.262 l 5.887,7.512 c -1.281,0.105 -2.469,0.804 -4.09,1.203 -14.738,3.637 -25.328,1.98 -39.977,-4.031 -6.593,-2.707 -12.339,-4.93 -20.105,-4.93" /><path
         id="path34"
         style="fill:#337AB7;fill-opacity:1;fill-rule:evenodd;stroke:none"
         d="m 601.02,206.137 h 46.543 c -0.555,1.531 -0.133,-0.082 -2.739,2.554 -0.992,1.012 -1.871,1.793 -2.82,2.821 l -14.242,16.078 c -8.055,7.305 -12.516,11.308 -23.309,15.129 l -6.605,1.855 c 0,-2.488 2.898,-20.926 2.824,-28.207 -0.039,-3.414 0.348,-6.406 0.348,-10.23" /><path
         id="path36"
         style="fill:#337AB7;fill-opacity:1;fill-rule:evenodd;stroke:none"
         d="m 98.9219,206.137 h 45.1331 l 0.347,12.703 c -0.015,6.176 2.473,21.39 2.473,24.672 -1.555,-0.125 -2.855,-0.711 -4.262,-1.024 -10.039,-2.25 -19.316,-9.172 -25.98,-16.687 l -10.91,-12.715 c -0.59,-0.703 -0.582,-0.859 -1.243,-1.574 -0.796,-0.86 -1.785,-1.867 -2.652,-2.637 l -2.3358,-1.898 C 99,206.426 99.207,206.934 98.9219,206.137" /><path
         id="path38"
         style="fill:#337AB7;fill-opacity:1;fill-rule:evenodd;stroke:none"
         d="m 293.203,205.434 c 2.719,0 21.313,-0.465 22.992,0.281 0.762,0.336 1.438,1.035 2.391,1.484 2.387,1.121 7.664,2.547 7.758,-1.765 h 17.281 c 1.148,4.933 0.883,11.558 -0.957,16.324 -0.699,1.812 -2.695,4.297 -4.254,5.265 -4.012,2.489 -9.18,2.434 -13.965,1.11 -0.902,-0.25 -0.715,-0.266 -1.285,-0.481 l -4.277,-1.714 c -0.754,-0.313 -0.461,-0.168 -1.207,-0.555 -4.317,-2.215 -9.11,-5.336 -12.735,-8.422 l -4.136,-3.621 c -1.614,-1.25 -2.582,-2.356 -3.993,-3.762 -1.125,-1.125 -3.203,-2.601 -3.613,-4.144" /><path
         id="path40"
         style="fill:#337AB7;fill-opacity:1;fill-rule:evenodd;stroke:none"
         d="m 165.914,240.34 c 0,-7.672 5.504,-8.149 11.926,-3.813 3.605,2.43 12.402,12.211 12.402,17.215 0,2.797 -0.109,4.383 -2.191,6.621 -1.399,1.504 -1.867,2.067 -4.18,2.543 -1.75,0.364 -3.531,0.055 -5.125,-0.843 -1.992,-1.125 -2.418,-1.614 -3.933,-3.118 -3.723,-3.695 -8.899,-13 -8.899,-18.605" /></g></g></svg>