<?xml version="1.0" encoding="UTF-8"?>
<svg width="50px" height="50px" viewBox="0 0 50 50" version="1.1" xmlns="http://www.w3.org/2000/svg" xmlns:xlink="http://www.w3.org/1999/xlink">
    <!-- Generator: Sketch 47.1 (45422) - http://www.bohemiancoding.com/sketch -->
    <title>icons / lock --red</title>
    <desc>Created with Sketch.</desc>
    <defs>
        <path d="M19.5,20 L19.5,14.5 C19.5,13.3954305 20.3954305,12.5 21.5,12.5 L28.5,12.5 C29.6045695,12.5 30.5,13.3954305 30.5,14.5 L30.5,20 L33,20 C34.1045695,20 35,20.8954305 35,22 L35,31 C35,32.1045695 34.1045695,33 33,33 L17,33 C15.8954305,33 15,32.1045695 15,31 L15,22 C15,20.8954305 15.8954305,20 17,20 L19.5,20 Z M21.5,20 L28.5,20 L28.5,14.5 L21.5,14.5 L21.5,20 Z" id="path-1"></path>
    </defs>
    <g id="Symbols" stroke="none" stroke-width="1" fill="none" fill-rule="evenodd">
        <g id="icons-/-lock---red">
            <mask id="mask-2" fill="white">
                <use xlink:href="#path-1"></use>
            </mask>
            <use id="Mask" fill="#F44E4B" xlink:href="#path-1"></use>
            <g id="color-/-red" mask="url(#mask-2)" fill="#F44E4B">
                <g transform="translate(-47.000000, -51.000000)" id="Rectangle-19-Copy-2">
                    <rect x="0" y="0" width="150" height="150"></rect>
                </g>
            </g>
        </g>
    </g>
</svg>