<?xml version="1.0" encoding="UTF-8"?>
<svg width="50px" height="50px" viewBox="0 0 50 50" version="1.1" xmlns="http://www.w3.org/2000/svg" xmlns:xlink="http://www.w3.org/1999/xlink">
    <!-- Generator: Sketch 47.1 (45422) - http://www.bohemiancoding.com/sketch -->
    <title>icons / phone</title>
    <desc>Created with Sketch.</desc>
    <defs></defs>
    <g id="Symbols" stroke="none" stroke-width="1" fill="none" fill-rule="evenodd">
        <g id="icons-/-phone" fill-rule="nonzero" fill="#E5E5E5">
            <path d="M35.9500085,31.5307217 C35.9944226,31.8709875 35.8907294,32.1668394 35.6393641,32.4182772 L32.688242,35.3471016 C32.5551087,35.4950276 32.381332,35.6208734 32.1668394,35.7243127 C31.9523468,35.8278971 31.7415886,35.8944638 31.5345648,35.9240127 C31.5197722,35.9240127 31.4752857,35.9278196 31.4012865,35.9352159 C31.3274323,35.942576 31.2312804,35.9463466 31.1129397,35.9463466 C30.8318079,35.9463466 30.3768995,35.8982707 29.7482143,35.8020826 C29.1195291,35.7058945 28.3503506,35.4691768 27.4406787,35.0920382 C26.5307893,34.7148271 25.4990422,34.1489379 24.3452563,33.3945883 C23.1914704,32.6402748 21.963649,31.6047209 20.6619009,30.2881439 C19.6264194,29.2674551 18.7684491,28.291144 18.0879899,27.3592469 C17.4075306,26.4272774 16.8602047,25.5656089 16.4460121,24.7742052 C16.0317833,23.9828015 15.7211389,23.2653608 15.5140426,22.6218831 C15.3069463,21.9784053 15.1664167,21.4236831 15.0924537,20.9577165 C15.0184907,20.4917498 14.9889056,20.1256332 15.0036981,19.8593665 C15.0184907,19.5930998 15.025887,19.4451739 15.025887,19.4155887 C15.0554722,19.2084924 15.1220389,18.997698 15.225587,18.7832054 C15.3291352,18.5687128 15.4548722,18.3948999 15.6027981,18.2617666 L18.5539202,15.3106444 C18.7610165,15.1035481 18.997698,15 19.2639647,15 C19.4562684,15 19.6263832,15.0554722 19.7743091,15.1664167 C19.922235,15.2773611 20.047972,15.4141926 20.1515202,15.5769111 L22.5257312,20.0812554 C22.6588646,20.3179369 22.695846,20.5768072 22.6366757,20.8578665 C22.5775053,21.1389257 22.4517683,21.3756072 22.2594646,21.5679109 L21.172209,22.6551664 C21.1426239,22.6847516 21.1167368,22.7328275 21.0945479,22.7993942 C21.072359,22.8659608 21.0612646,22.9214331 21.0612646,22.9658108 C21.120435,23.2764553 21.2535683,23.6314775 21.4606646,24.0308775 C21.6381757,24.3858997 21.9118387,24.818583 22.2816535,25.3289274 C22.6514683,25.8392718 23.1766053,26.4272411 23.8570645,27.0929078 C24.5227312,27.7734395 25.1144348,28.3022022 25.6321756,28.6794858 C26.1498075,29.0565519 26.5826359,29.3340217 26.9302618,29.5115328 C27.2778877,29.6890439 27.5441543,29.7962902 27.7290255,29.8331629 L28.0063141,29.8886714 C28.0358993,29.8886714 28.084084,29.8775407 28.1505781,29.8553881 C28.2171448,29.8331629 28.2652207,29.8073122 28.2948421,29.7776907 L29.5595725,28.4907352 C29.8259842,28.25409 30.1364836,28.1357493 30.4915421,28.1357493 C30.7430886,28.1357493 30.9426799,28.1800908 31.0906058,28.2688826 L31.1127584,28.2688826 L35.3951776,30.7984158 C35.7059308,30.9908646 35.8908019,31.2348698 35.9500085,31.5307217 Z" id="icon-phone"></path>
        </g>
    </g>
</svg>