<?xml version="1.0" encoding="UTF-8"?>
<svg width="9px" height="20px" viewBox="0 0 9 20" version="1.1" xmlns="http://www.w3.org/2000/svg" xmlns:xlink="http://www.w3.org/1999/xlink">
    <!-- Generator: Sketch 47.1 (45422) - http://www.bohemiancoding.com/sketch -->
    <title>icons / salary</title>
    <desc>Created with Sketch.</desc>
    <defs></defs>
    <g id="Symbols" stroke="none" stroke-width="1" fill="none" fill-rule="evenodd">
        <g id="icons-/-salary" fill="#E5E5E5">
            <path d="M7.928,7.008 C7.304,6.352 6.568,5.84 5.544,5.696 L5.544,4.08 L3.992,4.08 L3.992,5.728 C2.488,6.032 1.56,7.12 1.56,8.688 C1.56,11.568 5.784,11.536 5.784,13.184 C5.784,13.92 5.384,14.288 4.488,14.288 C3.72,14.288 3.016,13.968 2.2,13.36 L1.176,14.944 C1.928,15.632 3.048,16.048 3.992,16.16 L3.992,17.76 L5.544,17.76 L5.544,16.096 C7.192,15.744 8.04,14.56 8.04,13.024 C8.04,9.968 3.816,10.096 3.816,8.576 C3.816,7.856 4.232,7.552 5,7.552 C5.672,7.552 6.168,7.824 6.744,8.352 L7.928,7.008 Z" id="$"></path>
        </g>
    </g>
</svg>