<?xml version="1.0" encoding="UTF-8"?>
<svg width="50px" height="50px" viewBox="0 0 50 50" version="1.1" xmlns="http://www.w3.org/2000/svg" xmlns:xlink="http://www.w3.org/1999/xlink">
    <!-- Generator: Sketch 47.1 (45422) - http://www.bohemiancoding.com/sketch -->
    <title>icons / web</title>
    <desc>Created with Sketch.</desc>
    <defs>
        <path d="M35.9736,24.2666667 C35.6128,18.7754667 31.2245333,14.3857333 25.7333333,14.0249333 L25.7333333,14 L25,14 L24.2666667,14 L24.2666667,14.0249333 C18.7754667,14.3857333 14.3857333,18.7754667 14.0249333,24.2666667 L14,24.2666667 L14,25 L14,25.7333333 L14.0249333,25.7333333 C14.3857333,31.2245333 18.7754667,35.6128 24.2666667,35.9736 L24.2666667,36 L25,36 L25.7333333,36 L25.7333333,35.9736 C31.2245333,35.6128 35.6128,31.2245333 35.9736,25.7333333 L36,25.7333333 L36,25 L36,24.2666667 L35.9736,24.2666667 Z M20.886,16.398 C20.1776,17.3396 19.5894667,18.5202667 19.1612,19.8666667 L16.9641333,19.8666667 C17.9204,18.3750667 19.2785333,17.168 20.886,16.398 Z M16.1970667,21.3333333 L18.7754667,21.3333333 C18.5789333,22.2602667 18.4542667,23.2444 18.4146667,24.2666667 L15.4945333,24.2666667 C15.5722667,23.2341333 15.8157333,22.2470667 16.1970667,21.3333333 Z M15.4945333,25.7333333 L18.4146667,25.7333333 C18.4542667,26.7556 18.5789333,27.7397333 18.7754667,28.6666667 L16.1970667,28.6666667 C15.8157333,27.7529333 15.5722667,26.7658667 15.4945333,25.7333333 Z M16.9641333,30.1333333 L19.1597333,30.1333333 C19.588,31.4797333 20.1761333,32.6604 20.886,33.602 C19.2785333,32.832 17.9204,31.6264 16.9641333,30.1333333 Z M24.2666667,34.4394667 C22.7589333,34.0361333 21.4609333,32.4169333 20.6733333,30.1333333 L24.2666667,30.1333333 L24.2666667,34.4394667 Z M24.2666667,28.6666667 L20.2612,28.6666667 C20.0544,27.7529333 19.9238667,26.7658667 19.8813333,25.7333333 L24.2666667,25.7333333 L24.2666667,28.6666667 Z M24.2666667,24.2666667 L19.8813333,24.2666667 C19.9238667,23.2341333 20.0544,22.2470667 20.2612,21.3333333 L24.2666667,21.3333333 L24.2666667,24.2666667 Z M24.2666667,19.8666667 L20.6733333,19.8666667 C21.4609333,17.5830667 22.7589333,15.9638667 24.2666667,15.562 L24.2666667,19.8666667 Z M33.0358667,19.8666667 L30.8417333,19.8666667 C30.412,18.5202667 29.8253333,17.3396 29.114,16.398 C30.72,17.168 32.0796,18.3750667 33.0358667,19.8666667 Z M25.7333333,15.562 C27.2396,15.9638667 28.5390667,17.5830667 29.3266667,19.8666667 L25.7333333,19.8666667 L25.7333333,15.562 Z M25.7333333,21.3333333 L29.7373333,21.3333333 C29.9456,22.2470667 30.0732,23.2341333 30.1186667,24.2666667 L25.7333333,24.2666667 L25.7333333,21.3333333 Z M25.7333333,25.7333333 L30.1186667,25.7333333 C30.0761333,26.7658667 29.9456,27.7529333 29.7373333,28.6666667 L25.7333333,28.6666667 L25.7333333,25.7333333 Z M25.7333333,34.4394667 L25.7333333,30.1333333 L29.3266667,30.1333333 C28.5390667,32.4169333 27.2396,34.0361333 25.7333333,34.4394667 Z M29.114,33.602 C29.8224,32.6589333 30.412,31.4797333 30.8417333,30.1333333 L33.0358667,30.1333333 C32.0796,31.6264 30.72,32.832 29.114,33.602 Z M33.8029333,28.6666667 L31.2245333,28.6666667 C31.4210667,27.7397333 31.5457333,26.7556 31.5853333,25.7333333 L34.504,25.7333333 C34.4277333,26.7658667 34.1842667,27.7529333 33.8029333,28.6666667 Z M31.5853333,24.2666667 C31.5457333,23.2444 31.4210667,22.2602667 31.2245333,21.3333333 L33.8029333,21.3333333 C34.1842667,22.2470667 34.4277333,23.2341333 34.5054667,24.2666667 L31.5853333,24.2666667 Z" id="path-1"></path>
    </defs>
    <g id="Symbols" stroke="none" stroke-width="1" fill="none" fill-rule="evenodd">
        <g id="icons-/-web">
            <mask id="mask-2" fill="white">
                <use xlink:href="#path-1"></use>
            </mask>
            <g id="Mask" fill-rule="nonzero"></g>
            <g id="color-/-grey" mask="url(#mask-2)" fill="#E5E5E5">
                <g transform="translate(-50.000000, -50.000000)" id="Rectangle-19-Copy-2">
                    <rect x="0" y="0" width="150" height="150"></rect>
                </g>
            </g>
        </g>
    </g>
</svg>